<?xml version="1.0" encoding="UTF-8" standalone="no"?>
<svg
   xmlns:dc="http://purl.org/dc/elements/1.1/"
   xmlns:cc="http://creativecommons.org/ns#"
   xmlns:rdf="http://www.w3.org/1999/02/22-rdf-syntax-ns#"
   xmlns:svg="http://www.w3.org/2000/svg"
   xmlns="http://www.w3.org/2000/svg"
   xmlns:sodipodi="http://sodipodi.sourceforge.net/DTD/sodipodi-0.dtd"
   xmlns:inkscape="http://www.inkscape.org/namespaces/inkscape"
   width="19.016949"
   height="19.016949"
   viewBox="0 0 19.016949 19.016949"
   version="1.1"
   id="svg4"
   sodipodi:docname="zoom_in.svg"
   inkscape:version="0.92.3 (2405546, 2018-03-11)">
  <metadata
     id="metadata10">
    <rdf:RDF>
      <cc:Work
         rdf:about="">
        <dc:format>image/svg+xml</dc:format>
        <dc:type
           rdf:resource="http://purl.org/dc/dcmitype/StillImage" />
        <dc:title></dc:title>
      </cc:Work>
    </rdf:RDF>
  </metadata>
  <defs
     id="defs8" />
  <sodipodi:namedview
     pagecolor="#ffffff"
     bordercolor="#666666"
     borderopacity="1"
     objecttolerance="10"
     gridtolerance="10"
     guidetolerance="10"
     inkscape:pageopacity="0"
     inkscape:pageshadow="2"
     inkscape:window-width="1920"
     inkscape:window-height="1016"
     id="namedview6"
     showgrid="false"
     fit-margin-top="0"
     fit-margin-left="0"
     fit-margin-right="0"
     fit-margin-bottom="0"
     inkscape:zoom="29.5"
     inkscape:cx="13.442134"
     inkscape:cy="8.5227084"
     inkscape:window-x="0"
     inkscape:window-y="27"
     inkscape:window-maximized="1"
     inkscape:current-layer="svg4" />
  <g
     id="g819"
     transform="matrix(0.88016562,0,0,0.88016562,2.9105575,2.9072322)"
     style="stroke-width:1.13614976">
    <path
       inkscape:connector-curvature="0"
       style="fill-rule:evenodd;stroke-width:5.68074894;stroke-miterlimit:4;stroke-dasharray:none"
       id="path2"
       d="M 14.7,13.3 10.89,9.47 A 5.93,5.93 0 0 0 12,6 C 12,2.69 9.31,0 6,0 2.69,0 0,2.69 0,6 c 0,3.31 2.69,6 6,6 1.3,0 2.48,-0.41 3.47,-1.11 l 3.83,3.81 c 0.19,0.2 0.45,0.3 0.7,0.3 0.25,0 0.52,-0.09 0.7,-0.3 a 0.996,0.996 0 0 0 0,-1.41 z M 6,10.7 C 3.41,10.7 1.3,8.59 1.3,6 1.3,3.41 3.41,1.3 6,1.3 c 2.59,0 4.7,2.11 4.7,4.7 0,2.59 -2.11,4.7 -4.7,4.7 z" />
    <path
       inkscape:connector-curvature="0"
       id="path817"
       d="M 2.8311536,6.153747 H 8.5083281 V 6.2893402"
       style="fill:none;stroke:#000000;stroke-width:1.70422471;stroke-linecap:butt;stroke-linejoin:miter;stroke-miterlimit:4;stroke-dasharray:none;stroke-opacity:1" />
    <path
       inkscape:connector-curvature="0"
       id="path817-3"
       d="M 6.044741,2.9401594 V 8.6173346 H 5.909148"
       style="fill:none;stroke:#000000;stroke-width:1.70422471;stroke-linecap:butt;stroke-linejoin:miter;stroke-miterlimit:4;stroke-dasharray:none;stroke-opacity:1" />
  </g>
</svg>
