<?xml version="1.0" encoding="UTF-8" standalone="no"?>
<svg
   xmlns:dc="http://purl.org/dc/elements/1.1/"
   xmlns:cc="http://creativecommons.org/ns#"
   xmlns:rdf="http://www.w3.org/1999/02/22-rdf-syntax-ns#"
   xmlns:svg="http://www.w3.org/2000/svg"
   xmlns="http://www.w3.org/2000/svg"
   xmlns:sodipodi="http://sodipodi.sourceforge.net/DTD/sodipodi-0.dtd"
   xmlns:inkscape="http://www.inkscape.org/namespaces/inkscape"
   width="13.98"
   height="14"
   viewBox="0 0 13.98 14"
   version="1.1"
   id="svg4"
   sodipodi:docname="globe_negative.svg"
   inkscape:version="0.92.3 (2405546, 2018-03-11)">
  <metadata
     id="metadata10">
    <rdf:RDF>
      <cc:Work
         rdf:about="">
        <dc:format>image/svg+xml</dc:format>
        <dc:type
           rdf:resource="http://purl.org/dc/dcmitype/StillImage" />
        <dc:title></dc:title>
      </cc:Work>
    </rdf:RDF>
  </metadata>
  <defs
     id="defs8" />
  <sodipodi:namedview
     pagecolor="#ffffff"
     bordercolor="#666666"
     borderopacity="1"
     objecttolerance="10"
     gridtolerance="10"
     guidetolerance="10"
     inkscape:pageopacity="0"
     inkscape:pageshadow="2"
     inkscape:window-width="1920"
     inkscape:window-height="1016"
     id="namedview6"
     showgrid="false"
     inkscape:zoom="29.5"
     inkscape:cx="7.9041234"
     inkscape:cy="7.7044109"
     inkscape:window-x="0"
     inkscape:window-y="27"
     inkscape:window-maximized="1"
     inkscape:current-layer="svg4"
     fit-margin-top="0"
     fit-margin-left="0"
     fit-margin-right="0"
     fit-margin-bottom="0" />
  <path
     d="M 7,0 C 3.14,0 0,3.1399999 0,6.9999999 0,10.86 3.14,14 7,14 c 0.4800004,0 0.9400004,-0.05 1.3800004,-0.14 -0.17,-0.08 -0.2,-0.73 -0.02,-1.09 0.19,-0.41 0.81,-1.45 0.2,-1.8 -0.61,-0.35 -0.44,-0.5 -0.81,-0.91 -0.37,-0.4099999 -0.22,-0.4699999 -0.25,-0.5799999 -0.08,-0.3400002 0.36,-0.8900002 0.39,-0.9400002 0.02,-0.06 0.02,-0.27 0,-0.33 0,-0.08 -0.27,-0.22 -0.34,-0.23 -0.06,0 -0.11,0.11 -0.2,0.13 -0.09,0.02 -0.5000004,-0.25 -0.5900004,-0.33 -0.09,-0.08 -0.14,-0.23 -0.27,-0.34 -0.13,-0.13 -0.14,-0.03 -0.33,-0.11 -0.19,-0.08 -0.8,-0.31 -1.28,-0.48 -0.48,-0.19 -0.52,-0.47 -0.52,-0.66 -0.02,-0.2 -0.3,-0.47 -0.42,-0.67 -0.14,-0.2 -0.16,-0.47 -0.2,-0.41 -0.04,0.06 0.25,0.78 0.2,0.81 -0.05,0.02 -0.16,-0.2 -0.3,-0.38 -0.14,-0.19 0.14,-0.09 -0.3,-0.95 -0.44,-0.86 0.14,-1.3 0.17,-1.75 0.03,-0.45 0.38,0.17 0.19,-0.13 -0.19,-0.3 0,-0.89 -0.14,-1.11 -0.13,-0.22 -0.88,0.25 -0.88,0.25 0.02,-0.22 0.69,-0.58 1.16,-0.91999987 0.47,-0.34 0.78,-0.06 1.16,0.05 0.39,0.12999997 0.41,0.09 0.28,-0.05 -0.13,-0.13 0.06,-0.17 0.36,-0.13 C 5.92,0.85000003 6.02,1.21 6.47,1.16 6.94,1.13 6.52,1.25 6.58,1.3799999 c 0.06,0.13 -0.06,0.11 -0.38,0.3 -0.3,0.2 0.02,0.22 0.55,0.61 0.5300004,0.39 0.38,-0.25 0.31,-0.55 -0.07,-0.3 0.3900004,-0.06 0.3900004,-0.06 0.33,0.22 0.27,0.02 0.5,0.08 0.23,0.06 0.91,0.64 0.91,0.64 -0.83,0.44 -0.31,0.48 -0.17,0.59 0.14,0.11 -0.28,0.3 -0.28,0.3 -0.17,-0.17 -0.19,0.02 -0.3,0.08 -0.11,0.06 -0.02,0.22 -0.02,0.22 -0.56,0.09 -0.44,0.69 -0.42,0.83 0,0.14 -0.38,0.36 -0.47,0.58 -0.09,0.2 0.25,0.64 0.06,0.66 C 7.07,5.6899999 6.92,4.9999999 5.95,5.2499999 c -0.3,0.08 -0.94,0.41 -0.59,1.08 0.36,0.69 0.92,-0.19 1.11,-0.09 0.19,0.1 -0.06,0.53 -0.02,0.55 0.04,0.02 0.53,0.02 0.56,0.61 0.03,0.59 0.7700004,0.53 0.9200004,0.55 0.17,0 0.7,-0.44 0.77,-0.45 0.06,-0.03 0.38,-0.28 1.03,0.09 0.6599996,0.36 0.9799996,0.31 1.1999996,0.47 0.22,0.16 0.08,0.47 0.28,0.58 0.2,0.11 1.06,-0.03 1.28,0.31 C 12.71,9.2900001 11.61,11.04 11.27,11.23 c -0.34,0.19 -0.48,0.64 -0.84,0.92 -0.36,0.28 -0.8099996,0.64 -1.2699996,0.91 -0.41,0.23 -0.47,0.66 -0.66,0.8 C 11.64,13.16 13.98,10.36 13.98,7.0199999 13.98,3.1599999 10.84,0.02 6.98,0.02 Z m 1.6400004,6.5599999 c -0.09,0.03 -0.28,0.22 -0.78,-0.08 -0.48,-0.3 -0.8100004,-0.23 -0.8600004,-0.28 0,0 -0.05,-0.11 0.1700004,-0.14 0.44,-0.05 0.98,0.41 1.11,0.41 0.13,0 0.19,-0.13 0.41,-0.05 0.22,0.08 0.05,0.13 -0.05,0.14 z M 6.34,0.70000003 c -0.05,-0.03 0.03,-0.08 0.09,-0.14 0.03,-0.03 0.02,-0.11 0.05,-0.14 0.11,-0.11 0.61,-0.25000003 0.52,0.03 -0.11,0.27 -0.58,0.3 -0.66,0.25 z M 7.5700004,1.5899999 c -0.19,-0.02 -0.5800004,-0.05 -0.5200004,-0.14 C 7.3500004,1.17 6.96,1.07 6.71,1.07 6.46,1.05 6.37,0.91000003 6.49,0.88000003 c 0.12,-0.03 0.61,0.02 0.7000004,0.08 0.08,0.06 0.52,0.24999997 0.55,0.37999987 0.02,0.13 0,0.25 -0.17,0.25 z m 1.47,-0.05 c -0.14,0.09 -0.83,-0.4099999 -0.95,-0.5199999 -0.56,-0.47999997 -0.89,-0.30999997 -1.0000004,-0.40999997 -0.11,-0.1 -0.08,-0.19 0.1100004,-0.34 0.19,-0.15000003 0.69,0.06 1,0.09 0.3,0.03 0.66,0.27 0.66,0.55 0.02,0.24999997 0.33,0.49999987 0.19,0.62999987 z"
     id="path2"
     inkscape:connector-curvature="0"
     style="fill:#ffffff;fill-opacity:1;fill-rule:evenodd;stroke:none;stroke-opacity:1" />
</svg>
