<?xml version="1.0" encoding="UTF-8" standalone="no"?>
<!-- Created with Inkscape (http://www.inkscape.org/) -->

<svg
   xmlns:dc="http://purl.org/dc/elements/1.1/"
   xmlns:cc="http://creativecommons.org/ns#"
   xmlns:rdf="http://www.w3.org/1999/02/22-rdf-syntax-ns#"
   xmlns:svg="http://www.w3.org/2000/svg"
   xmlns="http://www.w3.org/2000/svg"
   xmlns:sodipodi="http://sodipodi.sourceforge.net/DTD/sodipodi-0.dtd"
   xmlns:inkscape="http://www.inkscape.org/namespaces/inkscape"
   width="79.052422mm"
   height="77.816521mm"
   viewBox="0 0 79.052422 77.816521"
   version="1.1"
   id="svg8"
   inkscape:version="0.92.3 (2405546, 2018-03-11)"
   sodipodi:docname="cinema.svg">
  <defs
     id="defs2" />
  <sodipodi:namedview
     id="base"
     pagecolor="#ffffff"
     bordercolor="#666666"
     borderopacity="1.0"
     inkscape:pageopacity="0.0"
     inkscape:pageshadow="2"
     inkscape:zoom="0.98994949"
     inkscape:cx="190.61437"
     inkscape:cy="181.0855"
     inkscape:document-units="mm"
     inkscape:current-layer="layer1"
     showgrid="false"
     fit-margin-top="0"
     fit-margin-left="0"
     fit-margin-right="0"
     fit-margin-bottom="0"
     inkscape:window-width="1920"
     inkscape:window-height="1016"
     inkscape:window-x="0"
     inkscape:window-y="27"
     inkscape:window-maximized="1" />
  <metadata
     id="metadata5">
    <rdf:RDF>
      <cc:Work
         rdf:about="">
        <dc:format>image/svg+xml</dc:format>
        <dc:type
           rdf:resource="http://purl.org/dc/dcmitype/StillImage" />
        <dc:title></dc:title>
      </cc:Work>
    </rdf:RDF>
  </metadata>
  <g
     inkscape:label="Layer 1"
     inkscape:groupmode="layer"
     id="layer1"
     transform="translate(-104.19544,-173.4818)">
    <path
       style="fill:#000000;stroke-width:1"
       d="m 137.89796,244.92807 c -0.92712,-0.57258 -1.87102,-0.8098 -2.97399,-0.74741 -1.78606,0.10109 -3.77852,-0.74389 -4.37283,-1.85436 -0.35534,-0.66397 -0.53668,-0.67968 -2.36647,-0.20504 -3.16894,0.82201 -6.01962,-0.0623 -7.37686,-2.28816 -1.2986,-2.12977 -0.88481,-5.25745 0.96012,-7.25719 0.49226,-0.53358 0.99763,-1.64704 1.12303,-2.47435 0.2783,-1.83604 1.51051,-3.70622 3.20849,-4.86969 0.69923,-0.47912 1.2032,-1.07456 1.11994,-1.3232 -0.0833,-0.24864 -1.22654,-4.99232 -2.54061,-10.54151 -1.92575,-8.1322 -2.31349,-10.29288 -1.99878,-11.13809 0.29044,-0.78001 0.25494,-1.22734 -0.13859,-1.74625 -0.95835,-1.26371 -0.67874,-3.43864 0.63434,-4.93416 0.65345,-0.74421 1.52657,-1.46055 1.94028,-1.59187 0.43715,-0.13875 0.75579,-0.59349 0.76074,-1.08571 0.0164,-1.62545 1.47131,-4.12892 2.88407,-4.96247 0.75681,-0.44652 1.37699,-1.1002 1.37817,-1.45263 0.0135,-4.00239 3.5985,-7.43174 7.76901,-7.43174 2.21514,0 3.14232,0.37345 4.84064,1.94978 1.11136,1.03152 1.25272,1.06194 3.11623,0.67037 2.58138,-0.5424 4.50992,-0.13441 6.01632,1.27278 0.82383,0.76957 1.6379,1.15247 2.45314,1.15383 0.67108,0.001 1.74402,0.32043 2.38431,0.70957 0.92077,0.5596 1.41857,0.62954 2.38102,0.33451 1.94698,-0.59683 3.88891,-0.015 5.57412,1.67027 1.69451,1.69451 2.26689,3.62866 1.65953,5.60766 -0.28718,0.93569 -0.25131,1.43153 0.14252,1.97012 0.61694,0.84371 0.69537,3.95668 0.13671,5.42607 -0.29528,0.77664 -0.24832,1.22632 0.19402,1.85785 0.32098,0.45827 0.5836,1.12892 0.5836,1.49035 0,0.87649 -6.90431,30.16807 -7.37149,31.27357 -0.25289,0.59843 -2.37198,1.87079 -6.8775,4.12946 -4.71987,2.3661 -6.76018,3.60287 -7.41387,4.49402 -1.99271,2.71659 -5.22931,3.4994 -7.82936,1.89362 z m 5.2564,-2.43912 c 1.64948,-1.64948 0.98963,-4.63116 -1.14969,-5.19513 -1.02028,-0.26896 -1.18459,-0.48223 -1.1168,-1.44949 0.22231,-3.17153 0.14575,-3.81782 -0.5654,-4.77315 -1.81974,-2.44455 -4.20595,-2.08167 -6.13433,0.93289 -0.74731,1.16822 -1.6208,2.12406 -1.94109,2.12406 -1.07763,0 -1.10501,-1.26591 -0.0694,-3.20811 1.15282,-2.1619 1.09694,-2.58454 -0.46363,-3.50639 -1.88921,-1.11598 -3.77608,-0.86561 -5.35182,0.71012 -1.25486,1.25485 -1.35228,1.51417 -1.17146,3.11832 0.18012,1.59796 0.10681,1.79638 -0.84531,2.28875 -2.00457,1.0366 -2.61924,4.13614 -1.0966,5.52978 0.48022,0.43953 1.28433,0.92412 1.7869,1.07684 1.25773,0.38219 4.26969,-0.52426 4.75498,-1.43102 0.63342,-1.18357 2.06404,-0.75831 2.22185,0.66046 0.0712,0.64029 0.40386,1.46975 0.73923,1.84326 0.65856,0.73344 3.00246,0.93409 3.39989,0.29104 0.45508,-0.73633 1.75979,-0.40297 2.11883,0.54138 0.64441,1.69493 3.3848,1.94541 4.88381,0.44639 z m 6.39447,-5.74933 c 0.48897,-4.73319 2.19117,-26.91864 2.07462,-27.03913 -0.0926,-0.0958 -1.29793,0.38281 -2.67836,1.06354 l -2.5099,1.23769 v 13.2054 13.20539 l 1.55222,-0.79188 c 0.85372,-0.43555 1.55636,-0.832 1.56142,-0.88101 z m 6.20028,-2.99985 c 1.18208,-0.60305 1.60638,-1.10125 1.90036,-2.23131 0.20816,-0.80021 1.71156,-7.13023 3.3409,-14.06673 1.62934,-6.93649 3.05057,-12.92198 3.15829,-13.30109 0.16917,-0.59536 -0.11221,-0.54322 -2.06485,0.38268 -1.24339,0.58958 -2.30077,1.08535 -2.34975,1.10172 -0.29264,0.0978 -6.11393,28.89114 -5.84105,28.89114 0.18382,0 1.01906,-0.34939 1.8561,-0.77641 z m -12.41837,-12.04981 v -9.72177 l -2.5415,-1.18932 c -1.39783,-0.65412 -2.61334,-1.11748 -2.70114,-1.02968 -0.11034,0.11034 1.00961,14.69345 1.35522,17.64664 0.003,0.0322 0.59472,0.40553 1.3132,0.82945 0.71848,0.42391 1.54692,1.31429 1.84097,1.9786 0.29407,0.66432 0.57934,1.20785 0.63396,1.20785 0.0546,0 0.0993,-4.3748 0.0993,-9.72177 z m -10.85585,-5.95953 c -1.06962,-5.31654 -2.01779,-9.73945 -2.10703,-9.82871 -0.0892,-0.0892 -1.21902,-0.66203 -2.51062,-1.27285 l -2.34834,-1.1106 0.2163,1.04388 c 0.11896,0.57415 1.20997,5.22109 2.42447,10.32655 l 2.20817,9.28265 1.92679,1.04444 c 1.16787,0.63303 1.96781,0.8744 2.03092,0.61275 0.0573,-0.23741 -0.77103,-4.78157 -1.84066,-10.09811 z m 26.70908,-13.23341 c 5.00219,-2.39312 5.48983,-2.89465 5.48983,-5.64619 0,-1.2842 -0.18741,-1.65364 -1.1295,-2.22655 l -1.1295,-0.6869 0.93547,-0.90036 c 1.37162,-1.32013 1.23609,-2.9242 -0.38392,-4.54423 -1.65344,-1.65344 -3.18752,-1.75136 -4.64255,-0.29633 -0.56268,0.56269 -1.02306,0.81669 -1.02306,0.56444 0,-0.25222 -0.42862,-0.88723 -0.9525,-1.41111 -1.13692,-1.13691 -3.45825,-1.29532 -4.54674,-0.31026 -0.67291,0.60898 -0.70965,0.5803 -0.70965,-0.55393 0,-0.84195 -0.316,-1.4456 -1.06714,-2.03859 -1.41609,-1.11789 -4.33121,-0.91024 -5.73496,0.40852 -0.52577,0.49393 -1.01362,0.82462 -1.08412,0.73484 -0.0705,-0.0898 -0.51082,-0.79999 -0.97849,-1.57827 -1.67515,-2.78764 -4.53134,-3.55721 -7.16386,-1.93022 -1.86091,1.15011 -2.7523,3.15005 -2.46924,5.54003 l 0.22264,1.87983 h -1.33991 c -2.47157,0 -3.78877,2.30023 -2.74615,4.79558 l 0.59052,1.41331 h -1.48009 c -2.63794,0 -4.57888,2.52285 -2.9689,3.85902 0.30588,0.25385 4.94475,2.34521 10.30863,4.64747 l 9.7525,4.18592 4.81161,-1.84608 c 2.64638,-1.01535 6.89396,-2.84231 9.43908,-4.05994 z m -16.74527,-1.21084 c -0.14967,-0.14967 -0.27212,-0.5798 -0.27212,-0.95585 0,-1.28224 -1.13124,-1.9771 -2.76842,-1.70049 -1.58157,0.2672 -1.59665,0.25377 -2.05077,-1.8262 -0.40024,-1.83326 -3.10785,-1.91912 -3.56118,-0.11292 -0.12815,0.5106 -0.45568,1.11315 -0.72783,1.33902 -0.71892,0.59666 -1.75759,0.061 -1.75591,-0.90543 0.002,-1.17056 1.34435,-3.23614 2.30012,-3.53949 0.52773,-0.16749 0.80287,-0.58493 0.80287,-1.21808 0,-2.21911 2.4532,-4.96319 4.83683,-5.41036 1.87591,-0.35193 3.84706,0.42198 5.30796,2.08398 1.11287,1.26607 1.44026,1.41869 2.83279,1.32055 1.9429,-0.13693 4.00006,1.03408 4.59758,2.6171 0.39947,1.05831 0.50953,1.10109 2.38439,0.92691 2.4398,-0.22666 4.26052,0.77854 5.11517,2.82403 0.81514,1.95087 0.58828,3.05626 -0.62722,3.05626 -0.74116,0 -1.00106,-0.22897 -1.10116,-0.97014 -0.18782,-1.39052 -1.56291,-2.71638 -2.81727,-2.71638 -0.5867,0 -1.60139,0.44986 -2.25484,0.99971 -1.82942,1.53936 -2.55488,1.16187 -2.573,-1.33886 -0.0114,-1.57885 -0.19121,-2.20256 -0.75327,-2.61354 -0.98126,-0.71752 -2.70194,-0.68593 -3.32182,0.0611 -0.67551,0.81393 -2.08149,0.55767 -2.23183,-0.40678 -0.21746,-1.39506 -1.0039,-2.57836 -2.08527,-3.13755 -1.59164,-0.82308 -2.58989,-0.67116 -3.84639,0.58533 -1.42552,1.42553 -1.49075,2.84732 -0.15845,3.45435 0.53672,0.24454 1.17593,0.88376 1.42048,1.42049 0.26798,0.58817 0.76674,0.97642 1.25546,0.9773 2.16475,0.004 4.77224,3.12796 3.84277,4.60409 -0.4417,0.70144 -1.36873,1.00289 -1.78967,0.58195 z"
       id="path826"
       inkscape:connector-curvature="0" />
  </g>
</svg>
