<?xml version="1.0" encoding="UTF-8" standalone="no"?>
<!-- Created with Inkscape (http://www.inkscape.org/) -->

<svg
   xmlns:dc="http://purl.org/dc/elements/1.1/"
   xmlns:cc="http://creativecommons.org/ns#"
   xmlns:rdf="http://www.w3.org/1999/02/22-rdf-syntax-ns#"
   xmlns:svg="http://www.w3.org/2000/svg"
   xmlns="http://www.w3.org/2000/svg"
   xmlns:sodipodi="http://sodipodi.sourceforge.net/DTD/sodipodi-0.dtd"
   xmlns:inkscape="http://www.inkscape.org/namespaces/inkscape"
   width="281.21426mm"
   height="281.21426mm"
   viewBox="0 0 281.21426 281.21427"
   version="1.1"
   id="svg8"
   inkscape:version="0.92.3 (2405546, 2018-03-11)"
   sodipodi:docname="send.svg">
  <defs
     id="defs2" />
  <sodipodi:namedview
     id="base"
     pagecolor="#ffffff"
     bordercolor="#666666"
     borderopacity="1.0"
     inkscape:pageopacity="0.0"
     inkscape:pageshadow="2"
     inkscape:zoom="0.35"
     inkscape:cx="158.23963"
     inkscape:cy="587.83213"
     inkscape:document-units="mm"
     inkscape:current-layer="layer1"
     showgrid="false"
     fit-margin-top="0"
     fit-margin-left="0"
     fit-margin-right="0"
     fit-margin-bottom="0"
     inkscape:window-width="1920"
     inkscape:window-height="1016"
     inkscape:window-x="0"
     inkscape:window-y="27"
     inkscape:window-maximized="1" />
  <metadata
     id="metadata5">
    <rdf:RDF>
      <cc:Work
         rdf:about="">
        <dc:format>image/svg+xml</dc:format>
        <dc:type
           rdf:resource="http://purl.org/dc/dcmitype/StillImage" />
        <dc:title></dc:title>
      </cc:Work>
    </rdf:RDF>
  </metadata>
  <g
     inkscape:label="Layer 1"
     inkscape:groupmode="layer"
     id="layer1"
     transform="translate(15.264519,43.489975)">
    <path
       style="opacity:1;fill:#ffffff;fill-opacity:1;stroke:none;stroke-width:0.56699997;stroke-linejoin:round;stroke-miterlimit:4;stroke-dasharray:none;stroke-dashoffset:0;stroke-opacity:1"
       d="m 79.914007,207.65525 c -1.617821,-0.84141 -2.799458,-2.02801 -3.627559,-3.64277 -0.681884,-1.32965 -0.719169,-2.50996 -0.719169,-22.76736 v -21.365 l 43.582371,-53.39485 c 55.48182,-67.973411 55.81825,-68.387161 56.2476,-69.175345 0.97118,-1.782871 -0.45647,-0.629451 -17.4443,14.093571 C 79.261645,119.60368 51.238379,143.66714 50.681399,143.5171 50.09754,143.35982 8.6542746,126.42214 4.8828246,124.79943 c -0.937092,-0.4032 -2.340328,-1.43765 -3.118304,-2.29877 -1.36029827,-1.50569 -1.41444727,-1.67065 -1.41308827,-4.30492 0.0017,-3.26373 0.65469127,-4.58025 3.08835127,-6.22636 1.961821,-1.32696 2.934073,-1.88975 90.6483324,-52.471208 C 132.23536,37.500108 171.10076,15.087191 180.45567,9.691683 198.9956,-1.0013466 202.15295,-2.665276 203.87953,-2.652754 c 2.72927,0.019793 6.19843,2.7323314 6.94293,5.428681 0.42117,1.525359 1.32918,-4.2619823 -11.09651,70.72522 -9.31748,56.229633 -16.79594,100.698343 -18.56115,110.369043 -1.09169,5.9808 -1.70386,7.15625 -4.40897,8.46577 -3.26553,1.58081 -1.45991,2.17915 -36.33954,-12.0419 -11.8352,-4.82543 -21.93952,-8.80131 -22.45403,-8.83529 -1.13836,-0.0752 -2.05758,0.95692 -16.14909,18.13232 -13.567862,16.53715 -14.431637,17.52268 -15.892957,18.13326 -1.667894,0.69689 -4.598223,0.66318 -6.006206,-0.0691 z"
       id="path4544"
       inkscape:connector-curvature="0" />
  </g>
</svg>
