<?xml version="1.0" encoding="UTF-8" standalone="no"?>
<!-- Created with Inkscape (http://www.inkscape.org/) -->

<svg
   xmlns:dc="http://purl.org/dc/elements/1.1/"
   xmlns:cc="http://creativecommons.org/ns#"
   xmlns:rdf="http://www.w3.org/1999/02/22-rdf-syntax-ns#"
   xmlns:svg="http://www.w3.org/2000/svg"
   xmlns="http://www.w3.org/2000/svg"
   xmlns:sodipodi="http://sodipodi.sourceforge.net/DTD/sodipodi-0.dtd"
   xmlns:inkscape="http://www.inkscape.org/namespaces/inkscape"
   width="71.628227mm"
   height="71.628227mm"
   viewBox="0 0 71.628227 71.628227"
   version="1.1"
   id="svg8"
   sodipodi:docname="admin_laurel.svg"
   inkscape:version="0.92.3 (2405546, 2018-03-11)">
  <defs
     id="defs2" />
  <sodipodi:namedview
     id="base"
     pagecolor="#ffffff"
     bordercolor="#666666"
     borderopacity="1.0"
     inkscape:pageopacity="0.0"
     inkscape:pageshadow="2"
     inkscape:zoom="0.98994949"
     inkscape:cx="115.61199"
     inkscape:cy="172.32446"
     inkscape:document-units="mm"
     inkscape:current-layer="layer1"
     showgrid="false"
     fit-margin-top="0"
     fit-margin-left="0"
     fit-margin-right="0"
     fit-margin-bottom="0"
     inkscape:window-width="960"
     inkscape:window-height="1016"
     inkscape:window-x="0"
     inkscape:window-y="27"
     inkscape:window-maximized="0" />
  <metadata
     id="metadata5">
    <rdf:RDF>
      <cc:Work
         rdf:about="">
        <dc:format>image/svg+xml</dc:format>
        <dc:type
           rdf:resource="http://purl.org/dc/dcmitype/StillImage" />
        <dc:title></dc:title>
      </cc:Work>
    </rdf:RDF>
  </metadata>
  <g
     inkscape:label="Layer 1"
     inkscape:groupmode="layer"
     id="layer1"
     transform="translate(-2.9399655,-77.304451)">
    <rect
       style="opacity:1;fill:#ffffff;fill-opacity:1;stroke:none;stroke-width:1.00541663;stroke-linejoin:round;stroke-miterlimit:0;stroke-dasharray:none;stroke-dashoffset:0;stroke-opacity:1"
       id="rect828"
       width="71.628227"
       height="71.628227"
       x="2.9399655"
       y="77.304451"
       rx="0"
       ry="0" />
    <path
       style="fill:#000000;stroke-width:1"
       d="m 41.535713,139.69828 c -0.953793,-1.15612 -1.894086,-2.29022 -2.089548,-2.52021 -0.195453,-0.23 -0.291249,-0.4823 -0.212868,-0.56068 0.162639,-0.16264 5.410828,3.41391 5.410828,3.68739 0,0.0984 -0.309204,0.47517 -0.687123,0.83723 l -0.687114,0.6583 z m -8.039719,1.10229 c -0.303362,-0.38412 -0.500894,-0.78003 -0.438956,-0.8798 0.23354,-0.37618 4.902975,-3.44096 5.120488,-3.36082 0.236916,0.0873 -3.677514,4.97532 -3.965797,4.95219 -0.09029,-0.007 -0.412371,-0.32746 -0.715735,-0.71157 z m 12.338758,-2.15311 c -2.067903,-0.39811 -5.000625,-1.78792 -5.000625,-2.36978 0,-0.71823 3.900384,-0.98997 6.422455,-0.44745 2.227761,0.47921 4.531292,1.69503 4.531292,2.39165 0,0.59372 -3.704264,0.85853 -5.953122,0.42558 z m -19.228596,-0.23114 c -0.917293,-0.28254 -0.952122,-0.45056 -0.233362,-1.12581 1.043771,-0.98056 3.656695,-1.77168 6.271514,-1.89883 2.354664,-0.11448 4.141692,0.1754 4.141692,0.67185 0,0.37494 -1.725501,1.36098 -3.33375,1.90507 -1.748978,0.5917 -5.567818,0.84144 -6.846094,0.44772 z m 22.44328,-2.68716 c -1.626256,-0.42008 -2.976562,-1.09628 -2.976562,-1.4906 0,-1.04188 5.087655,-1.65702 7.850593,-0.94918 1.658727,0.42494 2.885688,1.03509 3.045483,1.51447 0.310167,0.93048 -5.34258,1.59095 -7.919514,0.92531 z m -27.146249,-0.34599 c -0.703627,-0.24011 -1.190624,-0.5493 -1.190624,-0.75591 0,-0.55603 1.746898,-1.38671 3.558952,-1.69235 2.913088,-0.49136 7.275735,0.16168 7.275735,1.08909 0,0.39828 -1.690971,1.17962 -3.285939,1.51834 -1.860967,0.3952 -4.960999,0.31759 -6.358124,-0.15917 z m 18.454687,-0.62581 c 0,-0.74772 0.68085,-1.71858 2.205252,-3.14459 2.230867,-2.08686 5.423562,-3.74416 6.45238,-3.34936 0.375434,0.14406 0.369755,0.22587 -0.07623,1.10012 -1.167821,2.28914 -5.157395,5.24576 -7.607025,5.63747 -0.815066,0.13033 -0.974348,0.0905 -0.974348,-0.24364 z m -5.834061,-0.58078 c -2.781925,-1.3257 -5.849488,-4.1528 -6.10789,-5.62908 -0.07258,-0.41467 0.03396,-0.46926 0.823925,-0.42218 1.902907,0.1134 5.715728,2.66718 7.349584,4.92265 1.368763,1.88952 0.512669,2.35727 -2.065619,1.12861 z m -14.763751,-2.1826 c -2.53451,-0.34287 -5.357812,-1.53699 -5.357812,-2.2661 0,-1.042 5.637541,-1.07205 8.407469,-0.0448 1.532181,0.56821 2.546281,1.21393 2.546281,1.62132 0,0.55898 -3.433592,0.98212 -5.595938,0.6896 z m 33.261794,-0.0261 c -0.937008,-0.26998 -0.888705,-0.60667 0.192078,-1.33895 1.267956,-0.85908 3.034881,-1.30207 5.689899,-1.42654 2.775753,-0.13012 4.393699,0.18455 4.269274,0.83031 -0.09389,0.48732 -1.848976,1.37048 -3.662017,1.84271 -1.540665,0.4013 -5.234724,0.45394 -6.489234,0.0925 z m -2.900854,-1.40222 c 0,-0.52715 0.214785,-1.57192 0.477306,-2.32172 0.907209,-2.59116 3.876796,-6.24483 5.075596,-6.24483 0.418509,0 0.452358,0.11989 0.328671,1.1642 -0.175698,1.4835 -1.33209,4.03982 -2.567988,5.67674 -0.888048,1.17621 -2.635849,2.68406 -3.111193,2.68406 -0.111312,0 -0.202392,-0.4313 -0.202392,-0.95845 z m -23.702791,0.2772 c -1.935582,-1.18036 -4.507443,-5.3829 -4.792847,-7.83172 -0.126601,-1.08627 -0.09122,-1.25016 0.269919,-1.25016 1.083485,0 3.311379,2.50024 4.672606,5.24381 0.731071,1.47348 1.246661,4.28224 0.785715,4.2803 -0.116416,-4.7e-4 -0.537344,-0.19949 -0.935393,-0.44223 z m 28.941539,-2.54642 c 0,-0.23997 0.594954,-1.01258 1.322118,-1.71689 1.54233,-1.49386 4.581801,-3.05968 6.540181,-3.36927 2.298231,-0.3633 2.488563,0.15228 0.699525,1.89485 -1.65562,1.61263 -5.107714,3.31442 -7.087471,3.49393 -1.319265,0.11963 -1.474353,0.0878 -1.474353,-0.30262 z m -36.715824,-0.44007 c -2.698956,-0.95264 -6.146676,-3.53195 -6.146676,-4.59845 0,-0.31081 0.250065,-0.35145 1.530417,-0.24867 2.117091,0.16994 5.144616,1.64866 6.915726,3.37782 0.72434,0.70717 1.316982,1.45579 1.316982,1.66359 0,0.56942 -1.7136,0.47735 -3.616449,-0.19429 z m -0.0986,-4.33044 c -0.95686,-2.29008 -0.992151,-5.35252 -0.09515,-8.25668 0.479252,-1.55163 0.970012,-2.24535 1.400313,-1.9794 0.953822,0.58949 1.335489,5.64856 0.62781,8.32175 -0.326355,1.23276 -1.136842,2.76876 -1.460975,2.76876 -0.06325,0 -0.275648,-0.38449 -0.472,-0.85443 z m 39.348549,0.33343 c -1.042893,-1.62322 -1.497105,-6.28491 -0.859212,-8.81821 0.551988,-2.19212 1.360521,-2.0468 2.106045,0.37852 0.624861,2.0328 0.807381,4.04034 0.537318,5.90988 -0.375957,2.60262 -1.08837,3.61277 -1.784151,2.52981 z m 1.990251,-1.66341 c 0,-1.29326 3.213826,-4.50624 5.806528,-5.80502 3.829455,-1.9183 3.991455,-0.21438 0.300006,3.15553 -2.087811,1.90594 -6.106534,3.64958 -6.106534,2.64949 z m -44.886559,-0.64 c -2.62013,-1.2486 -4.916724,-3.26771 -5.9170537,-5.20214 -0.5222025,-1.00982 -0.5172408,-1.02225 0.4081842,-1.02225 1.1389705,0 3.8366305,1.42512 5.4891835,2.89983 1.37947,1.23101 2.758123,3.07808 2.758123,3.69522 0,0.51846 -1.218887,0.35347 -2.738437,-0.37066 z m 46.791562,-5.05925 c 0,-0.40693 0.330606,-1.43259 0.734679,-2.27925 1.235869,-2.58954 4.979014,-6.11709 6.053443,-5.7048 0.86292,0.33113 -1.017648,4.12329 -3.097188,6.24544 -1.180971,1.20517 -3.011128,2.47847 -3.562387,2.47847 -0.07074,0 -0.128547,-0.33294 -0.128547,-0.73986 z M 14.40225,116.38437 c -2.13988,-1.21483 -4.4051303,-3.9816 -5.2665887,-6.43261 -0.5551506,-1.5795 -0.5571144,-1.76395 -0.018783,-1.76395 1.3516267,0 4.7279777,3.28683 5.9718677,5.81353 0.684337,1.39009 0.987596,3.00104 0.563659,2.99423 -0.09823,-0.002 -0.660797,-0.27663 -1.250157,-0.6112 z m 45.473925,-2.86923 c -1.733427,-1.62142 -3.343068,-4.9181 -3.504771,-7.17807 -0.07893,-1.10329 -0.02763,-1.7125 0.153603,-1.82452 0.432972,-0.26759 2.680767,2.22206 3.544038,3.92535 1.238274,2.4432 1.899243,5.65516 1.246734,6.05843 -0.129375,0.0799 -0.777195,-0.36157 -1.439604,-0.98119 z m -43.656678,0.69679 c -0.52208,-0.52208 0.148554,-3.64615 1.273038,-5.9303 0.826776,-1.67942 2.789906,-3.90382 3.445293,-3.90382 0.398076,0 0.426108,0.15522 0.299899,1.66064 -0.103813,1.23828 -0.378428,2.17108 -1.07975,3.66767 -1.154439,2.46351 -3.405482,5.03881 -3.93848,4.50581 z m -1.860181,-3.19348 c -1.702496,-1.24018 -3.489278,-5.05192 -3.698869,-7.89079 -0.123118,-1.66761 -0.09502,-1.84548 0.291543,-1.84548 0.667563,0 2.215289,1.85229 3.122136,3.73651 1.240173,2.5768 1.802717,5.91397 1.072941,6.36499 -0.0852,0.0526 -0.439696,-0.11169 -0.787751,-0.36523 z m 47.809015,-0.0893 c -0.423342,-1.68673 1.370014,-6.4821 3.141943,-8.40144 1.316799,-1.42637 1.717596,-1.35175 1.717596,0.31978 0,2.42785 -1.749879,6.47962 -3.498183,8.0999 -0.789579,0.73176 -1.174408,0.7266 -1.361356,-0.0183 z m -1.315107,-5.04836 c -0.33066,-1.19073 -0.324126,-4.4118 0.01233,-6.087207 0.29889,-1.488302 1.358874,-3.777524 1.819906,-3.930434 0.172737,-0.05733 0.462321,0.286146 0.679437,0.805761 0.47871,1.145718 0.342666,5.33882 -0.23148,7.13458 -0.415647,1.30002 -1.285648,2.74143 -1.745764,2.89238 -0.160209,0.0526 -0.391446,-0.3001 -0.534447,-0.81508 z m -45.571855,-0.50881 c -0.87214,-1.60241 -1.362148,-3.65577 -1.378331,-5.775847 -0.01686,-2.208958 0.197344,-3.441526 0.66564,-3.830182 0.470624,-0.390582 0.999219,0.302949 1.730088,2.269917 0.966677,2.601592 0.90988,8.485032 -0.08191,8.485032 -0.170591,0 -0.591558,-0.51701 -0.935485,-1.14892 z m 2.560897,-0.53866 c -0.272435,-0.44081 1.032409,-2.75354 2.36662,-4.19465 2.03296,-2.195849 5.092126,-4.031147 5.702273,-3.421001 0.382305,0.382311 -0.974593,2.796061 -2.463968,4.383121 -1.909646,2.03488 -5.179583,3.92075 -5.604925,3.23253 z m 39.422487,-0.49504 c -1.876581,-1.07376 -4.399983,-3.67937 -5.150115,-5.317884 -0.715419,-1.562688 -0.5751,-1.882314 0.674847,-1.537182 2.360997,0.651897 6.173397,4.525696 6.961068,7.073156 0.14481,0.46832 0.08118,0.5355 -0.505224,0.53355 -0.368991,-9e-4 -1.260252,-0.33946 -1.980576,-0.75164 z m 1.374336,-2.99661 c -0.636975,-0.72455 -1.364094,-2.373704 -1.729017,-3.921564 -0.595359,-2.525211 -0.369153,-6.615468 0.36585,-6.615468 0.393381,0 1.423944,1.610181 1.919592,2.999223 0.622404,1.744263 0.886617,5.799622 0.461718,7.087049 -0.321867,0.97529 -0.491139,1.05023 -1.018143,0.45076 z m -40.695037,-0.47624 c -0.483575,-1.235017 -0.304831,-4.762798 0.344198,-6.793252 0.553335,-1.731078 1.594066,-3.505662 2.055949,-3.505662 0.735009,0 0.961215,4.090257 0.365859,6.615459 -0.499311,2.117831 -1.677786,4.338295 -2.302483,4.338295 -0.113912,0 -0.322497,-0.29468 -0.463523,-0.65484 z m 37.058515,-3.32845 c -2.535525,-1.333278 -5.193991,-4.942926 -5.724982,-7.773327 -0.141579,-0.754676 -0.102986,-0.864017 0.304938,-0.864017 1.046052,0 3.799774,2.585735 5.146057,4.832144 0.885276,1.477161 1.537218,3.647826 1.195326,3.979863 -0.113832,0.110538 -0.528435,0.03195 -0.921339,-0.174663 z M 21.625001,97.334543 c -0.460483,-1.199997 1.601909,-4.905612 3.922532,-7.047828 2.434693,-2.247506 3.200818,-2.154212 2.43911,0.297027 -0.802044,2.581047 -3.173163,5.590737 -5.232042,6.6411 -0.884828,0.451404 -0.994392,0.462042 -1.1296,0.109701 z"
       id="path826"
       inkscape:connector-curvature="0" />
  </g>
</svg>
