<?xml version="1.0" encoding="UTF-8" standalone="no"?>
<!-- Created with Inkscape (http://www.inkscape.org/) -->

<svg
   xmlns:dc="http://purl.org/dc/elements/1.1/"
   xmlns:cc="http://creativecommons.org/ns#"
   xmlns:rdf="http://www.w3.org/1999/02/22-rdf-syntax-ns#"
   xmlns:svg="http://www.w3.org/2000/svg"
   xmlns="http://www.w3.org/2000/svg"
   xmlns:sodipodi="http://sodipodi.sourceforge.net/DTD/sodipodi-0.dtd"
   xmlns:inkscape="http://www.inkscape.org/namespaces/inkscape"
   width="222.24998mm"
   height="222.24998mm"
   viewBox="0 0 222.24998 222.24998"
   version="1.1"
   id="svg8"
   inkscape:version="0.92.3 (2405546, 2018-03-11)"
   sodipodi:docname="compass.svg">
  <defs
     id="defs2" />
  <sodipodi:namedview
     id="base"
     pagecolor="#ffffff"
     bordercolor="#666666"
     borderopacity="1.0"
     inkscape:pageopacity="0.0"
     inkscape:pageshadow="2"
     inkscape:zoom="0.7"
     inkscape:cx="410.49905"
     inkscape:cy="415.42909"
     inkscape:document-units="mm"
     inkscape:current-layer="layer1"
     showgrid="false"
     fit-margin-top="0"
     fit-margin-left="0"
     fit-margin-right="0"
     fit-margin-bottom="0"
     inkscape:window-width="1920"
     inkscape:window-height="1016"
     inkscape:window-x="0"
     inkscape:window-y="27"
     inkscape:window-maximized="1" />
  <metadata
     id="metadata5">
    <rdf:RDF>
      <cc:Work
         rdf:about="">
        <dc:format>image/svg+xml</dc:format>
        <dc:type
           rdf:resource="http://purl.org/dc/dcmitype/StillImage" />
        <dc:title></dc:title>
      </cc:Work>
    </rdf:RDF>
  </metadata>
  <g
     inkscape:label="Layer 1"
     inkscape:groupmode="layer"
     id="layer1"
     transform="translate(33.261906,34.107136)">
    <path
       style="fill:#000000;stroke-width:1;stroke:#000000;stroke-opacity:1;stroke-miterlimit:4;stroke-dasharray:none"
       d="m 69.400538,177.21587 c -4.41513,-0.51088 -9.80239,-1.34864 -12.52361,-1.94753 -37.95732,-8.35367 -67.6436,-38.18124 -76.14766,-76.510088 -1.69258,-7.62864 -2.12401,-11.88135 -2.14731,-21.16667 -0.023,-9.16401 0.32055,-13.15363 1.74723,-20.28988 7.74638,-38.747385 37.50083,-69.469211 75.84218,-78.307927 8.61435,-1.985839 21.638347,-2.82024 30.739027,-1.969333 43.780675,4.09345 79.795665,36.764125 88.494805,80.27726 1.43885,7.19714 1.77084,11.10666 1.73791,20.46627 -0.0254,7.20981 -0.17303,9.74616 -0.80912,13.89704 -3.37877,22.048568 -13.23755,41.581358 -28.77532,57.011308 -15.1614,15.05618 -33.99514,24.50417 -55.580365,27.882 -3.53379,0.55299 -19.47021,1.01712 -22.577767,0.65755 z m 19.931937,-5.63504 c 25.661095,-3.22688 48.241955,-16.44538 63.885265,-37.39749 9.24537,-12.38295 15.25644,-26.71562 17.86452,-42.595818 1.04711,-6.37572 1.13037,-21.89417 0.15079,-28.10705 C 167.17106,37.717762 154.26677,15.940507 133.9553,0.57070746 121.10436,-9.1536735 105.93674,-15.289495 89.332475,-17.480753 c -4.94118,-0.652089 -16.3203,-0.73635 -21.573897,-0.159756 -33.87394,3.717742 -63.4543191,26.0188365 -76.8169991,57.913491 -2.9103009,6.94643 -5.1645609,15.06995 -6.4400709,23.20759 -0.91796,5.85653 -0.90955,21.36186 0.0148,27.34028 3.97026,25.677608 17.3551409,47.950448 38.01973,63.265968 19.00185,14.08317 43.30484,20.44817 66.796407,17.49411 z M 52.980338,159.98124 c -0.47625,-0.47625 -0.86786,-1.07156 -0.87024,-1.32292 -0.002,-0.25135 2.15314,-15.19913 4.79004,-33.2173 l 4.79436,-32.760288 -0.8858,-0.92999 c -2.47377,-2.59718 -4.83113,-8.1879 -5.30703,-12.58615 -0.47455,-4.3857 0.91331,-10.14365 3.37143,-13.98741 2.74187,-4.28746 6.47232,-7.37305 11.051017,-9.1407 l 2.47503,-0.95552 13.26773,-30.460655 c 10.60712,-24.35231954 13.44175,-30.5599675 14.13555,-30.9558765 1.141495,-0.651383 2.587655,-0.270951 3.341075,0.878911 0.51905,0.792169 0.5418,1.230591 0.18738,3.610376 -0.22188,1.48978996 -1.68179,11.51933 -3.24424,22.2878695 -1.562455,10.76854 -3.544215,24.402295 -4.403915,30.297225 l -1.56308,10.71804 1.19563,1.39683 c 1.54124,1.8006 3.48381,5.52085 4.28772,8.21151 0.970785,3.2492 0.898415,9.12459 -0.15426,12.52362 -2.14044,6.9113 -7.34834,12.39916 -14.0576,14.81328 -2.05271,0.7386 -2.22196,0.88746 -2.95424,2.598298 -10.38351,24.25911 -25.623707,58.76346 -26.160977,59.2294 -0.99746,0.86502 -2.27864,0.76839 -3.29558,-0.24855 z m 15.87478,-40.76188 c 4.419627,-10.18646 8.107327,-18.7029 8.194887,-18.92543 0.10121,-0.25721 -0.52413,-0.494338 -1.71666,-0.650948 -2.17095,-0.28511 -6.788897,-1.74309 -7.991887,-2.5232 -0.4534,-0.29402 -0.86616,-0.4822 -0.91725,-0.41819 -0.0511,0.064 -1.39156,9.085758 -2.97881,20.048328 -1.58725,10.96258 -2.97166,20.32883 -3.07647,20.8139 -0.11697,0.54139 -0.0668,0.74572 0.12998,0.52916 0.17629,-0.19403 3.93659,-8.68715 8.35621,-18.87362 z M 81.435015,94.170282 c 6.0795,-1.13462 11.51086,-6.37625 13.20583,-12.7445 3.11777,-11.7139 -7.50661,-23.54868 -19.33129,-21.53363 -11.499577,1.95965 -17.898937,14.19103 -12.912247,24.67977 0.57994,1.21981 1.99107,3.21911 3.13586,4.44289 4.15934,4.44635 9.837527,6.28725 15.901847,5.15547 z m -6.4897,-4.9485 c -4.43931,-1.11465 -7.717967,-4.49541 -8.962897,-9.24203 -1.46432,-5.58302 1.43036,-11.60334 6.861427,-14.27029 1.7447,-0.85675 2.43948,-0.99321 5.02335,-0.98663 2.48208,0.006 3.34013,0.16646 4.98123,0.92963 2.7827,1.29406 4.69907,3.16111 6.03966,5.88425 1.04047,2.11349 1.14995,2.63884 1.14995,5.51829 0,2.70134 -0.14053,3.48212 -0.92963,5.16503 -2.01502,4.29743 -5.92973,7.00432 -10.44431,7.22188 -1.31142,0.0632 -2.98487,-0.0359 -3.71878,-0.22013 z m 5.66243,-5.47342 c 2.97363,-1.24247 4.46207,-3.72696 4.24789,-7.09059 -0.26766,-4.20349 -3.34519,-7.00822 -7.39751,-6.74178 -2.69351,0.1771 -4.49982,1.38968 -5.72118,3.84062 -1.13756,2.28277 -1.19191,4.33381 -0.17234,6.50286 1.60478,3.41402 5.56532,4.94201 9.04314,3.48889 z m 8.90298,-26.52969 c 0.001,-0.14552 1.35198,-9.53664 3.00212,-20.86917 1.65014,-11.332535 2.95715,-20.647705 2.90447,-20.700385 -0.0527,-0.0527 -3.86551,8.57424 -8.47294,19.170955 -6.2064,14.27419 -8.26217,19.33974 -7.93342,19.54845 0.24406,0.15494 0.88737,0.28415 1.42957,0.28712 1.55984,0.009 5.21674,1.0293 6.95167,1.94041 1.73534,0.91134 2.11571,1.02313 2.11853,0.62262 z M 76.103305,159.43604 c -0.65168,-0.65168 -0.70555,-1.17593 -0.70555,-6.86542 0,-5.88249 0.0348,-6.19227 0.77207,-6.87917 0.96915,-0.9029 2.42747,-0.9217 3.51038,-0.0452 0.81778,0.66189 0.83283,0.78545 0.83283,6.84093 0,5.56886 -0.0652,6.23899 -0.67204,6.91066 -0.87666,0.97027 -2.78612,0.9898 -3.73769,0.0382 z M 19.658868,135.79993 c -0.40869,-0.40869 -0.70556,-1.17593 -0.70556,-1.82347 0,-0.95469 0.60678,-1.73041 4.1559,-5.31306 3.53356,-3.56694 4.32613,-4.2 5.29273,-4.22748 1.56366,-0.0445 2.54582,0.92641 2.54582,2.51656 0,1.1564 -0.38238,1.65513 -4.15044,5.41338 -3.58523,3.57589 -4.30585,4.13962 -5.29166,4.13962 -0.67086,0 -1.43204,-0.2908 -1.84679,-0.70555 z m 109.267392,-3.44489 c -3.74054,-3.7503 -4.13962,-4.27219 -4.13962,-5.41337 0,-1.57885 0.98676,-2.55008 2.54582,-2.50575 0.96659,0.0275 1.75917,0.66054 5.29273,4.22748 3.54912,3.58265 4.15589,4.35837 4.15589,5.31306 0,1.46346 -1.07995,2.52902 -2.56315,2.52902 -1.00102,0 -1.69472,-0.54409 -5.29167,-4.15044 z M -3.5629711,78.891862 c -1.08537,-1.15533 -1.01317,-2.81926 0.16247,-3.74402 0.84849,-0.66742 1.40062,-0.73116 6.33341,-0.73116 3.26489,0 5.7501,0.15775 6.27858,0.39854 1.7899091,0.81554 1.9489691,3.61334 0.25691,4.5189 -0.41131,0.22013 -3.08044,0.37423 -6.48178,0.37423 -5.58829,0 -5.8083,-0.0275 -6.54959,-0.81649 z M 145.9533,79.002792 c -1.05045,-1.05045 -0.94074,-2.93879 0.22397,-3.85495 0.84848,-0.66742 1.40061,-0.73116 6.3334,-0.73116 3.26489,0 5.75011,0.15775 6.27858,0.39854 1.78991,0.81554 1.94897,3.61334 0.25691,4.5189 -0.41217,0.22059 -3.09859,0.37423 -6.54328,0.37423 -5.37365,0 -5.90081,-0.0568 -6.54958,-0.70556 z M 27.596368,29.623557 c -0.38806,-0.16051 -2.49149,-2.10897 -4.67431,-4.32991 -3.36382,-3.42257 -3.96875,-4.20763 -3.96875,-5.15057 0,-1.45783 1.08249,-2.52361 2.56316,-2.52361 1.00136,0 1.69634,0.54572 5.31353,4.17236 3.5351,3.54433 4.16638,4.34445 4.19399,5.31569 0.0512,1.8011 -1.82552,3.17871 -3.42762,2.51604 z m 98.765522,0.004 c -1.10579,-0.44315 -1.68503,-1.34037 -1.65045,-2.55645 0.0263,-0.92509 0.71563,-1.79304 4.19296,-5.27945 3.61718,-3.62663 4.31216,-4.17235 5.31353,-4.17235 1.4832,0 2.56315,1.06557 2.56315,2.52902 0,0.95682 -0.59733,1.71507 -4.14514,5.26188 -4.20594,4.20477 -4.99014,4.7319 -6.27405,4.21736 z M 76.103305,8.4472475 c -0.6518,-0.6518 -0.70555,-1.17593 -0.70555,-6.87917 0,-5.70324 0.0538,-6.227365 0.70555,-6.879165 0.95127,-0.951262 2.8609,-0.932 3.73769,0.0377 0.60689,0.671209 0.67204,1.341081 0.67204,6.910625 0,6.056 -0.015,6.17955 -0.83283,6.84147 -1.07988,0.87405 -2.68551,0.85993 -3.5769,-0.0315 z"
       id="path826"
       inkscape:connector-curvature="0"
       sodipodi:nodetypes="cssssssscsscccsssssssscsccscscscsccssscsscssccccssccccsccscsscccccccccsscccssccccssscccccsccsccssccsssscsccsscccsccscccsccsccssssscccsssccccsccsccc" />
  </g>
</svg>
