<?xml version="1.0" encoding="UTF-8" standalone="no"?>
<!-- Created with Inkscape (http://www.inkscape.org/) -->

<svg
   xmlns:dc="http://purl.org/dc/elements/1.1/"
   xmlns:cc="http://creativecommons.org/ns#"
   xmlns:rdf="http://www.w3.org/1999/02/22-rdf-syntax-ns#"
   xmlns:svg="http://www.w3.org/2000/svg"
   xmlns="http://www.w3.org/2000/svg"
   xmlns:sodipodi="http://sodipodi.sourceforge.net/DTD/sodipodi-0.dtd"
   xmlns:inkscape="http://www.inkscape.org/namespaces/inkscape"
   width="55.751484mm"
   height="55.751484mm"
   viewBox="0 0 55.751483 55.751482"
   version="1.1"
   id="svg8"
   inkscape:version="0.92.3 (2405546, 2018-03-11)"
   sodipodi:docname="person.svg">
  <defs
     id="defs2">
    <filter
       style="color-interpolation-filters:sRGB"
       inkscape:label="Invert"
       id="filter832">
      <feColorMatrix
         values="1 0 0 0 0 0 1 0 0 0 0 0 1 0 0 -0.21 -0.72 -0.07 2 0 "
         result="fbSourceGraphic"
         id="feColorMatrix830" />
      <feColorMatrix
         result="fbSourceGraphicAlpha"
         in="fbSourceGraphic"
         values="0 0 0 -1 0 0 0 0 -1 0 0 0 0 -1 0 0 0 0 1 0"
         id="feColorMatrix834" />
      <feColorMatrix
         id="feColorMatrix836"
         values="1 0 0 0 0 0 1 0 0 0 0 0 1 0 0 -0.21 -0.72 -0.07 2 0 "
         result="fbSourceGraphic"
         in="fbSourceGraphic" />
      <feColorMatrix
         result="fbSourceGraphicAlpha"
         in="fbSourceGraphic"
         values="0 0 0 -1 0 0 0 0 -1 0 0 0 0 -1 0 0 0 0 1 0"
         id="feColorMatrix838" />
      <feColorMatrix
         id="feColorMatrix840"
         values="0 0 1 0 0 0 1 0 0 0 1 0 0 0 0 -0.21 -0.72 -0.07 2 0 "
         result="fbSourceGraphic"
         in="fbSourceGraphic" />
      <feColorMatrix
         result="fbSourceGraphicAlpha"
         in="fbSourceGraphic"
         values="0 0 0 -1 0 0 0 0 -1 0 0 0 0 -1 0 0 0 0 1 0"
         id="feColorMatrix842" />
      <feColorMatrix
         id="feColorMatrix844"
         values="0 0 1 0 0 0 1 0 0 0 1 0 0 0 0 -0.21 -0.72 -0.07 2 0 "
         result="color2"
         in="fbSourceGraphic" />
    </filter>
    <clipPath
       clipPathUnits="userSpaceOnUse"
       id="clipPath841">
      <circle
         style="opacity:1;fill:#ffff00;fill-opacity:1;stroke:none;stroke-width:1;stroke-linejoin:round;stroke-miterlimit:4;stroke-dasharray:none;stroke-dashoffset:0;stroke-opacity:1"
         id="circle843"
         cx="128.95216"
         cy="171.03062"
         r="26.79377" />
    </clipPath>
    <clipPath
       clipPathUnits="userSpaceOnUse"
       id="clipPath829">
      <path
         style="opacity:1;fill:#ff00ff;fill-opacity:1;stroke:none;stroke-width:0.63134533;stroke-linejoin:round;stroke-miterlimit:4;stroke-dasharray:none;stroke-dashoffset:0;stroke-opacity:1"
         d="m 30.074846,155.4531 c -2.887125,-0.1736 -5.996653,-0.90167 -8.624968,-2.01946 -2.527156,-1.07478 -5.203427,-2.73303 -7.107955,-4.40418 -0.910354,-0.7988 -2.758548,-2.69749 -3.386738,-3.47927 l -0.52469,-0.65298 0.221182,-0.4161 c 2.468829,-4.64452 5.874381,-8.31749 9.957489,-10.73939 0.464673,-0.27562 1.360141,-0.756 1.98993,-1.06751 0.629788,-0.31151 1.14507,-0.58512 1.14507,-0.60804 0,-0.0229 -0.29601,-0.26964 -0.6578,-0.54827 -2.936094,-2.26123 -4.8573,-5.42978 -5.498443,-9.06832 -0.175075,-0.99357 -0.237418,-2.85406 -0.130027,-3.88043 0.357775,-3.41937 1.84847,-6.4821 4.324259,-8.88447 1.734119,-1.68269 3.61113,-2.77827 6.000931,-3.50265 1.433896,-0.43464 1.717892,-0.46765 4.012574,-0.46642 2.434066,0.001 2.746597,0.0438 4.443354,0.60361 3.224768,1.06401 5.755185,2.98529 7.610062,5.77811 2.024158,3.04771 2.802557,6.79765 2.174735,10.4768 -0.370385,2.17053 -1.468861,4.61491 -2.84122,6.32241 -0.619863,0.77123 -2.148134,2.28932 -2.750783,2.73243 -0.284811,0.20942 -0.517837,0.40949 -0.517837,0.44461 0,0.0351 0.566912,0.34761 1.259808,0.69442 1.473811,0.73768 2.175359,1.14071 3.183292,1.82877 3.303963,2.25542 6.472904,5.84886 8.438118,9.56846 l 0.405977,0.7684 -0.640805,0.76118 c -0.780262,0.92684 -2.551425,2.704 -3.551203,3.56322 -3.318338,2.85182 -8.105148,5.09459 -12.50287,5.85798 -2.018395,0.35037 -4.258167,0.46776 -6.431442,0.33709 z"
         id="path831"
         inkscape:connector-curvature="0" />
    </clipPath>
  </defs>
  <sodipodi:namedview
     id="base"
     pagecolor="#ffffff"
     bordercolor="#666666"
     borderopacity="1.0"
     inkscape:pageopacity="0.0"
     inkscape:pageshadow="2"
     inkscape:zoom="1.979899"
     inkscape:cx="58.947845"
     inkscape:cy="83.764454"
     inkscape:document-units="mm"
     inkscape:current-layer="layer1"
     showgrid="false"
     inkscape:window-width="1920"
     inkscape:window-height="1016"
     inkscape:window-x="0"
     inkscape:window-y="27"
     inkscape:window-maximized="1"
     fit-margin-top="0"
     fit-margin-left="0"
     fit-margin-right="0"
     fit-margin-bottom="0" />
  <metadata
     id="metadata5">
    <rdf:RDF>
      <cc:Work
         rdf:about="">
        <dc:format>image/svg+xml</dc:format>
        <dc:type
           rdf:resource="http://purl.org/dc/dcmitype/StillImage" />
        <dc:title></dc:title>
      </cc:Work>
    </rdf:RDF>
  </metadata>
  <g
     inkscape:label="Layer 1"
     inkscape:groupmode="layer"
     id="layer1"
     transform="translate(-3.9400883,-98.648375)">
    <circle
       style="opacity:1;fill:#ffffff;fill-opacity:1;stroke:none;stroke-width:2.5;stroke-linejoin:round;stroke-miterlimit:4;stroke-dasharray:none;stroke-dashoffset:0;stroke-opacity:1"
       id="path827"
       cx="31.81583"
       cy="126.52412"
       r="27.875742"
       clip-path="url(#clipPath829)" />
  </g>
</svg>
