<?xml version="1.0" encoding="UTF-8" standalone="no"?>
<!-- Created with Inkscape (http://www.inkscape.org/) -->

<svg
   xmlns:dc="http://purl.org/dc/elements/1.1/"
   xmlns:cc="http://creativecommons.org/ns#"
   xmlns:rdf="http://www.w3.org/1999/02/22-rdf-syntax-ns#"
   xmlns:svg="http://www.w3.org/2000/svg"
   xmlns="http://www.w3.org/2000/svg"
   xmlns:sodipodi="http://sodipodi.sourceforge.net/DTD/sodipodi-0.dtd"
   xmlns:inkscape="http://www.inkscape.org/namespaces/inkscape"
   width="617.85712mm"
   height="617.85712mm"
   viewBox="0 0 617.85712 617.85712"
   version="1.1"
   id="svg8"
   inkscape:version="0.92.3 (2405546, 2018-03-11)"
   sodipodi:docname="settings.svg">
  <defs
     id="defs2" />
  <sodipodi:namedview
     id="base"
     pagecolor="#ffffff"
     bordercolor="#666666"
     borderopacity="1.0"
     inkscape:pageopacity="0.0"
     inkscape:pageshadow="2"
     inkscape:zoom="0.175"
     inkscape:cx="2698.648"
     inkscape:cy="1143.1214"
     inkscape:document-units="mm"
     inkscape:current-layer="layer1"
     showgrid="false"
     inkscape:window-width="1920"
     inkscape:window-height="1016"
     inkscape:window-x="0"
     inkscape:window-y="27"
     inkscape:window-maximized="1"
     fit-margin-top="0"
     fit-margin-left="0"
     fit-margin-right="0"
     fit-margin-bottom="0" />
  <metadata
     id="metadata5">
    <rdf:RDF>
      <cc:Work
         rdf:about="">
        <dc:format>image/svg+xml</dc:format>
        <dc:type
           rdf:resource="http://purl.org/dc/dcmitype/StillImage" />
        <dc:title></dc:title>
      </cc:Work>
    </rdf:RDF>
  </metadata>
  <g
     inkscape:label="Layer 1"
     inkscape:groupmode="layer"
     id="layer1"
     transform="translate(475.2381,-290.45236)">
    <path
       style="fill:#000000;stroke-width:1"
       d="m -244.62334,813.09646 c -19.00104,-7.74421 -35.83318,-14.83993 -37.40468,-15.76825 -1.57152,-0.92832 -3.76192,-3.39311 -4.86761,-5.47729 l -2.01029,-3.78946 1.53372,-23.34003 1.53375,-23.34003 -6.39609,-6.3961 -6.39609,-6.39608 -23.05895,1.57431 c -22.59866,1.54288 -23.13912,1.53885 -27.07516,-0.20244 -2.20893,-0.9771 -4.66305,-2.76378 -5.45367,-3.97037 -3.18837,-4.86609 -30.87251,-73.70213 -30.87251,-76.76387 0,-5.97948 2.44062,-8.89635 20.29119,-24.25071 l 17.37607,-14.94622 v -7.50025 -7.50021 l -17.52003,-14.98488 c -9.63599,-8.24165 -18.11114,-16.12795 -18.83362,-17.52506 -2.8291,-5.47083 -1.92431,-8.66431 12.55017,-44.2965 7.62504,-18.7709 14.7157,-35.65491 15.75694,-37.52002 1.11877,-2.00404 3.47955,-4.23274 5.77149,-5.4486 l 3.87828,-2.05745 23.29767,1.55309 23.29767,1.55309 6.38943,-6.38941 6.38945,-6.38946 -1.57431,-23.05894 c -1.54288,-22.59867 -1.53885,-23.13914 0.20243,-27.07516 0.97711,-2.20895 2.824,-4.70255 4.1042,-5.54136 4.9495,-3.24302 73.50092,-30.78482 76.62335,-30.78482 5.98684,0 8.89931,2.43628 24.25742,20.29118 l 14.94622,17.37606 h 7.50024 7.50021 l 14.98487,-17.52002 c 8.24165,-9.636 16.12795,-18.11113 17.52507,-18.83362 5.4727,-2.83006 8.66212,-1.92567 44.289002,12.5584 18.766754,7.62959 35.212419,14.43621 36.54589,15.12577 3.08618,1.5959 7.070377,6.30776 7.803451,9.22852 0.311115,1.2402 -0.111412,12.4613 -0.939435,24.93579 l -1.50538,22.68089 6.400875,6.40085 6.40085,6.40087 23.0589441,-1.5743 c 22.5986639,-1.54289 23.1391319,-1.53885 27.0751569,0.20209 2.208944,0.9771 4.663102,2.76378 5.453668,3.97037 3.188379,4.86609 30.872507,73.70213 30.872507,76.76387 0,5.97948 -2.440616,8.89635 -20.291175,24.25071 l -17.376076,14.94622 v 7.50025 7.50021 l 17.520036,14.98487 c 9.635995,8.24166 18.111125,16.12796 18.833614,17.52507 2.829061,5.47082 1.924271,8.6643 -12.550124,44.2965 -7.625085,18.77089 -14.715734,35.65491 -15.756978,37.52002 -1.118771,2.00404 -3.479554,4.23274 -5.771489,5.4486 l -3.878285,2.05745 -23.2976759,-1.55309 -23.2976641,-1.5531 -6.389425,6.38942 -6.389449,6.38946 1.574308,23.05895 c 1.542883,22.59866 1.53885,23.13913 -0.202435,27.07515 -0.977116,2.20895 -2.775526,4.67077 -3.996485,5.4708 -4.947452,3.24167 -73.585686,30.85538 -76.695976,30.85538 -6.02529,0 -8.91501,-2.41375 -24.29248,-20.29118 l -14.94623,-17.37607 h -7.50025 -7.50021 l -14.98486,17.52003 c -8.24166,9.636 -16.12796,18.11113 -17.52508,18.83361 -5.5211,2.85507 -8.83926,1.90925 -44.98797,-12.82385 z m 48.18902,-34.17695 c 7.50289,-8.82313 14.89955,-16.69256 16.43709,-17.48764 2.28783,-1.18309 6.02952,-1.42364 20.60358,-1.32461 11.25012,0.0764 18.66551,0.51168 20.13645,1.18187 1.77126,0.80703 26.93932,28.66918 29.85144,33.04682 0.40546,0.60952 47.007219,-17.69865 48.476619,-19.04476 0.173269,-0.15868 -0.36876,-9.94097 -1.204708,-21.73815 -1.053567,-14.86893 -1.237599,-22.19185 -0.59984,-23.86935 0.963172,-2.53332 26.139222,-28.34693 29.292948,-30.03474 2.735409,-1.46393 7.179329,-1.48427 27.5767251,-0.12605 11.315233,0.75339 18.9361429,0.90874 19.4068549,0.39553 1.056205,-1.15138 19.727892,-47.21997 19.279204,-47.56741 -8.057902,-6.23956 -32.50288893,-28.195 -33.46628593,-30.05796 -1.74094197,-3.36658 -1.95139497,-37.09644 -0.254864,-40.82025 0.765338,-1.67972 30.09394493,-28.15636 33.60086693,-30.33345 0.237857,-0.14757 -19.028609,-47.47331 -19.568143,-48.06711 -0.15729,-0.17327 -9.9385939,0.36875 -21.7357859,1.20471 -15.7896091,1.11882 -22.1371191,1.25844 -24.0555051,0.52904 -2.827874,-1.07513 -28.03562,-25.83464 -29.956466,-29.42372 -0.914574,-1.70889 -1.000274,-5.57711 -0.385874,-17.41343 0.434449,-8.36912 0.800465,-18.47194 0.813381,-22.45074 l 0.02436,-7.23417 -23.682817,-9.65953 c -13.025539,-5.31273 -23.80708,-9.49894 -23.959,-9.30268 -6.53432,8.44322 -28.24962,32.53083 -30.26786,33.5745 -2.2745,1.17622 -6.10407,1.44701 -20.16662,1.42615 -11.45997,-0.0174 -18.27346,-0.40452 -20.05,-1.14041 -2.06334,-0.85464 -26.90119,-28.07661 -30.33075,-33.24207 -0.41597,-0.62658 -46.99316,17.69406 -48.46284,19.06236 -0.17327,0.16146 0.36874,9.94568 1.2047,21.74288 1.12743,15.91114 1.26142,22.12924 0.51891,24.08223 -1.41094,3.711 -27.78945,29.72213 -30.94518,30.51417 -1.39138,0.34921 -11.98348,0.10136 -23.53795,-0.55047 -12.09439,-0.68245 -21.32204,-0.84193 -21.74787,-0.37584 -1.0342,1.1319 -19.68228,47.19251 -19.2438,47.53203 8.36523,6.47755 32.52383,28.23549 33.54638,30.21287 1.83859,3.55546 2.10012,35.96151 0.32467,40.24751 -0.66595,1.60781 -7.68463,8.35777 -17.31676,16.65376 -8.9083,7.67257 -16.30373,14.01648 -16.43429,14.09753 -0.23784,0.14757 19.02861,47.47331 19.56814,48.06711 0.15729,0.17326 9.93861,-0.36877 21.73579,-1.20472 15.68993,-1.11176 22.14345,-1.25601 24.03398,-0.53723 3.67842,1.39853 29.79616,27.91176 30.58499,31.04813 0.35046,1.3935 0.10904,11.96438 -0.53671,23.49082 -0.64568,11.52646 -0.89207,21.24186 -0.54752,21.58979 0.80592,0.8138 45.66209,19.31185 46.88066,19.33293 0.5053,0.0106 7.05743,-7.20306 14.56032,-16.02616 z m 15.75725,-52.31339 c -25.69209,-4.72553 -48.06825,-16.72015 -67.56705,-36.21899 -25.12855,-25.12852 -37.62568,-54.43628 -37.62568,-88.23809 0,-33.79122 12.51463,-63.15783 37.60991,-88.25446 19.87409,-19.87513 42.67855,-31.88123 68.87574,-36.26173 13.70067,-2.29091 34.62286,-1.49545 47.82452,1.81831 46.356383,11.63594 82.942142,48.72893 94.741653,96.05516 1.916126,7.68532 2.176064,10.86758 2.176064,26.64272 0,15.77513 -0.26008,18.95739 -2.176064,26.64271 -4.783551,19.18622 -12.355638,34.70748 -24.395336,50.00566 -18.063899,22.95274 -42.703947,39.0869 -70.346317,46.06231 -8.13359,2.05247 -12.08667,2.47748 -25.69026,2.76197 -11.49293,0.24029 -18.17327,-0.0493 -23.42718,-1.01557 z m 46.39502,-30.63473 c 30.15106,-8.24561 53.123862,-28.40522 64.206514,-56.34394 8.06721,-20.3369 8.808125,-48.36274 1.844323,-69.75908 -10.04757,-30.87104 -35.064447,-53.71367 -67.888237,-61.98799 -9.91336,-2.49899 -37.85979,-2.49899 -47.77314,0 -18.52096,4.66882 -33.52795,13.13705 -46.06877,25.99593 -19.58821,20.08498 -28.61964,46.67881 -26.33222,77.5377 3.25427,43.90312 34.6186,78.28144 78.75794,86.32638 2.31453,0.42189 11.44315,0.6204 20.28575,0.44119 12.59791,-0.25521 17.56876,-0.73365 22.96784,-2.21019 z"
       id="path860"
       inkscape:connector-curvature="0" />
  </g>
</svg>
