<?xml version="1.0" encoding="UTF-8" standalone="no"?>
<!-- Created with Inkscape (http://www.inkscape.org/) -->

<svg
   xmlns:dc="http://purl.org/dc/elements/1.1/"
   xmlns:cc="http://creativecommons.org/ns#"
   xmlns:rdf="http://www.w3.org/1999/02/22-rdf-syntax-ns#"
   xmlns:svg="http://www.w3.org/2000/svg"
   xmlns="http://www.w3.org/2000/svg"
   xmlns:sodipodi="http://sodipodi.sourceforge.net/DTD/sodipodi-0.dtd"
   xmlns:inkscape="http://www.inkscape.org/namespaces/inkscape"
   width="64.066963mm"
   height="64.066963mm"
   viewBox="0 0 64.066963 64.066963"
   version="1.1"
   id="svg8"
   inkscape:version="0.92.3 (2405546, 2018-03-11)"
   sodipodi:docname="bell_white.svg">
  <defs
     id="defs2" />
  <sodipodi:namedview
     id="base"
     pagecolor="#ffffff"
     bordercolor="#666666"
     borderopacity="1.0"
     inkscape:pageopacity="0.0"
     inkscape:pageshadow="2"
     inkscape:zoom="1.4"
     inkscape:cx="142.3202"
     inkscape:cy="115.25289"
     inkscape:document-units="mm"
     inkscape:current-layer="layer1"
     showgrid="false"
     fit-margin-top="0"
     fit-margin-left="0"
     fit-margin-right="0"
     fit-margin-bottom="0"
     inkscape:window-width="1029"
     inkscape:window-height="1016"
     inkscape:window-x="0"
     inkscape:window-y="27"
     inkscape:window-maximized="0" />
  <metadata
     id="metadata5">
    <rdf:RDF>
      <cc:Work
         rdf:about="">
        <dc:format>image/svg+xml</dc:format>
        <dc:type
           rdf:resource="http://purl.org/dc/dcmitype/StillImage" />
        <dc:title />
      </cc:Work>
    </rdf:RDF>
  </metadata>
  <g
     inkscape:label="Layer 1"
     inkscape:groupmode="layer"
     id="layer1"
     transform="translate(23.546359,16.180576)">
    <path
       style="opacity:1;fill:#ffffff;fill-opacity:1;stroke:none;stroke-width:3.35020661;stroke-linejoin:round;stroke-miterlimit:4;stroke-dasharray:none;stroke-dashoffset:0;stroke-opacity:1"
       d="m 18.252887,108.57393 -1.624271,-1.36673 0.299059,-7.0933 c 0.886601,-21.029025 10.808989,-45.544356 25.625218,-63.312442 3.44186,-4.127586 5.549596,-5.648008 7.833609,-5.650799 2.121458,-0.0026 3.226625,0.941241 3.548194,3.030226 0.312762,2.031771 -0.09026,2.68422 -5.671525,9.18165 -5.073575,5.906401 -9.893129,13.282807 -13.305088,20.363655 -5.688685,11.805743 -8.193267,21.459251 -9.614753,37.05853 -0.287873,3.15909 -0.780954,6.22743 -1.095736,6.81853 -1.40836,2.64463 -3.586233,2.99728 -5.994707,0.97068 z"
       id="path830"
       inkscape:connector-curvature="0"
       transform="matrix(0.26458333,0,0,0.26458333,-23.546359,-16.180576)" />
    <path
       style="opacity:1;fill:#ffffff;fill-opacity:1;stroke:none;stroke-width:3.35020661;stroke-linejoin:round;stroke-miterlimit:4;stroke-dasharray:none;stroke-dashoffset:0;stroke-opacity:1"
       d="m 116.52176,225.0895 c -4.69034,-0.71905 -12.25962,-4.88335 -15.60306,-8.58414 -3.488717,-3.86159 -6.165844,-10.40157 -7.38877,-18.05008 l -0.585484,-3.6618 h -29.17051 c -32.257641,0 -30.012227,0.22871 -31.311759,-3.18932 -0.99754,-2.62373 -0.312434,-3.32821 13.181299,-13.55412 9.006077,-6.82505 12.060907,-9.93858 14.190305,-14.46299 2.391642,-5.08161 2.776204,-9.69595 3.081842,-36.97886 0.150931,-13.47291 0.520275,-26.42812 0.820765,-28.789352 1.591346,-12.504688 7.415776,-24.021347 16.93575,-33.487098 4.756389,-4.729294 8.314838,-7.302915 15.074112,-10.902231 l 5.78098,-3.078377 0.18358,-9.474912 c 0.16393,-8.460941 0.30265,-9.73518 1.29625,-11.906958 1.54152,-3.369426 6.93129,-8.628842 10.57579,-10.320023 3.77833,-1.753278 9.49125,-2.147719 13.21121,-0.912148 3.4303,1.139365 7.68599,4.292795 9.94337,7.367949 3.07203,4.184952 3.77545,7.337453 3.77545,16.92038 v 8.261268 l 5.42957,2.884621 c 7.13033,3.788196 11.13791,6.774704 16.35969,12.191472 9.29312,9.640136 14.53888,20.217493 16.09636,32.456057 0.30049,2.361232 0.66984,15.316442 0.82077,28.789352 0.30564,27.28291 0.6902,31.89725 3.08184,36.97886 2.16207,4.59382 5.13281,7.57996 15.18388,15.26261 4.91719,3.75851 9.66811,7.46291 10.5576,8.23201 2.22043,1.91988 2.51235,3.52007 1.04059,5.70415 l -1.18271,1.75512 -29.35569,0.13032 -29.3557,0.13032 -0.58481,3.65776 c -1.27951,8.00299 -3.85943,14.02475 -7.96507,18.5912 -4.77943,5.31588 -16.46733,9.21175 -24.11744,8.03896 z m 12.72883,-10.04695 c 3.11517,-1.37495 7.35256,-5.63767 8.75437,-8.80669 0.53414,-1.2075 1.32087,-3.76462 1.7483,-5.6825 0.42743,-1.91787 0.89118,-3.99842 1.03055,-4.62346 l 0.25339,-1.13642 -16.29833,0.003 c -9.55843,0.002 -17.06815,0.21663 -18.1599,0.51985 -1.02387,0.28437 -2.46819,1.23796 -3.2096,2.11908 -1.0913,1.29693 -1.29989,1.96098 -1.09526,3.48667 0.71228,5.31042 5.50342,11.65103 10.71212,14.17646 2.8644,1.3888 3.32105,1.4593 8.33375,1.28656 4.15047,-0.14302 5.87443,-0.43482 7.93061,-1.34236 z m 60.25469,-29.08498 c 0,-0.13728 -1.96178,-2.35331 -4.35951,-4.92449 -5.86263,-6.28672 -8.41847,-9.80929 -11.34859,-15.64112 l -2.46462,-4.90533 -0.49834,-27.67209 C 170.15949,95.34755 170.07765,94.369005 167.01051,87.096534 164.48349,81.104738 160.98632,75.872501 156.45626,71.30597 148.87464,63.663308 139.89424,58.800534 129.7449,56.842102 c -4.01355,-0.774461 -13.34136,-0.774461 -17.35491,0 -16.551028,3.19371 -30.696093,14.677516 -37.265607,30.254432 -3.050316,7.232576 -3.142263,8.33946 -3.817694,45.958316 l -0.492087,27.40732 -2.47075,4.91756 c -2.936202,5.84394 -5.489434,9.36377 -11.354723,15.65335 -2.397735,2.57118 -4.359517,4.78721 -4.359517,4.92449 0,0.13729 30.797025,0.24962 68.437838,0.24962 37.6408,0 68.43783,-0.11233 68.43783,-0.24962 z M 132.29214,40.74463 c -0.24471,-5.502425 -0.49274,-7.004957 -1.53047,-9.271667 -3.88179,-8.478946 -15.50666,-8.478946 -19.38845,0 -1.03773,2.26671 -1.28575,3.769242 -1.53047,9.271667 l -0.29204,6.566581 h 11.51674 11.51674 z"
       id="path832"
       inkscape:connector-curvature="0"
       transform="matrix(0.26458333,0,0,0.26458333,-23.546359,-16.180576)" />
    <path
       style="opacity:1;fill:#ffffff;fill-opacity:1;stroke:none;stroke-width:3.35020661;stroke-linejoin:round;stroke-miterlimit:4;stroke-dasharray:none;stroke-dashoffset:0;stroke-opacity:1"
       d="m 218.9344,108.9476 c -1.42175,-1.32456 -1.4812,-1.58733 -2.40376,-10.623686 -0.43959,-4.305775 -1.24967,-10.044982 -1.80017,-12.753797 -2.97276,-14.627866 -10.10529,-29.26251 -20.12334,-41.289363 -4.46559,-5.361032 -6.67216,-8.962681 -6.49818,-10.606602 0.0921,-0.870361 0.71768,-1.57541 2.01332,-2.26916 1.87739,-1.005241 1.88197,-1.005241 3.75417,0 4.53288,2.433847 14.79687,16.733932 20.64605,28.764662 6.99764,14.392893 10.80928,29.266696 10.83395,42.276246 0.009,4.83344 -0.005,4.89196 -1.54473,6.18718 -1.85641,1.56207 -3.42935,1.6635 -4.87731,0.31452 z"
       id="path834"
       inkscape:connector-curvature="0"
       transform="matrix(0.26458333,0,0,0.26458333,-23.546359,-16.180576)" />
  </g>
</svg>
