<?xml version="1.0" encoding="UTF-8" standalone="no"?>
<svg
   xmlns:dc="http://purl.org/dc/elements/1.1/"
   xmlns:cc="http://creativecommons.org/ns#"
   xmlns:rdf="http://www.w3.org/1999/02/22-rdf-syntax-ns#"
   xmlns:svg="http://www.w3.org/2000/svg"
   xmlns="http://www.w3.org/2000/svg"
   xmlns:sodipodi="http://sodipodi.sourceforge.net/DTD/sodipodi-0.dtd"
   xmlns:inkscape="http://www.inkscape.org/namespaces/inkscape"
   width="13.98"
   height="13.980161"
   viewBox="0 0 13.98 13.980161"
   version="1.1"
   id="svg4"
   sodipodi:docname="faq.svg"
   inkscape:version="0.92.3 (2405546, 2018-03-11)">
  <metadata
     id="metadata10">
    <rdf:RDF>
      <cc:Work
         rdf:about="">
        <dc:format>image/svg+xml</dc:format>
        <dc:type
           rdf:resource="http://purl.org/dc/dcmitype/StillImage" />
        <dc:title />
      </cc:Work>
    </rdf:RDF>
  </metadata>
  <defs
     id="defs8" />
  <sodipodi:namedview
     pagecolor="#ffffff"
     bordercolor="#666666"
     borderopacity="1"
     objecttolerance="10"
     gridtolerance="10"
     guidetolerance="10"
     inkscape:pageopacity="0"
     inkscape:pageshadow="2"
     inkscape:window-width="960"
     inkscape:window-height="1016"
     id="namedview6"
     showgrid="false"
     inkscape:zoom="41.7193"
     inkscape:cx="6.5248532"
     inkscape:cy="6.9188695"
     inkscape:window-x="0"
     inkscape:window-y="27"
     inkscape:window-maximized="0"
     inkscape:current-layer="svg4"
     fit-margin-top="0"
     fit-margin-left="0"
     fit-margin-right="0"
     fit-margin-bottom="0" />
  <path
     style="fill:#000000;stroke-width:0.15;stroke:#000000;stroke-opacity:1;stroke-miterlimit:4;stroke-dasharray:none"
     d="M 6.869824,8.6402108 C 6.5740297,8.5422528 6.3901033,8.3304944 6.3421413,8.0326787 6.2874874,7.6933226 6.4564169,7.3698973 6.7646014,7.2238424 c 0.1143402,-0.054187 0.1404972,-0.058933 0.325119,-0.058933 0.1846212,0 0.2107787,0.00469 0.325119,0.058933 C 7.645373,7.333097 7.7950024,7.5338017 7.8344492,7.7866858 7.8885452,8.1334815 7.7234204,8.452258 7.4148394,8.5967506 7.3099827,8.6458486 7.2635247,8.6557956 7.1184025,8.6602546 7.0126684,8.6634746 6.9168169,8.6557746 6.869824,8.6402066 Z M 7.3100139,8.3361791 C 7.4677852,8.2542637 7.5558744,8.1018009 7.5558744,7.9106498 7.5558744,7.7514946 7.5142062,7.6567125 7.3981313,7.5518476 7.304584,7.4673332 7.1941464,7.434933 7.0410528,7.4470864 6.7832362,7.4675544 6.6235664,7.6448469 6.6235664,7.9106498 c 0,0.2115743 0.105913,0.3740877 0.2880151,0.4419324 0.091879,0.03423 0.3189128,0.024885 0.3984324,-0.016408 z M 6.5160779,6.8494107 c -0.037044,-0.037043 -0.038242,-0.06374 -0.038242,-0.8509028 0,-0.9656817 -0.025198,-0.8790467 0.2609903,-0.8973043 C 7.4191841,5.0577987 7.61144,4.9347483 7.5818146,4.5616524 7.5612528,4.3026972 7.3890939,4.1522552 7.1088423,4.1483411 6.8964313,4.1453451 6.737815,4.266275 6.6030641,4.5338549 6.5525374,4.6341872 6.5226832,4.6719827 6.4868533,4.6809752 6.4323975,4.6946434 5.4251332,4.4524612 5.3547565,4.4087798 5.3312596,4.394196 5.3064397,4.3599604 5.2995937,4.3326958 5.283129,4.267103 5.3350452,4.0852001 5.4251078,3.8928802 5.6545351,3.4029769 6.0541265,3.0606438 6.5870493,2.8974359 c 0.1558954,-0.047741 0.1936202,-0.051533 0.5217909,-0.052413 0.3048197,-8.4e-4 0.3770382,0.00497 0.5221484,0.041675 0.694074,0.1756844 1.118141,0.5972198 1.2985577,1.2908025 0.055828,0.2146281 0.061007,0.7062246 0.00941,0.8936213 C 8.8549977,5.376055 8.6406264,5.7026336 8.3959404,5.8983634 8.228791,6.0320692 8.1241032,6.0917837 7.9379308,6.159613 l -0.1502821,0.054755 -0.00956,0.2978578 c -0.0079,0.2461166 -0.015339,0.3045954 -0.042836,0.3366448 -0.032056,0.037366 -0.054282,0.038787 -0.6071047,0.038787 -0.5483347,0 -0.5755291,-0.00168 -0.6120729,-0.038248 z M 7.4946728,6.3122781 C 7.5019122,5.972857 7.5011198,5.9742202 7.7216003,5.9244296 7.8838115,5.8877985 8.1156563,5.7708234 8.2431606,5.661283 8.3615964,5.5595331 8.5106237,5.3623893 8.5817306,5.2133991 8.6593144,5.0508356 8.6953048,4.8813061 8.6956366,4.6768545 8.6969526,3.8472409 8.2203883,3.2670874 7.433906,3.140957 7.2471413,3.111004 6.9164881,3.116191 6.761227,3.1514983 6.3666667,3.2412388 6.0189671,3.4797808 5.7964593,3.8133851 5.7001807,3.957734 5.6068292,4.1704067 5.6304981,4.1914768 c 0.00855,0.00762 0.1618345,0.049813 0.3406195,0.093768 0.1787852,0.043956 0.3391481,0.084147 0.3563622,0.089312 0.022298,0.00669 0.047748,-0.019646 0.088513,-0.091598 0.070839,-0.1250338 0.2522303,-0.2993059 0.3708674,-0.3563119 0.2670031,-0.1282962 0.6568436,-0.06497 0.8655022,0.1405942 0.116494,0.1147667 0.1788684,0.2354402 0.2058459,0.398245 0.02564,0.1547495 -0.0027,0.3796262 -0.063075,0.5005242 C 7.7443018,5.067794 7.6249492,5.1847661 7.5143643,5.2411821 7.3983434,5.3003692 7.1416079,5.3607415 6.9478864,5.3743866 l -0.1736695,0.01223 -0.00503,0.6071053 -0.00503,0.6071047 h 0.3621982 0.3621977 z"
     id="path823"
     inkscape:connector-curvature="0"
     sodipodi:nodetypes="cccscscccccsccsccccsccccccccccccccccccscccccccccccccccccccccccccc" />
  <path
     style="fill:#000000;stroke:#000000;stroke-width:0.15;stroke-miterlimit:4;stroke-dasharray:none;stroke-opacity:1"
     d="m 10.54798,11.077249 c -0.295795,-0.09796 -0.479721,-0.309716 -0.527683,-0.607532 -0.05466,-0.339356 0.114276,-0.6627805 0.42246,-0.8088355 0.114341,-0.05419 0.140497,-0.05893 0.325119,-0.05893 0.184621,0 0.210779,0.0047 0.325119,0.05893 0.230534,0.109254 0.380163,0.3099587 0.41961,0.5628425 0.0541,0.346796 -0.111029,0.665572 -0.41961,0.810065 -0.104856,0.0491 -0.151315,0.05905 -0.296437,0.0635 -0.105734,0.0032 -0.201586,-0.0045 -0.248578,-0.02005 z m 0.440189,-0.304032 c 0.157772,-0.08191 0.245861,-0.234378 0.245861,-0.425529 0,-0.159155 -0.04167,-0.253937 -0.157742,-0.3588018 -0.09355,-0.08451 -0.203986,-0.116915 -0.35708,-0.104761 -0.257816,0.02047 -0.417486,0.1977598 -0.417486,0.4635628 0,0.211574 0.105914,0.374088 0.288015,0.441932 0.09188,0.03423 0.318913,0.02488 0.398432,-0.01641 z M 10.194234,9.2864495 c -0.03704,-0.03704 -0.03824,-0.06374 -0.03824,-0.850903 0,-0.965682 -0.0252,-0.879047 0.26099,-0.897304 0.680358,-0.0434 0.872614,-0.166456 0.842989,-0.539551 C 11.239413,6.7397358 11.067252,6.5892938 10.787,6.5853797 c -0.212411,-0.003 -0.371027,0.1179339 -0.505778,0.3855138 -0.05053,0.100332 -0.08038,0.138128 -0.116212,0.14712 C 10.110554,7.1316825 9.103289,6.8894998 9.0329122,6.8458184 9.0094153,6.8312346 8.9845954,6.796999 8.9777494,6.7697344 8.9612847,6.7041416 9.0132009,6.5222387 9.1032635,6.3299188 9.3326909,5.8400155 9.7322819,5.4976824 10.265205,5.3344745 c 0.155896,-0.047741 0.19362,-0.051533 0.521791,-0.052413 0.30482,-8.4e-4 0.377038,0.00497 0.522149,0.041675 0.694073,0.1756844 1.11814,0.5972198 1.298557,1.2908026 0.05583,0.214628 0.061,0.7062244 0.0094,0.8936214 -0.08396,0.304934 -0.298329,0.631512 -0.543015,0.827242 -0.16715,0.133706 -0.271838,0.19342 -0.45801,0.26125 l -0.150282,0.05476 -0.0096,0.297858 c -0.0079,0.246116 -0.01534,0.304595 -0.04283,0.336644 -0.03205,0.03737 -0.05429,0.03879 -0.607105,0.03879 -0.548334,0 -0.575483,-0.0017 -0.612026,-0.038255 z m 0.978595,-0.537133 c 0.0072,-0.339421 0.0064,-0.338058 0.226927,-0.387848 0.162211,-0.03663 0.394056,-0.153606 0.52156,-0.263147 0.118436,-0.10175 0.267463,-0.298894 0.338571,-0.447884 0.07758,-0.162563 0.113573,-0.332093 0.113906,-0.536544 0.0013,-0.829614 -0.475249,-1.4097675 -1.261731,-1.5358979 -0.186765,-0.029953 -0.517418,-0.024766 -0.672679,0.010541 -0.39456,0.08974 -0.7422601,0.3282825 -0.964768,0.6618868 -0.096279,0.144349 -0.1896301,0.3570216 -0.1659612,0.3780917 0.00855,0.00762 0.1618345,0.049813 0.3406191,0.093768 0.178786,0.043956 0.339149,0.084147 0.3563621,0.089312 0.0223,0.00669 0.04775,-0.019646 0.08851,-0.091598 0.07084,-0.1250338 0.25223,-0.2993059 0.370867,-0.3563119 0.267003,-0.1282962 0.656844,-0.06497 0.865502,0.1405943 0.116494,0.1147666 0.178869,0.2354401 0.205847,0.3982449 0.02564,0.1547491 -0.0027,0.3796261 -0.06308,0.5005241 -0.05083,0.101783 -0.170185,0.218755 -0.28077,0.275171 -0.11602,0.05919 -0.372756,0.119559 -0.566477,0.133204 l -0.17367,0.01223 -0.005,0.607106 -0.005,0.607105 h 0.362198 0.362197 z"
     id="path823-3"
     inkscape:connector-curvature="0"
     sodipodi:nodetypes="cccscscccccsccsccccsccccccccccccccccccscccccccccccccccccccccccccc" />
  <path
     style="fill:#000000;stroke-width:0.15;stroke-miterlimit:4;stroke-dasharray:none;stroke:#000000;stroke-opacity:1"
     d="m 3.1916684,11.077249 c -0.2957943,-0.09796 -0.4797207,-0.309716 -0.5276826,-0.607532 -0.054654,-0.339356 0.1142755,-0.6627805 0.42246,-0.8088355 0.1143403,-0.05419 0.1404972,-0.05893 0.325119,-0.05893 0.1846212,0 0.2107788,0.0047 0.325119,0.05893 0.2305336,0.109254 0.380163,0.3099587 0.4196098,0.5628425 0.054096,0.346796 -0.1110287,0.665572 -0.4196098,0.810065 -0.1048566,0.0491 -0.1513146,0.05905 -0.2964369,0.0635 -0.105734,0.0032 -0.2015856,-0.0045 -0.2485785,-0.02005 z m 0.4401899,-0.304032 c 0.1577713,-0.08191 0.2458605,-0.234378 0.2458605,-0.425529 0,-0.159155 -0.041668,-0.253937 -0.157743,-0.3588018 -0.093547,-0.08451 -0.203985,-0.116915 -0.3570786,-0.104761 -0.2578165,0.02047 -0.4174864,0.1977598 -0.4174864,0.4635628 0,0.211574 0.1059131,0.374088 0.2880152,0.441932 0.091879,0.03423 0.3189127,0.02488 0.3984323,-0.01641 z M 2.8379224,9.2864495 c -0.037044,-0.03704 -0.038242,-0.06374 -0.038242,-0.850903 0,-0.965682 -0.025198,-0.879047 0.2609903,-0.897304 0.6803583,-0.0434 0.8726142,-0.166456 0.8429888,-0.539552 C 3.8830973,6.7397357 3.7109384,6.5892938 3.4306867,6.5853796 3.2182758,6.5823836 3.0596594,6.7033135 2.9249085,6.9708935 2.8743818,7.0712255 2.8445276,7.1090215 2.8086977,7.1180135 2.7542419,7.1316825 1.7469777,6.8894998 1.676601,6.8458184 1.6531041,6.8312346 1.6282842,6.796999 1.6214382,6.7697343 1.6049735,6.7041415 1.6568897,6.5222387 1.7469522,6.3299187 1.9763796,5.8400154 2.375971,5.4976823 2.9088938,5.3344746 3.0647892,5.2867331 3.102514,5.2829419 3.4306846,5.2820613 c 0.3048197,-8.4e-4 0.3770382,0.00497 0.5221484,0.041675 0.694074,0.1756844 1.118141,0.5972197 1.2985577,1.2908025 0.055828,0.214628 0.061007,0.7062247 0.00941,0.8936207 -0.083959,0.304934 -0.2983298,0.631513 -0.5430159,0.827242 -0.1671494,0.133706 -0.2718371,0.193421 -0.4580095,0.26125 l -0.1502821,0.05476 -0.00956,0.297858 c -0.0079,0.246117 -0.015339,0.304595 -0.042836,0.336645 -0.032056,0.03737 -0.054282,0.03879 -0.6071048,0.03879 -0.5483347,0 -0.5755291,-0.0017 -0.6120728,-0.03825 z m 0.9785949,-0.537133 c 0.00724,-0.339421 0.00645,-0.338058 0.2269274,-0.387848 0.1622112,-0.03663 0.394056,-0.153606 0.5215603,-0.263147 0.1184358,-0.10175 0.2674631,-0.298894 0.3385701,-0.447884 0.077584,-0.162563 0.1135741,-0.332093 0.113906,-0.536544 C 5.0187971,6.2842794 4.5422327,5.7041259 3.7557505,5.5779955 3.5689857,5.5480425 3.2383325,5.5532295 3.0830714,5.5885368 2.6885112,5.6782773 2.3408115,5.9168194 2.1183038,6.2504236 2.0220251,6.3947726 1.9286736,6.6074452 1.9523425,6.6285153 c 0.00855,0.00762 0.1618345,0.049813 0.3406196,0.093769 0.1787852,0.043956 0.339148,0.084147 0.3563622,0.089312 0.022299,0.00669 0.047748,-0.019645 0.088513,-0.091598 0.07084,-0.1250339 0.2522306,-0.2993059 0.3708676,-0.3563119 0.2670031,-0.1282963 0.6568437,-0.06497 0.8655022,0.1405942 0.1164941,0.1147667 0.1788684,0.2354402 0.2058459,0.3982449 0.02564,0.15475 -0.0027,0.379626 -0.063075,0.500524 -0.050832,0.101783 -0.1701845,0.218755 -0.2807693,0.275171 -0.1160209,0.05919 -0.3727564,0.11956 -0.5664779,0.133205 l -0.1736696,0.01223 -0.00503,0.607105 -0.00503,0.607105 h 0.3621982 0.3621977 z"
     id="path823-6"
     inkscape:connector-curvature="0"
     sodipodi:nodetypes="cccscscccccsccsccccsccccccccccccccccccscccccccccccccccccccccccccc" />
</svg>
