<?xml version="1.0" encoding="UTF-8" standalone="no"?>
<svg
   xmlns:dc="http://purl.org/dc/elements/1.1/"
   xmlns:cc="http://creativecommons.org/ns#"
   xmlns:rdf="http://www.w3.org/1999/02/22-rdf-syntax-ns#"
   xmlns:svg="http://www.w3.org/2000/svg"
   xmlns="http://www.w3.org/2000/svg"
   xmlns:sodipodi="http://sodipodi.sourceforge.net/DTD/sodipodi-0.dtd"
   xmlns:inkscape="http://www.inkscape.org/namespaces/inkscape"
   width="13.974576"
   height="13.974576"
   viewBox="0 0 13.974576 13.974576"
   version="1.1"
   id="svg4"
   sodipodi:docname="globe_negative.svg"
   inkscape:version="0.92.3 (2405546, 2018-03-11)">
  <metadata
     id="metadata10">
    <rdf:RDF>
      <cc:Work
         rdf:about="">
        <dc:format>image/svg+xml</dc:format>
        <dc:type
           rdf:resource="http://purl.org/dc/dcmitype/StillImage" />
        <dc:title></dc:title>
      </cc:Work>
    </rdf:RDF>
  </metadata>
  <defs
     id="defs8" />
  <sodipodi:namedview
     pagecolor="#ffffff"
     bordercolor="#666666"
     borderopacity="1"
     objecttolerance="10"
     gridtolerance="10"
     guidetolerance="10"
     inkscape:pageopacity="0"
     inkscape:pageshadow="2"
     inkscape:window-width="960"
     inkscape:window-height="1016"
     id="namedview6"
     showgrid="false"
     inkscape:zoom="41.7193"
     inkscape:cx="6.5203124"
     inkscape:cy="5.7848893"
     inkscape:window-x="0"
     inkscape:window-y="27"
     inkscape:window-maximized="0"
     inkscape:current-layer="svg4"
     fit-margin-top="0"
     fit-margin-left="0"
     fit-margin-right="0"
     fit-margin-bottom="0" />
  <path
     style="opacity:1;fill:#000000;fill-opacity:1;stroke:none;stroke-width:0.5;stroke-linejoin:round;stroke-miterlimit:4;stroke-dasharray:none;stroke-dashoffset:0;stroke-opacity:1"
     d="M 8.2730344,13.181198 C 8.292343,12.973445 8.3396786,12.838406 8.5360489,12.430871 8.8565123,11.765801 8.920516,11.340667 8.7391036,11.08211 8.7134872,11.0456 8.6036258,10.957181 8.4949672,10.885624 8.2601013,10.730953 8.1330201,10.599172 8.0271132,10.400471 7.9841487,10.319861 7.8677031,10.15317 7.7683455,10.030047 7.5314887,9.7365362 7.5157806,9.6965319 7.5258184,9.4123932 7.5330939,9.2064451 7.5428216,9.164582 7.620901,9.003201 7.6687391,8.9043259 7.7577266,8.7484293 7.8186512,8.656764 7.915015,8.5117784 7.9294234,8.4737885 7.9294234,8.3646954 7.9294234,8.1875045 7.8986487,8.1261688 7.7681451,8.0432612 7.6035889,7.9387201 7.5622476,7.9336306 7.4671038,8.0062004 c -0.044838,0.0342 -0.1005014,0.062181 -0.1236959,0.062181 -0.054472,0 -0.3292304,-0.1457963 -0.4713728,-0.2501262 C 6.8112136,7.7736138 6.7139774,7.6690327 6.6559543,7.5858532 6.5367493,7.4149656 6.4208365,7.3253205 6.3190805,7.3253205 c -0.038055,0 -0.2333114,-0.063299 -0.4339028,-0.1406651 C 5.6845866,7.1072898 5.364064,6.9872588 5.1729055,6.9179197 4.9817469,6.8485808 4.7795324,6.7652567 4.7235398,6.732755 4.5197771,6.6144778 4.3819047,6.3958665 4.3819047,6.1910565 c 0,-0.096807 -0.064182,-0.2204866 -0.222726,-0.4292008 C 3.9627832,5.503313 3.904569,5.4061263 3.841092,5.2308197 3.7914516,5.0937261 3.7347222,5.0261113 3.7347222,5.1040395 c 0,0.019727 0.041473,0.1743318 0.092162,0.3435659 0.1278228,0.426756 0.1339333,0.4540067 0.094457,0.4212439 C 3.9036735,5.8541863 3.8274906,5.7513167 3.7520459,5.6402498 3.6252587,5.4535986 3.6148736,5.4280864 3.6148736,5.3032732 3.6148736,5.1446413 3.5519808,4.9480889 3.4105374,4.6646815 3.2688196,4.3807242 3.2073883,4.167658 3.2073883,3.9600858 c 0,-0.2152757 0.038556,-0.3640311 0.1801298,-0.6949755 0.061411,-0.1435551 0.1232259,-0.3269235 0.1373662,-0.4074852 0.035365,-0.2014866 0.062468,-0.226463 0.1582688,-0.1458519 0.089638,0.075425 0.092733,0.066152 0.022526,-0.067496 C 3.6582088,2.5539105 3.6513181,2.4965878 3.6397628,2.0959231 3.6279826,1.6874642 3.6223833,1.6424333 3.575488,1.5790168 L 3.5241175,1.5095484 3.8047048,1.3499295 C 4.067444,1.2004639 4.4170875,1.0348477 4.6724991,0.93887998 4.7830754,0.89733229 4.7838316,0.89740389 5.0143542,0.97124686 5.3516871,1.0793042 5.4319838,1.0653936 5.3167238,0.91886429 5.2281979,0.80632185 5.2606622,0.7815866 5.4968967,0.7815866 c 0.1912739,0 0.2291659,0.0148127 0.4282738,0.16742054 0.2253856,0.17274876 0.2979271,0.19859106 0.5480924,0.19525376 0.1153542,-0.00154 0.209735,0.00624 0.209735,0.017292 0,0.011049 -0.021573,0.039613 -0.047939,0.063474 -0.032053,0.029008 -0.04794,0.073826 -0.04794,0.1352472 0,0.090074 -0.00338,0.093553 -0.1737804,0.1786725 -0.3463141,0.172997 -0.3983555,0.2509345 -0.2396973,0.3589709 0.2661486,0.1812307 0.6994327,0.4529013 0.7693003,0.4823542 0.070157,0.029575 0.087233,0.029169 0.1367058,-0.00325 0.033541,-0.021977 0.062975,-0.071369 0.072368,-0.1214375 0.014206,-0.075724 -0.037423,-0.4724338 -0.073831,-0.5673125 -0.00793,-0.020678 0.00414,-0.056162 0.02683,-0.078853 0.054605,-0.054605 0.1420352,-0.036841 0.3615926,0.073466 0.1636309,0.082209 0.1806631,0.085791 0.3355761,0.070571 0.1590812,-0.01563 0.1669915,-0.013727 0.3137164,0.075459 0.1623692,0.098696 0.4866692,0.3365549 0.6387775,0.4685138 l 0.094176,0.081701 -0.136526,0.078112 c -0.2040032,0.1167188 -0.3087039,0.22389 -0.2992543,0.3063154 0.00635,0.055376 0.034529,0.08161 0.1575422,0.1466626 0.082396,0.043573 0.1498107,0.09385 0.1498107,0.1117254 0,0.037132 -0.1173373,0.1416868 -0.2166345,0.1930354 -0.058206,0.0301 -0.075786,0.030161 -0.1330278,4.626e-4 -0.080189,-0.041602 -0.1148605,-0.025765 -0.2351907,0.1074254 -0.072693,0.080462 -0.086618,0.1112751 -0.074737,0.1653699 0.013437,0.061177 0.006,0.069769 -0.093242,0.1076682 -0.230332,0.087966 -0.3433864,0.3273024 -0.3135929,0.6638752 L 7.6708333,4.4499384 7.4683666,4.6591809 C 7.144755,4.9936223 7.1435085,4.9976573 7.25612,5.3462238 7.3626191,5.6758708 7.3181725,5.70561 7.0668126,5.4728892 6.9773602,5.39007 6.8419888,5.2918607 6.7659873,5.2546465 6.4145236,5.0825516 5.8010023,5.1845881 5.4882372,5.4671523 5.2810084,5.6543711 5.2146844,5.9360007 5.3154005,6.2010637 5.4047173,6.4361266 5.518536,6.554554 5.6753485,6.575587 5.805337,6.5930221 5.9108881,6.5508063 6.1738626,6.3762032 6.3010095,6.291784 6.4240547,6.2227134 6.4472962,6.2227134 c 0.08893,0 0.1179071,0.1588252 0.059582,0.3265699 -0.076643,0.2204289 -0.077413,0.2173097 0.063742,0.2583447 0.2513805,0.073078 0.3750321,0.2103461 0.4231564,0.4697531 0.053654,0.2892155 0.07538,0.3475538 0.1629716,0.4376015 C 7.2712777,7.8327248 7.4494285,7.897235 7.7345491,7.92421 8.0124979,7.950506 8.0379161,7.941517 8.4208029,7.6815161 8.5658197,7.5830421 8.7330085,7.4793471 8.7923336,7.4510837 9.051058,7.3278227 9.3014972,7.3635977 9.7484887,7.5876672 c 0.2618143,0.1312436 0.4928903,0.2189519 0.9494373,0.3603723 0.283301,0.087756 0.333155,0.1456563 0.39496,0.4587038 0.04026,0.2038948 0.08644,0.2352235 0.387243,0.2626772 0.712334,0.065013 0.860462,0.09913 0.979211,0.2255326 0.115208,0.1226331 0.04553,0.4225617 -0.219171,0.9434468 -0.268531,0.5284191 -0.68345,1.1262071 -0.908084,1.3083081 -0.05875,0.04763 -0.146199,0.118457 -0.194323,0.157395 -0.04812,0.03894 -0.180894,0.195764 -0.295044,0.348501 -0.114151,0.152737 -0.250232,0.319128 -0.302403,0.369758 -0.154152,0.1496 -0.8277176,0.652145 -1.199344,0.894828 -0.3513345,0.229431 -0.4291356,0.264241 -0.7883346,0.352727 -0.1120585,0.0276 -0.2242844,0.05631 -0.2493911,0.06379 -0.042786,0.01274 -0.04468,0.0032 -0.030211,-0.152506 z"
     id="path816"
     inkscape:connector-curvature="0" />
  <path
     style="opacity:1;fill:#0e0000;fill-opacity:1;stroke:none;stroke-width:0.5;stroke-linejoin:round;stroke-miterlimit:4;stroke-dasharray:none;stroke-dashoffset:0;stroke-opacity:1"
     d="M 7.2582712,1.5160088 C 7.0664174,1.4744008 7.0590465,1.4658709 7.127623,1.3648178 7.1936727,1.2674882 7.196498,1.2527989 7.1616818,1.1877442 7.1224146,1.1143726 7.0069833,1.0685358 6.8028465,1.0452535 6.6018656,1.0223312 6.4672704,0.96997148 6.4672704,0.91470904 c 0,-0.0533732 0.1225913,-0.0661294 0.375747,-0.0390982 0.2056897,0.0219629 0.2627731,0.0389955 0.4512084,0.13463216 0.1186501,0.060219 0.2669628,0.1467675 0.3295837,0.192331 0.1052634,0.07659 0.1138562,0.090604 0.1138562,0.1856794 0,0.05656 -0.012944,0.1157806 -0.028764,0.1316006 -0.03622,0.03622 -0.2752984,0.03418 -0.4506308,-0.00385 z"
     id="path818"
     inkscape:connector-curvature="0" />
  <path
     style="opacity:1;fill:#0e0000;fill-opacity:1;stroke:none;stroke-width:0.5;stroke-linejoin:round;stroke-miterlimit:4;stroke-dasharray:none;stroke-dashoffset:0;stroke-opacity:1"
     d="M 8.8214709,1.4533477 C 8.6301985,1.3628608 8.3693603,1.1951849 8.1674986,1.0329516 7.8329776,0.76410179 7.6109658,0.65820847 7.3108454,0.62435229 7.2207073,0.61418393 7.1384514,0.58957877 7.1071027,0.56340687 c -0.051894,-0.0433242 -0.050245,-0.0439026 0.1273457,-0.0446897 0.3295949,-0.001461 0.9172378,0.0824687 1.3486649,0.1926218 0.2607865,0.0665847 0.2811293,0.0793675 0.2811293,0.17665361 0,0.0494287 0.041838,0.16006582 0.1078637,0.28523822 0.113042,0.2143056 0.1334329,0.3125068 0.069949,0.3368678 -0.055286,0.021215 -0.056364,0.020938 -0.2205844,-0.056751 z"
     id="path820"
     inkscape:connector-curvature="0" />
  <path
     style="opacity:1;fill:#0e0000;fill-opacity:1;stroke:none;stroke-width:0.5;stroke-linejoin:round;stroke-miterlimit:4;stroke-dasharray:none;stroke-dashoffset:0;stroke-opacity:1"
     d="m 6.360757,0.66392285 c -0.00741,-0.0119817 0.019752,-0.049734 0.060349,-0.083894 0.067887,-0.057123 0.091465,-0.0620452 0.2936934,-0.0613117 L 6.93468,0.51951457 6.8783657,0.56643546 C 6.7704502,0.6563503 6.3992816,0.7262569 6.360757,0.66392285 Z"
     id="path822"
     inkscape:connector-curvature="0" />
  <path
     style="opacity:1;fill:#0e0000;fill-opacity:1;stroke:none;stroke-width:0.5;stroke-linejoin:round;stroke-miterlimit:4;stroke-dasharray:none;stroke-dashoffset:0;stroke-opacity:1"
     d="M 8.1691207,6.5845747 C 8.1361623,6.5739215 7.9824828,6.4998016 7.8276108,6.4198637 7.5607024,6.2820977 7.3056248,6.1992505 7.1456757,6.1983766 c -0.036948,-2.019e-4 -0.083357,-0.011207 -0.103132,-0.024457 -0.030685,-0.020559 -0.027661,-0.031044 0.020633,-0.071542 0.065319,-0.054775 0.2641069,-0.06452 0.4228071,-0.020728 0.089907,0.024809 0.3936859,0.1706986 0.675072,0.3242024 L 8.2848243,6.473371 8.400753,6.431817 C 8.464514,6.408963 8.5447348,6.390317 8.5790217,6.390382 8.6678267,6.3905497 8.7960441,6.439293 8.7861064,6.469106 8.7604594,6.546048 8.3104719,6.630262 8.1691209,6.5845734 Z"
     id="path824"
     inkscape:connector-curvature="0" />
</svg>
