<?xml version="1.0" encoding="UTF-8" standalone="no"?>
<svg
   xmlns:dc="http://purl.org/dc/elements/1.1/"
   xmlns:cc="http://creativecommons.org/ns#"
   xmlns:rdf="http://www.w3.org/1999/02/22-rdf-syntax-ns#"
   xmlns:svg="http://www.w3.org/2000/svg"
   xmlns="http://www.w3.org/2000/svg"
   xmlns:sodipodi="http://sodipodi.sourceforge.net/DTD/sodipodi-0.dtd"
   xmlns:inkscape="http://www.inkscape.org/namespaces/inkscape"
   width="13.98"
   height="13.980161"
   viewBox="0 0 13.98 13.980161"
   version="1.1"
   id="svg4"
   sodipodi:docname="help.svg"
   inkscape:version="0.92.3 (2405546, 2018-03-11)">
  <metadata
     id="metadata10">
    <rdf:RDF>
      <cc:Work
         rdf:about="">
        <dc:format>image/svg+xml</dc:format>
        <dc:type
           rdf:resource="http://purl.org/dc/dcmitype/StillImage" />
        <dc:title />
      </cc:Work>
    </rdf:RDF>
  </metadata>
  <defs
     id="defs8" />
  <sodipodi:namedview
     pagecolor="#ffffff"
     bordercolor="#666666"
     borderopacity="1"
     objecttolerance="10"
     gridtolerance="10"
     guidetolerance="10"
     inkscape:pageopacity="0"
     inkscape:pageshadow="2"
     inkscape:window-width="1920"
     inkscape:window-height="1016"
     id="namedview6"
     showgrid="false"
     inkscape:zoom="41.7193"
     inkscape:cx="-0.69023529"
     inkscape:cy="5.744579"
     inkscape:window-x="0"
     inkscape:window-y="27"
     inkscape:window-maximized="1"
     inkscape:current-layer="svg4"
     fit-margin-top="0"
     fit-margin-left="0"
     fit-margin-right="0"
     fit-margin-bottom="0" />
  <path
     style="fill:#000000;stroke-width:0.2;stroke-miterlimit:4;stroke-dasharray:none;stroke:#000000;stroke-opacity:1"
     d="M 6.7559014,11.076089 C 6.3333381,10.936149 6.0705861,10.633637 6.002069,10.208186 5.923992,9.7233915 6.1653198,9.2613555 6.6055834,9.0527055 c 0.1633432,-0.07741 0.2007103,-0.08419 0.4644557,-0.08419 0.2637446,0 0.3011125,0.0067 0.4644557,0.08419 0.3293337,0.156078 0.54309,0.442799 0.5994426,0.804062 0.07728,0.4954225 -0.1586125,0.9508175 -0.5994426,1.1572355 -0.1497952,0.07014 -0.2161638,0.08435 -0.4234813,0.09072 -0.1510486,0.0046 -0.2879794,-0.0064 -0.3551121,-0.02864 z m 0.6288427,-0.434331 c 0.2253876,-0.117022 0.3512293,-0.334826 0.3512293,-0.607899 0,-0.2273645 -0.059526,-0.3627675 -0.2253472,-0.5125745 -0.1336391,-0.120735 -0.2914071,-0.167021 -0.5101122,-0.149659 -0.3683094,0.02924 -0.5964092,0.282515 -0.5964092,0.6622335 0,0.302249 0.1513044,0.534411 0.4114502,0.631332 0.1312563,0.0489 0.4555897,0.03555 0.5691891,-0.02344 z M 6.2505499,8.5178031 c -0.05292,-0.052919 -0.054632,-0.091057 -0.054632,-1.2155754 0,-1.3795453 -0.035997,-1.255781 0.3728433,-1.2818632 C 7.5407016,5.9583575 7.8153529,5.7825712 7.7730309,5.249577 7.7436569,4.879641 7.4977156,4.6647238 7.0973561,4.6591323 6.7939119,4.6548523 6.5673171,4.8276093 6.3748158,5.2098663 6.3026348,5.3531981 6.259986,5.4071917 6.2088004,5.4200382 6.1310064,5.4395642 4.6920575,5.0935896 4.5915193,5.0311876 4.5579523,5.0103536 4.5224953,4.9614456 4.5127153,4.9224961 4.4891943,4.8287921 4.5633603,4.5689309 4.6920211,4.2941881 5.0197745,3.5943263 5.5906193,3.105279 6.3519376,2.8721249 c 0.2227077,-0.068202 0.2766003,-0.073618 0.7454155,-0.074876 0.4354567,-0.0012 0.538626,0.0071 0.7459263,0.059535 0.9915343,0.2509777 1.5973443,0.8531711 1.8550824,1.8440036 0.079754,0.3066115 0.087153,1.0088922 0.013442,1.2766018 -0.11994,0.43562 -0.4261846,0.9021608 -0.7757361,1.1817748 C 8.6972828,7.3501724 8.5477289,7.4354788 8.2817683,7.5323779 L 8.0670796,7.6105999 8.0534236,8.036111 c -0.011286,0.3515952 -0.021913,0.4351363 -0.061195,0.4809211 -0.045794,0.05338 -0.077546,0.05541 -0.8672925,0.05541 -0.7833353,0 -0.8221844,-0.0024 -0.8743898,-0.05464 z M 7.6485426,7.7504709 C 7.6588846,7.2655836 7.6577526,7.267531 7.9727247,7.1964015 8.204455,7.1440715 8.5356618,6.9769641 8.7178108,6.8204779 8.8870048,6.6751209 9.099901,6.3934869 9.2014823,6.1806437 9.3123163,5.9484102 9.3637311,5.7062251 9.3642052,5.4141514 9.3660852,4.2289891 8.685279,3.4001984 7.5617329,3.2200121 7.2949261,3.1772221 6.8225644,3.1846321 6.6007628,3.2350711 6.0371053,3.3632718 5.5403915,3.7040462 5.2225233,4.1806237 5.0849824,4.3868365 4.9516231,4.6906545 4.9854358,4.7207547 c 0.012219,0.010884 0.2311922,0.071162 0.4865994,0.1339549 0.2554074,0.062794 0.4844972,0.12021 0.5090888,0.127589 0.031855,0.00955 0.068211,-0.028065 0.1264476,-0.1308541 C 6.2087708,4.6728248 6.4679006,4.4238647 6.6373821,4.3424276 7.0188151,4.1591473 7.5757302,4.2496136 7.8738138,4.5432765 8.0402339,4.7072289 8.1293401,4.8796196 8.1678794,5.1121978 8.2045084,5.3332686 8.1640294,5.654521 8.0777724,5.8272325 8.0051554,5.9726365 7.8346517,6.1397394 7.6766733,6.2203337 7.5109292,6.3048867 7.1441642,6.3911329 6.8674192,6.4106258 l -0.2480994,0.017472 -0.00719,0.8672933 -0.00719,0.8672925 h 0.517426 0.5174253 z"
     id="path823"
     inkscape:connector-curvature="0"
     sodipodi:nodetypes="cccscscccccsccsccccsccccccccccccccccccscccccccccccccccccccccccccc" />
</svg>
