<?xml version="1.0" encoding="UTF-8" standalone="no"?>
<!-- Created with Inkscape (http://www.inkscape.org/) -->

<svg
   xmlns:dc="http://purl.org/dc/elements/1.1/"
   xmlns:cc="http://creativecommons.org/ns#"
   xmlns:rdf="http://www.w3.org/1999/02/22-rdf-syntax-ns#"
   xmlns:svg="http://www.w3.org/2000/svg"
   xmlns="http://www.w3.org/2000/svg"
   xmlns:sodipodi="http://sodipodi.sourceforge.net/DTD/sodipodi-0.dtd"
   xmlns:inkscape="http://www.inkscape.org/namespaces/inkscape"
   width="617.85712mm"
   height="617.85712mm"
   viewBox="0 0 617.85712 617.85712"
   version="1.1"
   id="svg8"
   inkscape:version="0.92.3 (2405546, 2018-03-11)"
   sodipodi:docname="close_session.svg">
  <defs
     id="defs2" />
  <sodipodi:namedview
     id="base"
     pagecolor="#ffffff"
     bordercolor="#666666"
     borderopacity="1.0"
     inkscape:pageopacity="0.0"
     inkscape:pageshadow="2"
     inkscape:zoom="0.12374369"
     inkscape:cx="1607.5682"
     inkscape:cy="571.41131"
     inkscape:document-units="mm"
     inkscape:current-layer="layer1"
     showgrid="false"
     inkscape:window-width="1920"
     inkscape:window-height="1016"
     inkscape:window-x="0"
     inkscape:window-y="27"
     inkscape:window-maximized="1"
     fit-margin-top="0"
     fit-margin-left="0"
     fit-margin-right="0"
     fit-margin-bottom="0" />
  <metadata
     id="metadata5">
    <rdf:RDF>
      <cc:Work
         rdf:about="">
        <dc:format>image/svg+xml</dc:format>
        <dc:type
           rdf:resource="http://purl.org/dc/dcmitype/StillImage" />
        <dc:title></dc:title>
      </cc:Work>
    </rdf:RDF>
  </metadata>
  <g
     inkscape:label="Layer 1"
     inkscape:groupmode="layer"
     id="layer1"
     transform="translate(475.2381,-290.45236)">
    <path
       style="fill:#000000;stroke-width:1"
       d="m -270.45687,768.04013 c -5.45599,-0.48416 -11.40542,-2.39736 -16.11281,-5.18152 -10.66334,-6.30681 -17.53788,-16.88433 -19.0378,-29.29264 -0.14764,-1.22125 -0.21953,-45.1742 -0.21953,-134.20222 0,-116.86947 0.0379,-132.67571 0.3238,-134.85636 2.35793,-17.98723 16.51615,-31.77923 34.65427,-33.75788 2.89104,-0.31538 186.528479,-0.31831 189.652299,-0.004 16.886753,1.70434 30.895332,14.30195 34.246901,30.79746 0.85796,4.22269 0.889315,5.78589 0.824693,41.12788 l -0.06236,34.10887 -12.85875,-11.25075 -12.85875,-11.25074 -0.107155,-23.60824 -0.107156,-23.60822 -0.574187,-1.57191 c -0.828939,-2.26932 -1.788931,-3.73499 -3.53547,-5.39786 -1.764884,-1.68033 -3.93017,-2.83725 -6.217077,-3.32182 -2.221027,-0.47061 -184.805388,-0.46627 -187.055098,0.005 -4.5223,0.94622 -7.99682,4.07402 -9.81446,8.83511 l -0.47254,1.23772 -0.0588,131.80218 c -0.0536,119.93292 -0.028,131.94218 0.28268,133.35673 0.96749,4.40448 4.37113,8.14583 8.77723,9.64809 l 1.71451,0.58457 h 92.90447 c 88.051452,0 92.975839,-0.0198 94.270844,-0.37752 3.031943,-0.83768 5.992284,-2.94858 7.66118,-5.46287 0.442833,-0.66715 1.100237,-2.037 1.460924,-3.04411 l 0.655776,-1.83113 0.05989,-23.48726 0.05986,-23.48724 12.466711,-10.90991 c 6.856691,-6.00046 12.691218,-11.08781 12.965646,-11.30525 l 0.498944,-0.39535 -0.06601,35.75691 c -0.0725,39.24789 0.0065,36.78986 -1.348132,41.79754 -4.255027,15.72585 -17.964084,27.10972 -34.398574,28.56428 -3.021292,0.2674 -185.556069,0.25 -188.575959,-0.018 z m 140.33106,-84.386 c -1.6153,-0.53147 -2.48674,-1.09464 -3.69859,-2.3902 -1.07836,-1.15285 -2.01636,-2.94879 -2.62824,-5.03216 -0.34516,-1.17518 -0.38345,-2.8582 -0.44484,-19.55167 l -0.0671,-18.26579 -40.12207,-0.0581 c -38.34423,-0.0555 -40.17429,-0.0758 -41.30078,-0.45363 -4.5658,-1.53173 -7.99417,-5.03138 -9.09003,-9.27903 -0.30162,-1.16912 -0.33972,-4.4511 -0.33972,-29.26222 0,-30.75006 -0.0772,-28.91114 1.33613,-31.83718 1.02837,-2.12909 3.60275,-4.6762 5.77592,-5.71474 3.12605,-1.4939 0.36123,-1.40563 44.15439,-1.40974 l 39.5864,-0.005 0.0657,-18.59161 c 0.0651,-18.42075 0.07,-18.60699 0.53835,-20.26623 0.97508,-3.45447 2.86892,-5.85626 5.35955,-6.79703 1.06111,-0.40081 1.54306,-0.45181 3.48185,-0.36838 1.23766,0.0532 2.56256,0.23168 2.94421,0.3965 0.68009,0.29369 97.782666,84.30832 97.782666,84.60306 0,0.0825 -21.916129,19.14514 -48.702512,42.36139 l -48.702514,42.21138 -2.35744,0.0543 c -1.83384,0.0422 -2.62702,-0.0345 -3.57121,-0.34509 z"
       id="path826"
       inkscape:connector-curvature="0" />
  </g>
</svg>
