<?xml version="1.0" encoding="UTF-8" standalone="no"?>
<svg
   xmlns:dc="http://purl.org/dc/elements/1.1/"
   xmlns:cc="http://creativecommons.org/ns#"
   xmlns:rdf="http://www.w3.org/1999/02/22-rdf-syntax-ns#"
   xmlns:svg="http://www.w3.org/2000/svg"
   xmlns="http://www.w3.org/2000/svg"
   xmlns:sodipodi="http://sodipodi.sourceforge.net/DTD/sodipodi-0.dtd"
   xmlns:inkscape="http://www.inkscape.org/namespaces/inkscape"
   width="16"
   height="15.605283"
   viewBox="0 0 16 15.605283"
   version="1.1"
   id="svg4"
   sodipodi:docname="mark-github.svg"
   inkscape:version="0.92.3 (2405546, 2018-03-11)">
  <metadata
     id="metadata10">
    <rdf:RDF>
      <cc:Work
         rdf:about="">
        <dc:format>image/svg+xml</dc:format>
        <dc:type
           rdf:resource="http://purl.org/dc/dcmitype/StillImage" />
        <dc:title></dc:title>
      </cc:Work>
    </rdf:RDF>
  </metadata>
  <defs
     id="defs8" />
  <sodipodi:namedview
     pagecolor="#ffffff"
     bordercolor="#666666"
     borderopacity="1"
     objecttolerance="10"
     gridtolerance="10"
     guidetolerance="10"
     inkscape:pageopacity="0"
     inkscape:pageshadow="2"
     inkscape:window-width="1920"
     inkscape:window-height="1016"
     id="namedview6"
     showgrid="false"
     fit-margin-top="0"
     fit-margin-left="0"
     fit-margin-right="0"
     fit-margin-bottom="0"
     inkscape:zoom="14.75"
     inkscape:cx="0.74576241"
     inkscape:cy="-0.12353078"
     inkscape:window-x="0"
     inkscape:window-y="27"
     inkscape:window-maximized="1"
     inkscape:current-layer="svg4" />
  <path
     d="M 7.9999997,0 C 3.5799997,0 0,3.5800001 0,8.0000001 0,11.54 2.2899997,14.53 5.4699997,15.59 c 0.4,0.07 0.55,-0.17 0.55,-0.38 0,-0.19 -0.01,-0.82 -0.01,-1.49 -2.01,0.37 -2.53,-0.49 -2.69,-0.94 -0.09,-0.23 -0.48,-0.94 -0.82,-1.13 -0.28,-0.15 -0.68,-0.52 -0.01,-0.53 0.63,-0.01 1.08,0.58 1.23,0.82 0.72,1.21 1.87,0.87 2.33,0.66 0.07,-0.52 0.28,-0.87 0.51,-1.07 -1.78,-0.2 -3.64,-0.89 -3.64,-3.9499999 0,-0.87 0.31,-1.59 0.82,-2.15 -0.08,-0.2 -0.36,-1.02 0.08,-2.12 0,0 0.67,-0.21 2.2,0.82 0.64,-0.18 1.32,-0.27 2,-0.27 0.68,0 1.36,0.09 2.0000003,0.27 1.53,-1.04 2.2,-0.82 2.2,-0.82 0.44,1.1 0.16,1.92 0.08,2.12 0.51,0.56 0.82,1.27 0.82,2.15 C 13.12,10.65 11.25,11.33 9.4699997,11.53 c 0.29,0.25 0.5400003,0.73 0.5400003,1.48 0,1.07 -0.01,1.93 -0.01,2.2 0,0.21 0.1500003,0.46 0.5500003,0.38 A 8.013,8.013 0 0 0 16,8.0000001 C 16,3.5800001 12.42,0 7.9999997,0 Z"
     id="path2"
     inkscape:connector-curvature="0"
     style="fill:#ffffff;fill-opacity:1;fill-rule:evenodd" />
</svg>
