<?xml version="1.0" encoding="UTF-8" standalone="no"?>
<!-- Created with Inkscape (http://www.inkscape.org/) -->

<svg
   xmlns:dc="http://purl.org/dc/elements/1.1/"
   xmlns:cc="http://creativecommons.org/ns#"
   xmlns:rdf="http://www.w3.org/1999/02/22-rdf-syntax-ns#"
   xmlns:svg="http://www.w3.org/2000/svg"
   xmlns="http://www.w3.org/2000/svg"
   xmlns:sodipodi="http://sodipodi.sourceforge.net/DTD/sodipodi-0.dtd"
   xmlns:inkscape="http://www.inkscape.org/namespaces/inkscape"
   width="620.88098mm"
   height="620.88098mm"
   viewBox="0 0 620.88098 620.88098"
   version="1.1"
   id="svg8"
   inkscape:version="0.92.3 (2405546, 2018-03-11)"
   sodipodi:docname="share.svg">
  <defs
     id="defs2" />
  <sodipodi:namedview
     id="base"
     pagecolor="#ffffff"
     bordercolor="#666666"
     borderopacity="1.0"
     inkscape:pageopacity="0.0"
     inkscape:pageshadow="2"
     inkscape:zoom="0.175"
     inkscape:cx="2837.8624"
     inkscape:cy="1175.7535"
     inkscape:document-units="mm"
     inkscape:current-layer="layer1"
     showgrid="false"
     inkscape:window-width="1920"
     inkscape:window-height="1016"
     inkscape:window-x="0"
     inkscape:window-y="27"
     inkscape:window-maximized="1"
     fit-margin-top="0"
     fit-margin-left="0"
     fit-margin-right="0"
     fit-margin-bottom="0" />
  <metadata
     id="metadata5">
    <rdf:RDF>
      <cc:Work
         rdf:about="">
        <dc:format>image/svg+xml</dc:format>
        <dc:type
           rdf:resource="http://purl.org/dc/dcmitype/StillImage" />
        <dc:title></dc:title>
      </cc:Work>
    </rdf:RDF>
  </metadata>
  <g
     inkscape:label="Layer 1"
     inkscape:groupmode="layer"
     id="layer1"
     transform="translate(475.7381,-289.44043)">
    <path
       style="fill:#000000;stroke-width:1"
       d="m -53.72716,792.75161 c -28.875791,-6.14214 -49.53766,-27.0705 -55.07182,-55.78202 -1.56531,-8.12095 -1.5349,-16.29048 0.089,-23.95793 0.70628,-3.33432 1.28411,-6.15945 1.28411,-6.27808 0,-0.1185 -28.82596,-14.62972 -64.05774,-32.24687 l -64.05774,-32.03118 -4.58109,4.85236 c -8.5135,9.01769 -20.17419,16.03603 -32.47037,19.54326 -8.58068,2.44751 -25.51603,2.70447 -33.60415,0.50991 -18.46527,-5.01024 -32.19439,-14.75519 -42.04347,-29.84244 -7.69897,-11.79365 -10.75083,-22.44846 -10.75083,-37.53398 0,-15.08551 3.05186,-25.74033 10.75083,-37.53398 9.84236,-15.077 23.45286,-24.74447 42.04347,-29.86325 7.18605,-1.97865 24.84045,-1.91302 32.47892,0.12079 12.13452,3.23081 25.05008,10.90169 33.5956,19.95326 l 4.58109,4.85236 64.14681,-32.0757 c 59.45181,-29.72803 64.10901,-32.21502 63.63043,-33.97876 -4.78411,-17.63041 -1.41424,-37.83304 8.961904,-53.72776 17.755258,-27.1983 50.866226,-38.34907 81.589626,-27.4769 29.99711,10.6151 49.07419,41.58699 45.08243,73.19183 -5.88321,46.5803 -55.23876,74.31034 -97.110217,54.56066 -8.187827,-3.86197 -15.735888,-9.26316 -21.546981,-15.41836 l -4.581088,-4.85236 -64.057744,32.03118 c -35.23178,17.61715 -64.05775,32.12823 -64.05775,32.24686 0,0.1185 0.57784,2.94377 1.28412,6.27809 1.63238,7.70666 1.63238,15.67755 0,23.38421 -0.70628,3.33433 -1.28412,6.15946 -1.28412,6.27809 0,0.1185 28.83032,14.63191 64.0674,32.25171 l 64.067375,32.03599 4.138384,-4.4307 c 30.979871,-33.16815 83.750111,-28.61852 108.541461,9.35796 7.72401,11.83205 10.77193,22.48846 10.7353,37.53398 -0.037,15.15779 -3.08171,25.8292 -10.67743,37.42202 -9.8332999,15.0079 -23.83798,25.03067 -41.65553,29.8118 -6.86293,1.84156 -22.587,2.27604 -29.46036,0.81402 z m 22.91578,-27.80097 C -15.87347,761.05982 -4.36657,749.51607 -0.45448001,734.49655 5.15533,712.95899 -8.63079,690.23422 -30.81138,684.45691 c -21.67288,-5.6451 -44.376773,8.07682 -50.171073,30.32266 -7.719492,29.63709 20.533973,57.89056 50.171073,50.17107 z M -280.24965,640.2315 c 22.18059,-5.77731 35.96671,-28.50208 30.3569,-50.03963 -3.91209,-15.01953 -15.41899,-26.56328 -30.3569,-30.45409 -21.67287,-5.6451 -44.37676,8.07682 -50.17106,30.32266 -7.7195,29.63709 20.53397,57.89056 50.17106,50.17106 z M -30.81138,515.51237 C -8.63079,509.73506 5.15533,487.01029 -0.45448001,465.47273 -4.36657,450.45321 -15.87347,438.90946 -30.81138,435.01865 c -21.67288,-5.64507 -44.376773,8.07682 -50.171073,30.32265 -7.719492,29.6371 20.533973,57.89057 50.171073,50.17107 z"
       id="path894"
       inkscape:connector-curvature="0" />
  </g>
</svg>
