<?xml version="1.0" encoding="UTF-8" standalone="no"?>
<svg
   xmlns:dc="http://purl.org/dc/elements/1.1/"
   xmlns:cc="http://creativecommons.org/ns#"
   xmlns:rdf="http://www.w3.org/1999/02/22-rdf-syntax-ns#"
   xmlns:svg="http://www.w3.org/2000/svg"
   xmlns="http://www.w3.org/2000/svg"
   xmlns:sodipodi="http://sodipodi.sourceforge.net/DTD/sodipodi-0.dtd"
   xmlns:inkscape="http://www.inkscape.org/namespaces/inkscape"
   width="12.372881"
   height="12.508474"
   viewBox="0 0 12.372881 12.508475"
   version="1.1"
   id="svg4"
   sodipodi:docname="terms.svg"
   inkscape:version="0.92.3 (2405546, 2018-03-11)">
  <metadata
     id="metadata10">
    <rdf:RDF>
      <cc:Work
         rdf:about="">
        <dc:format>image/svg+xml</dc:format>
        <dc:type
           rdf:resource="http://purl.org/dc/dcmitype/StillImage" />
        <dc:title></dc:title>
      </cc:Work>
    </rdf:RDF>
  </metadata>
  <defs
     id="defs8" />
  <sodipodi:namedview
     pagecolor="#ffffff"
     bordercolor="#666666"
     borderopacity="1"
     objecttolerance="10"
     gridtolerance="10"
     guidetolerance="10"
     inkscape:pageopacity="0"
     inkscape:pageshadow="2"
     inkscape:window-width="1920"
     inkscape:window-height="1016"
     id="namedview6"
     showgrid="false"
     inkscape:zoom="29.5"
     inkscape:cx="0.84963389"
     inkscape:cy="6.9063473"
     inkscape:window-x="0"
     inkscape:window-y="27"
     inkscape:window-maximized="1"
     inkscape:current-layer="svg4"
     fit-margin-top="0"
     fit-margin-left="0"
     fit-margin-right="0"
     fit-margin-bottom="0" />
  <path
     style="fill:#000000;stroke-width:1"
     d="M 4.4650495,9.948274 C 4.2891905,9.887502 4.1443715,9.780226 4.0357285,9.6302503 3.8649625,9.3945126 3.8707545,9.5074587 3.8707545,6.4149455 V 3.5923451 h -0.654676 c -0.630601,0 -0.656861,-0.00211 -0.713947,-0.059267 -0.05115,-0.051157 -0.05724,-0.08156 -0.04446,-0.2224711 0.02619,-0.2888593 0.209019,-0.5622659 0.462433,-0.6915518 0.213893,-0.1091188 0.393021,-0.1154222 3.040063,-0.1069859 2.401749,0.00766 2.556771,0.011087 2.682385,0.05963 0.184558,0.071298 0.415287,0.2895244 0.496796,0.4698773 l 0.06636,0.1468186 0.0075,2.8764078 0.0074,2.8764074 h 0.300614 c 0.366184,0 0.403201,0.01895 0.399477,0.2044857 -0.0076,0.380836 -0.23227,0.6848781 -0.597611,0.8088949 -0.118848,0.04033 -0.381625,0.04514 -2.423707,0.04435 -2.125094,-0.0011 -2.300792,-0.0048 -2.434364,-0.05069 z m 0.613924,-0.4034382 c 0.122915,-0.09375 0.212573,-0.2597538 0.212573,-0.393575 0,-0.061469 0.02102,-0.1195983 0.05572,-0.1543307 0.05453,-0.054514 0.09286,-0.055719 1.783342,-0.055719 h 1.727624 l -0.0074,-2.8645285 -0.0074,-2.8645297 -0.06965,-0.1028939 c -0.04035,-0.05972 -0.127391,-0.1319207 -0.20737,-0.1720701 l -0.137798,-0.069169 h -2.181441 c -1.199788,0 -2.181434,0.00977 -2.181434,0.021645 0,0.011931 0.01863,0.048253 0.04144,0.08079 0.124298,0.1774597 0.125733,0.2155819 0.125733,3.3311286 0,2.8380895 0.0021,2.9521447 0.05274,3.0516393 0.107165,0.2099806 0.254185,0.2905593 0.507493,0.2781525 0.150224,-0.00733 0.202885,-0.023332 0.285808,-0.086557 z M 4.6411895,8.5281029 c -0.06761,-0.074714 -0.05932,-0.2152278 0.01578,-0.2678467 0.04925,-0.034477 0.146086,-0.043393 0.4736,-0.043393 0.374538,0 0.41671,0.00528 0.467402,0.055718 0.03062,0.03062 0.0557,0.087056 0.0557,0.1253624 0,0.038326 -0.02507,0.094722 -0.0557,0.125363 -0.05089,0.050894 -0.09286,0.055719 -0.483214,0.055719 -0.378766,0 -0.432747,-0.00589 -0.473594,-0.050947 z m 2.851197,-0.0048 c -0.03065,-0.030621 -0.05572,-0.087055 -0.05572,-0.125362 0,-0.038326 0.02507,-0.094717 0.05572,-0.125364 0.0507,-0.050684 0.09286,-0.055718 0.467398,-0.055718 0.472152,0 0.535514,0.021119 0.535514,0.1783468 0,0.1667266 -0.04877,0.1838161 -0.524545,0.1838161 -0.385506,0 -0.427547,-0.0048 -0.478367,-0.055719 z M 4.6388625,7.8109676 c -0.02407,-0.024076 -0.04377,-0.079599 -0.04377,-0.1233729 0,-0.1755273 -0.09768,-0.1671542 1.95011,-0.1671542 2.047795,0 1.950108,-0.0084 1.950108,0.1671542 0,0.1755226 0.09768,0.1671493 -1.950108,0.1671493 -1.656083,0 -1.867404,-0.00479 -1.906329,-0.043766 z m 0.01816,-0.6960546 c -0.07805,-0.054671 -0.08416,-0.2064542 -0.01099,-0.2726942 0.04635,-0.041915 0.218814,-0.046088 1.904006,-0.046088 1.759829,0 1.855375,0.00269 1.89916,0.050944 0.0676,0.074711 0.05931,0.2152334 -0.01581,0.2678524 -0.05451,0.038171 -0.280357,0.043344 -1.88819,0.043344 -1.607834,0 -1.833678,-0.00528 -1.888193,-0.043344 z m -0.01779,-0.7340716 c -0.07078,-0.078218 -0.04909,-0.2286481 0.03944,-0.2731847 0.0538,-0.02708 0.478362,-0.035052 1.866533,-0.035052 1.38817,0 1.812726,0.00796 1.866532,0.035052 0.0885,0.044554 0.110215,0.1949662 0.03943,0.2731847 -0.04637,0.051211 -0.113831,0.053113 -1.905963,0.053113 -1.792131,0 -1.859601,-0.00211 -1.905964,-0.053113 z m 0.03944,-0.6792294 c -0.05163,-0.025975 -0.07183,-0.061052 -0.07808,-0.1354211 -0.017,-0.2024674 -0.135057,-0.1908689 1.942291,-0.1908689 1.794421,0 1.861925,0.00211 1.908289,0.053112 0.07078,0.078218 0.04908,0.2286481 -0.03943,0.2731847 -0.101217,0.050944 -3.631862,0.050944 -3.733062,-4.9e-6 z m -0.03749,-0.7393988 c -0.06761,-0.074708 -0.05932,-0.2152283 0.01578,-0.2678475 0.05452,-0.038169 0.28036,-0.043396 1.888194,-0.043396 2.029304,0 1.950107,-0.00724 1.950107,0.1783467 0,0.1936833 0.104936,0.1838163 -1.954948,0.1838163 -1.759832,0 -1.855378,-0.00263 -1.89916,-0.050946 z m -0.0021,-0.7171565 c -0.02407,-0.024074 -0.04377,-0.079597 -0.04377,-0.1233729 0,-0.1755277 -0.09769,-0.1671547 1.95011,-0.1671547 2.047794,0 1.950107,-0.0084 1.950107,0.1671547 0,0.1755222 0.09769,0.1671492 -1.950107,0.1671492 -1.656083,0 -1.867405,-0.00475 -1.906329,-0.043766 z m 0.72111,-0.7210685 c -0.08291,-0.082907 -0.08719,-0.1635383 -0.01266,-0.2380667 0.05335,-0.053348 0.09286,-0.055718 0.928947,-0.055718 0.832948,0 0.875521,0.00263 0.922821,0.054794 0.06887,0.076101 0.06296,0.1956684 -0.01269,0.2569351 -0.05706,0.046194 -0.133388,0.050417 -0.910154,0.050417 h -0.847876 l -0.06838,-0.068378 z m 3.912659,6.073345 c 0.08334,-0.043079 0.25348,-0.2223394 0.25348,-0.2670449 0,-0.017049 -0.712352,-0.026555 -1.943144,-0.025976 l -1.943142,0.00108 -0.07507,0.1662314 -0.07507,0.1662359 h 1.852442 c 1.5631,0 1.864632,-0.00625 1.930498,-0.040391 z M 3.8044725,3.1535736 c -0.08421,-0.1618647 -0.288818,-0.286151 -0.469102,-0.284942 -0.131952,0.00106 -0.301038,0.086418 -0.405084,0.204923 -0.04968,0.056568 -0.0903,0.1149471 -0.0903,0.1297399 0,0.016261 0.198034,0.026871 0.502171,0.026871 h 0.502172 z"
     id="path863"
     inkscape:connector-curvature="0"
     sodipodi:nodetypes="ccscscccssccccsscscssssccccscsscscssssssssssssssssscssssccssccscccsccsccsscccccsssccsssscccsscssccccsscccsccccssscc" />
</svg>
