<?xml version="1.0" encoding="UTF-8" standalone="no"?>
<!-- Created with Inkscape (http://www.inkscape.org/) -->

<svg
   xmlns:dc="http://purl.org/dc/elements/1.1/"
   xmlns:cc="http://creativecommons.org/ns#"
   xmlns:rdf="http://www.w3.org/1999/02/22-rdf-syntax-ns#"
   xmlns:svg="http://www.w3.org/2000/svg"
   xmlns="http://www.w3.org/2000/svg"
   xmlns:sodipodi="http://sodipodi.sourceforge.net/DTD/sodipodi-0.dtd"
   xmlns:inkscape="http://www.inkscape.org/namespaces/inkscape"
   version="1.1"
   id="svg2"
   xml:space="preserve"
   width="1438.0519"
   height="196.50363"
   viewBox="0 0 1438.0519 196.50363"
   sodipodi:docname="webname_greengray.svg"
   inkscape:version="0.92.3 (2405546, 2018-03-11)"><metadata
     id="metadata8"><rdf:RDF><cc:Work
         rdf:about=""><dc:format>image/svg+xml</dc:format><dc:type
           rdf:resource="http://purl.org/dc/dcmitype/StillImage" /><dc:title /></cc:Work></rdf:RDF></metadata><defs
     id="defs6" /><sodipodi:namedview
     pagecolor="#ffffff"
     bordercolor="#666666"
     borderopacity="1"
     objecttolerance="10"
     gridtolerance="10"
     guidetolerance="10"
     inkscape:pageopacity="0"
     inkscape:pageshadow="2"
     inkscape:window-width="960"
     inkscape:window-height="1016"
     id="namedview4"
     showgrid="false"
     inkscape:zoom="0.24574141"
     inkscape:cx="625.81559"
     inkscape:cy="507.27758"
     inkscape:window-x="0"
     inkscape:window-y="27"
     inkscape:window-maximized="0"
     inkscape:current-layer="text20"
     fit-margin-top="0"
     fit-margin-left="0"
     fit-margin-right="0"
     fit-margin-bottom="0" /><g
     id="g10"
     inkscape:groupmode="layer"
     inkscape:label="webname_greengray"
     transform="matrix(1.3333333,0,0,1.3333333,9.9999998e-5,1.7333333e-4)"><g
       id="g12"><g
   aria-label="Film"
   transform="translate(-13.209958,113.955)"
   style="font-variant:normal;font-weight:normal;font-size:159.1552124px;font-family:Garuda;-inkscape-font-specification:Garuda;writing-mode:lr-tb;fill:#2e8b57;fill-opacity:1;fill-rule:nonzero;stroke:none"
   id="text16"><path
     d="M 13.209883,0 V -113.95513 H 90.08185 v 13.36904 H 28.329628 v 35.173298 h 53.157841 v 13.369038 H 28.329628 V 0 Z"
     id="path817"
     inkscape:connector-curvature="0"
     style="stroke-width:0.28346458;stroke-miterlimit:4;stroke-dasharray:none" /><path
     d="m 107.58892,-97.880456 v -16.074674 h 14.16482 v 16.074674 z m 0,97.880456 v -82.4424 h 14.16482 V 0 Z"
     id="path819"
     inkscape:connector-curvature="0" /><path
     d="m 142.60308,0 v -113.95513 h 14.16481 V 0 Z"
     id="path821"
     inkscape:connector-curvature="0" /><path
     d="m 212.63137,-72.893087 q -6.20705,0 -10.34509,2.387328 -4.13803,2.228173 -6.20705,6.684519 -2.06902,4.297191 -2.86479,9.231002 -0.79578,4.933812 -0.79578,11.618331 V 0 h -14.16481 v -82.4424 h 14.16481 v 11.459175 q 6.0479,-13.369038 23.39582,-13.369038 17.98454,0 23.23666,14.32397 9.86762,-14.32397 25.62399,-14.32397 25.46483,0 25.46483,27.693007 V 0 h -14.16481 v -51.884599 q 0,-21.008488 -14.48313,-21.008488 -20.05355,0 -20.05355,24.828213 V 0 h -14.16482 v -53.635307 q 0,-19.25778 -14.64228,-19.25778 z"
     id="path823"
     inkscape:connector-curvature="0" /></g>
<g
   aria-label="Democracy"
   transform="translate(287.07118,113.955)"
   style="font-variant:normal;font-weight:normal;font-size:159.1552124px;font-family:Garuda;-inkscape-font-specification:Garuda;writing-mode:lr-tb;fill:#c8c8c8;fill-opacity:1;fill-rule:nonzero;stroke:none"
   id="text20"><path
     d="m 12.254951,0 v -113.95513 h 39.152183 q 28.807093,0 41.85782,14.005657 13.050726,14.005658 13.050726,42.335286 Q 106.31568,0 53.476151,0 Z m 15.119746,-13.369038 h 24.350747 q 21.804264,0 30.557801,-10.981709 8.912692,-10.98171 8.912692,-33.422595 0,-22.122575 -9.231003,-32.467663 -9.071847,-10.345085 -30.716956,-10.345085 H 27.374697 Z"
     id="path826"
     inkscape:connector-curvature="0" /><path
     d="m 130.90834,-37.878941 q 0.79578,12.891573 7.16198,20.690178 6.52537,7.6394503 17.98454,7.6394503 15.2789,0 21.80427,-17.0296073 l 14.32397,1.750707 q -7.32114,26.7380755 -36.28739,26.7380755 -18.62116,0 -28.96625,-10.9817096 -10.34509,-11.1408649 -10.34509,-31.6718869 0,-19.894402 10.02678,-31.671888 10.18593,-11.936641 28.48878,-11.936641 16.55214,0 26.26061,10.026779 9.70847,9.867623 10.98171,27.215541 v 9.231002 z m 0.79578,-11.459175 h 46.15501 q -1.90987,-23.554971 -22.44089,-23.554971 -10.34509,0 -16.71129,6.684519 -6.20706,6.525363 -7.00283,16.870452 z"
     id="path828"
     inkscape:connector-curvature="0" /><path
     d="m 241.02624,-72.893087 q -6.20705,0 -10.34509,2.387328 -4.13803,2.228173 -6.20705,6.684519 -2.06902,4.297191 -2.8648,9.231002 -0.79577,4.933812 -0.79577,11.618331 V 0 h -14.16482 v -82.4424 h 14.16482 v 11.459175 q 6.0479,-13.369038 23.39582,-13.369038 17.98453,0 23.23666,14.32397 9.86762,-14.32397 25.62399,-14.32397 25.46483,0 25.46483,27.693007 V 0 h -14.16481 v -51.884599 q 0,-21.008488 -14.48313,-21.008488 -20.05356,0 -20.05356,24.828213 V 0 h -14.16481 v -53.635307 q 0,-19.25778 -14.64228,-19.25778 z"
     id="path830"
     inkscape:connector-curvature="0" /><path
     d="m 389.40028,-2.228173 q -7.95776,4.1380355 -18.93947,4.1380355 -10.98171,0 -19.09862,-4.1380355 -7.95776,-4.1380355 -12.0958,-10.822554 -3.97888,-6.843675 -5.88874,-13.846504 -1.75071,-7.002829 -1.75071,-14.323969 0,-19.416936 10.18594,-31.194422 10.34508,-11.936641 28.64793,-11.936641 18.30285,0 28.48879,11.936641 10.34509,11.777486 10.34509,31.194422 0,7.32114 -1.90987,14.323969 -1.7507,7.002829 -5.88874,13.846504 -3.97888,6.6845185 -12.0958,10.822554 z m -0.79577,-61.911378 q -6.36621,-8.753536 -18.1437,-8.753536 -11.77748,0 -18.30285,8.753536 -6.3662,8.594382 -6.3662,22.918351 0,5.729588 1.11408,10.98171 1.27324,5.252122 3.81973,10.185933 2.70564,4.774657 7.63945,7.63945 5.09296,2.8647943 12.09579,2.8647943 7.00283,0 11.93665,-2.8647943 5.09296,-2.864793 7.63945,-7.63945 2.70563,-4.933811 3.81972,-10.185933 1.27324,-5.252122 1.27324,-10.98171 0,-14.323969 -6.52536,-22.918351 z"
     id="path832"
     inkscape:connector-curvature="0" /><path
     d="m 421.07217,-41.062045 q 0,-12.414106 3.50141,-21.326798 3.50142,-8.912692 9.23101,-13.369038 5.88874,-4.615501 12.09579,-6.525364 6.20706,-2.069018 13.05073,-2.069018 27.69301,0 32.94513,26.101455 l -13.68735,2.069018 q -3.50141,-16.711297 -18.78031,-16.711297 -24.1916,0 -24.1916,31.671887 0,31.6718873 23.39582,31.6718873 17.66623,0 20.84933,-20.6901773 l 13.5282,1.750707 q -2.22818,13.846503 -11.14087,22.1225745 -8.75354,8.276071 -22.91835,8.276071 -17.98454,0 -28.01132,-11.6183305 -9.86762,-11.777486 -9.86762,-31.353577 z"
     id="path834"
     inkscape:connector-curvature="0" /><path
     d="m 504.62866,0 v -82.4424 h 14.16482 v 12.414107 q 5.88874,-14.32397 16.39298,-14.32397 7.16199,0 14.32397,4.297191 l -4.6155,10.345089 q -4.77466,-3.183104 -10.18593,-3.183104 -7.00283,0 -11.45918,7.480295 -4.45634,7.480295 -4.45634,22.281729 V 0 Z"
     id="path836"
     inkscape:connector-curvature="0" /><path
     d="m 590.73161,-72.893087 q -10.18593,0 -14.80144,3.66057 -4.45634,3.501414 -7.00282,12.095796 l -13.36904,-1.909863 q 5.25212,-25.305679 37.08316,-25.305679 17.50708,0 24.66906,6.525364 7.32114,6.366209 7.32114,24.669058 v 36.287388 q 0,8.7535372 4.29719,16.870453 h -14.48312 q -2.06902,-4.4563459 -2.70564,-10.185934 -14.48313,12.0957965 -30.5578,12.0957965 -12.41411,0 -20.37187,-6.2070532 -7.95776,-6.3662083 -7.95776,-17.3479183 0,-12.732417 11.93664,-20.371867 5.09297,-3.34226 21.96342,-5.729588 16.87045,-2.546483 23.71413,-4.933811 v -3.501415 q 0,-16.711297 -19.73525,-16.711297 z m -6.0479,63.3437743 q 25.78315,0 25.78315,-26.7380753 V -41.2212 q -5.25213,2.228173 -17.50708,4.138036 -12.09579,1.750707 -19.09862,4.933811 -6.84368,3.023949 -6.84368,10.026778 0,12.5732623 17.66623,12.5732623 z"
     id="path838"
     inkscape:connector-curvature="0" /><path
     d="m 639.79279,-41.062045 q 0,-12.414106 3.50141,-21.326798 3.50142,-8.912692 9.23101,-13.369038 5.88874,-4.615501 12.09579,-6.525364 6.20706,-2.069018 13.05073,-2.069018 27.69301,0 32.94513,26.101455 l -13.68735,2.069018 q -3.50141,-16.711297 -18.78031,-16.711297 -24.1916,0 -24.1916,31.671887 0,31.6718873 23.39582,31.6718873 17.66623,0 20.84933,-20.6901773 l 13.5282,1.750707 q -2.22818,13.846503 -11.14087,22.1225745 -8.75354,8.276071 -22.91835,8.276071 -17.98454,0 -28.01132,-11.6183305 -9.86762,-11.777486 -9.86762,-31.353577 z"
     id="path840"
     inkscape:connector-curvature="0" /><path
     d="m 723.19013,31.671887 -1.75071,-10.981709 q 5.09297,1.273241 8.11692,1.273241 4.45634,0 7.7986,-2.546483 3.34226,-2.546483 4.77466,-6.207053 Q 746.7451,1.1140865 747.06341,0 l -31.19442,-82.4424 h 14.80143 l 17.34792,47.587408 q 3.66057,10.026779 5.88874,19.257781 3.18311,-11.61833 5.88875,-18.780315 L 777.3029,-82.4424 h 14.16481 L 759.95498,1.4323969 q -2.06902,5.5704324 -2.54648,6.8436741 -0.47747,1.2732417 -2.54649,6.047898 -2.06901,4.933812 -3.1831,6.366209 -1.11409,1.591552 -3.50141,4.774656 -2.38733,3.342259 -4.45635,4.456346 -2.06902,1.273242 -5.09297,2.387328 -3.02395,1.114087 -6.36621,1.114087 -4.77465,0 -9.07184,-1.750708 z"
     id="path842"
     inkscape:connector-curvature="0" /></g>
</g></g></svg>