<?xml version="1.0" encoding="UTF-8" standalone="no"?>
<!-- Created with Inkscape (http://www.inkscape.org/) -->

<svg
   xmlns:dc="http://purl.org/dc/elements/1.1/"
   xmlns:cc="http://creativecommons.org/ns#"
   xmlns:rdf="http://www.w3.org/1999/02/22-rdf-syntax-ns#"
   xmlns:svg="http://www.w3.org/2000/svg"
   xmlns="http://www.w3.org/2000/svg"
   xmlns:sodipodi="http://sodipodi.sourceforge.net/DTD/sodipodi-0.dtd"
   xmlns:inkscape="http://www.inkscape.org/namespaces/inkscape"
   width="64.066963mm"
   height="64.066963mm"
   viewBox="0 0 64.066963 64.066963"
   version="1.1"
   id="svg8"
   inkscape:version="0.92.3 (2405546, 2018-03-11)"
   sodipodi:docname="bell_white.svg">
  <defs
     id="defs2" />
  <sodipodi:namedview
     id="base"
     pagecolor="#ffffff"
     bordercolor="#666666"
     borderopacity="1.0"
     inkscape:pageopacity="0.0"
     inkscape:pageshadow="2"
     inkscape:zoom="1.979899"
     inkscape:cx="24.790674"
     inkscape:cy="74.278154"
     inkscape:document-units="mm"
     inkscape:current-layer="layer1"
     showgrid="false"
     fit-margin-top="0"
     fit-margin-left="0"
     fit-margin-right="0"
     fit-margin-bottom="0"
     inkscape:window-width="1920"
     inkscape:window-height="1016"
     inkscape:window-x="0"
     inkscape:window-y="27"
     inkscape:window-maximized="1" />
  <metadata
     id="metadata5">
    <rdf:RDF>
      <cc:Work
         rdf:about="">
        <dc:format>image/svg+xml</dc:format>
        <dc:type
           rdf:resource="http://purl.org/dc/dcmitype/StillImage" />
        <dc:title />
      </cc:Work>
    </rdf:RDF>
  </metadata>
  <g
     inkscape:label="Layer 1"
     inkscape:groupmode="layer"
     id="layer1"
     transform="translate(23.546359,16.180576)">
    <path
       style="fill:#ffffff;fill-opacity:1;stroke-width:0.25488594"
       d="M 6.5596853,44.185163 C 5.3132162,43.861286 3.1471242,42.585082 2.4620995,41.770974 1.5118502,40.641669 0.65514814,38.800873 0.45326106,37.454605 L 0.27289051,36.251806 H -7.2288896 -14.730669 l -0.62563,-0.625637 c -0.742747,-0.742743 -0.821696,-1.898577 -0.17958,-2.629104 0.245329,-0.279109 1.593039,-1.368225 2.994911,-2.420258 4.8616504,-3.648394 4.7139805,-3.240811 4.7198155,-13.02745 0.0051,-8.5637985 0.1757476,-9.7886445 1.8308881,-13.141896 1.3570009,-2.7492309 4.0611568,-5.5591078 6.6387779,-6.898326 L 2.36556,-3.3829662 2.367576,-5.3924813 c 0.00298,-2.8002068 0.3792804,-3.8649359 1.9051599,-5.3908137 2.6349605,-2.63496 6.4099701,-2.483624 8.8391741,0.354352 1.141388,1.333454 1.491798,2.5143362 1.494496,5.0364617 l 0.002,2.0095151 1.718333,0.8921012 c 2.549624,1.3236842 5.280864,4.1676096 6.642767,6.9168359 1.648841,3.3284654 1.820507,4.5624798 1.825613,13.1233861 0.0059,9.786639 -0.141836,9.379056 4.719814,13.02745 1.401873,1.052033 2.749582,2.141149 2.99491,2.420258 0.642117,0.730527 0.563169,1.886361 -0.17958,2.629104 l -0.625422,0.625637 H 24.203052 16.70127 l -0.178827,1.210709 c -0.222802,1.508439 -1.50179,3.96072 -2.506741,4.806329 -1.973106,1.660252 -5.2250022,2.496034 -7.4561003,1.916319 z m 4.1609267,-4.536281 c 0.944248,-0.704979 1.557957,-1.607772 1.74616,-2.568701 L 12.62902,36.251806 H 8.518983 c -4.4692773,0 -4.3974558,-0.02707 -3.8381723,1.449002 0.3588665,0.947144 1.2053919,1.846411 2.1495523,2.283471 1.0157817,0.470212 3.0456147,0.295211 3.890249,-0.335397 z M 23.536069,31.008705 C 22.945483,30.367992 22.099311,29.077623 21.655684,28.14123 L 20.849092,26.438694 20.712048,17.772575 C 20.584744,9.722396 20.536701,9.0114299 20.036096,7.7695956 19.178638,5.6425413 18.322499,4.3517062 16.838072,2.9477951 12.076411,-1.5555846 4.8978339,-1.5555846 0.13617498,2.9477951 -1.3482546,4.3517062 -2.2043913,5.6425413 -3.0618485,7.7695956 -3.5624554,9.0114299 -3.6104994,9.722396 -3.737803,17.772575 l -0.1370433,8.666119 -0.8065922,1.702536 c -0.4436249,0.936393 -1.2897986,2.226762 -1.8803852,2.867475 l -1.0737936,1.16492 H 8.4871222 24.609862 Z M 10.526209,-5.9434117 c 0,-1.7006705 -0.737703,-2.6647163 -2.0390868,-2.6647163 -1.3013837,0 -2.0390882,0.9640458 -2.0390882,2.6647163 v 1.4134586 H 8.4871222 10.526209 Z M -19.434475,13.196207 c -0.508575,-0.508574 -0.624684,-0.878161 -0.620579,-1.975367 0.01371,-3.6671886 1.083332,-8.022286 2.898098,-11.80006019 1.294918,-2.69560821 3.646885,-6.13802731 5.165731,-7.56073791 1.554026,-1.4556618 3.6558747,-0.7738658 3.6558747,1.1858908 0,0.7119809 -0.259164,1.1755789 -1.2991747,2.3239953 -3.739971,4.12980779 -5.868475,9.1839293 -6.263785,14.87333 -0.141949,2.042942 -0.25669,2.500391 -0.751208,2.994912 -0.785331,0.785333 -1.9756,0.767393 -2.784957,-0.042 z m 53.05824,0.04199 c -0.494521,-0.494512 -0.609259,-0.95196 -0.751208,-2.994903 -0.394603,-5.6791997 -2.4275,-10.52301157 -6.243556,-14.8765898 -1.780195,-2.0309468 -1.795288,-3.5813272 -0.04081,-4.1929381 1.06954,-0.3728434 1.745889,-0.060064 3.042442,1.4069901 4.521859,5.1164808 7.374977,12.3045897 7.398674,18.6401198 0.0042,1.097204 -0.112,1.466792 -0.620579,1.975365 -0.809355,0.809359 -1.999626,0.827295 -2.784956,0.04199 z"
       id="path889"
       inkscape:connector-curvature="0" />
  </g>
</svg>
