<?xml version="1.0" encoding="UTF-8" standalone="no"?>
<!-- Created with Inkscape (http://www.inkscape.org/) -->

<svg
   xmlns:dc="http://purl.org/dc/elements/1.1/"
   xmlns:cc="http://creativecommons.org/ns#"
   xmlns:rdf="http://www.w3.org/1999/02/22-rdf-syntax-ns#"
   xmlns:svg="http://www.w3.org/2000/svg"
   xmlns="http://www.w3.org/2000/svg"
   xmlns:sodipodi="http://sodipodi.sourceforge.net/DTD/sodipodi-0.dtd"
   xmlns:inkscape="http://www.inkscape.org/namespaces/inkscape"
   width="50.77483mm"
   height="59.201324mm"
   viewBox="0 0 50.77483 59.201324"
   version="1.1"
   id="svg8"
   inkscape:version="0.92.3 (2405546, 2018-03-11)"
   sodipodi:docname="bell.svg">
  <defs
     id="defs2" />
  <sodipodi:namedview
     id="base"
     pagecolor="#ffffff"
     bordercolor="#666666"
     borderopacity="1.0"
     inkscape:pageopacity="0.0"
     inkscape:pageshadow="2"
     inkscape:zoom="1.979899"
     inkscape:cx="27.668748"
     inkscape:cy="71.740028"
     inkscape:document-units="mm"
     inkscape:current-layer="layer1"
     showgrid="false"
     fit-margin-top="0"
     fit-margin-left="0"
     fit-margin-right="0"
     fit-margin-bottom="0"
     inkscape:window-width="1920"
     inkscape:window-height="1016"
     inkscape:window-x="0"
     inkscape:window-y="27"
     inkscape:window-maximized="1" />
  <metadata
     id="metadata5">
    <rdf:RDF>
      <cc:Work
         rdf:about="">
        <dc:format>image/svg+xml</dc:format>
        <dc:type
           rdf:resource="http://purl.org/dc/dcmitype/StillImage" />
        <dc:title></dc:title>
      </cc:Work>
    </rdf:RDF>
  </metadata>
  <g
     inkscape:label="Layer 1"
     inkscape:groupmode="layer"
     id="layer1"
     transform="translate(15.525944,13.771781)">
    <path
       style="fill:#000000;fill-opacity:1;stroke-width:0.26458332"
       d="m 7.8608328,45.239066 c -1.293892,-0.3362 -3.542395,-1.66096 -4.253482,-2.50604 -0.9864026,-1.17227 -1.8756986,-3.0831 -2.0852666,-4.48059 l -0.187233,-1.24856 h -7.787192 -7.7871932 l -0.649432,-0.64944 c -0.771005,-0.771 -0.852957,-1.97081 -0.186411,-2.72913 0.254662,-0.28973 1.653646,-1.42028 3.108854,-2.51234 5.0466172,-3.7872 4.8933292,-3.36411 4.8993862,-13.52309 0.0053,-8.8896162 0.182434,-10.1610622 1.900546,-13.6418912 1.4086291,-2.853828 4.21566696,-5.770609 6.891356,-7.160779 l 1.782373,-0.926042 0.0021,-2.085969 c 0.0031,-2.906743 0.3937106,-4.0119808 1.9776436,-5.5959118 2.73521,-2.73521 6.6538422,-2.578117 9.1754672,0.367834 1.184812,1.384186 1.548553,2.6099958 1.551355,5.2280778 l 0.0021,2.085969 1.783707,0.926042 c 2.646629,1.374045 5.481782,4.32617 6.895499,7.179993 1.711573,3.4551 1.88977,4.736064 1.89507,13.6226772 0.0061,10.15898 -0.147233,9.73589 4.899384,13.52309 1.455209,1.09206 2.854193,2.22261 3.108854,2.51234 0.666547,0.75832 0.584595,1.95813 -0.186412,2.72913 l -0.649203,0.64944 h -7.787192 -7.787193 l -0.185631,1.25677 c -0.23128,1.56583 -1.558928,4.11141 -2.602114,4.98919 -2.048174,1.72342 -5.423791,2.591 -7.7397732,1.98923 z m 4.3192322,-4.70887 c 0.980173,-0.7318 1.617229,-1.66894 1.812594,-2.66643 l 0.168421,-0.85989 H 9.8946738 c -4.639315,0 -4.564761,-0.0281 -3.984199,1.50413 0.37252,0.98318 1.251252,1.91666 2.231334,2.37035 1.054428,0.4881 3.1614882,0.30644 4.0382562,-0.34816 z m 13.303033,-8.9689 c -0.613056,-0.66509 -1.491422,-2.00455 -1.951927,-2.97657 l -0.837279,-1.76731 -0.142258,-8.99583 C 22.419487,9.4651308 22.369616,8.7271158 21.849964,7.4380348 c -0.890082,-2.20798 -1.778791,-3.547926 -3.319695,-5.00525 -4.942822,-4.674715 -12.3945142,-4.674715 -17.3373348,0 -1.54090604,1.457324 -2.429615,2.79727 -3.319695,5.00525 -0.519653,1.289081 -0.569525,2.027096 -0.7016719,10.3835512 l -0.142257,8.99583 -0.83728,1.76731 c -0.460503,0.97202 -1.3388701,2.31148 -1.9519261,2.97657 l -1.114647,1.20924 H 9.8616008 26.597745 Z M 11.978268,-6.7966962 c 0,-1.765374 -0.765771,-2.766098 -2.1166672,-2.766098 -1.350896,0 -2.116667,1.000724 -2.116667,2.766098 v 1.467235 h 2.116667 2.1166672 z"
       id="path889"
       inkscape:connector-curvature="0"
       sodipodi:nodetypes="cccccccccsssccssccsscccccccsscccccsccccccscsssscscccccssscccs" />
  </g>
</svg>
