<?xml version="1.0" encoding="UTF-8" standalone="no"?>
<!-- Created with Inkscape (http://www.inkscape.org/) -->

<svg
   xmlns:dc="http://purl.org/dc/elements/1.1/"
   xmlns:cc="http://creativecommons.org/ns#"
   xmlns:rdf="http://www.w3.org/1999/02/22-rdf-syntax-ns#"
   xmlns:svg="http://www.w3.org/2000/svg"
   xmlns="http://www.w3.org/2000/svg"
   xmlns:sodipodi="http://sodipodi.sourceforge.net/DTD/sodipodi-0.dtd"
   xmlns:inkscape="http://www.inkscape.org/namespaces/inkscape"
   width="217.71428mm"
   height="217.71428mm"
   viewBox="0 0 217.71428 217.71428"
   version="1.1"
   id="svg8"
   inkscape:version="0.92.3 (2405546, 2018-03-11)"
   sodipodi:docname="chat_bubble.svg">
  <defs
     id="defs2" />
  <sodipodi:namedview
     id="base"
     pagecolor="#ffffff"
     bordercolor="#666666"
     borderopacity="1.0"
     inkscape:pageopacity="0.0"
     inkscape:pageshadow="2"
     inkscape:zoom="0.49497475"
     inkscape:cx="213.99748"
     inkscape:cy="171.17969"
     inkscape:document-units="mm"
     inkscape:current-layer="layer1"
     showgrid="false"
     fit-margin-top="0"
     fit-margin-left="0"
     fit-margin-right="0"
     fit-margin-bottom="0"
     inkscape:window-width="1920"
     inkscape:window-height="1016"
     inkscape:window-x="0"
     inkscape:window-y="27"
     inkscape:window-maximized="1" />
  <metadata
     id="metadata5">
    <rdf:RDF>
      <cc:Work
         rdf:about="">
        <dc:format>image/svg+xml</dc:format>
        <dc:type
           rdf:resource="http://purl.org/dc/dcmitype/StillImage" />
        <dc:title></dc:title>
      </cc:Work>
    </rdf:RDF>
  </metadata>
  <g
     inkscape:label="Layer 1"
     inkscape:groupmode="layer"
     id="layer1"
     transform="translate(75.707069,346.72074)">
    <path
       style="fill:#ffffff;fill-opacity:1;stroke-width:0.31875733"
       d="m -40.278555,-143.70983 c -2.414449,-1.09644 -3.934107,-4.1544 -3.266363,-6.57276 0.166061,-0.60141 1.396853,-2.99667 2.735097,-5.32282 6.723963,-11.68765 10.905662,-22.59901 10.92235,-28.49984 l 0.0056,-1.95743 -3.267264,-1.9098 c -18.365671,-10.73525 -30.736882,-28.4375 -35.439773,-50.71159 -0.977271,-4.62858 -1.775144,-11.98747 -1.775144,-16.37235 0,-31.01986 23.605691,-58.28947 61.5201628,-71.06895 5.4027446,-1.82105 13.232891,-3.79498 18.6473037,-4.70089 9.6032565,-1.60678 11.5890055,-1.75231 23.9067975,-1.75194 12.969181,3.9e-4 16.601189,0.3183 27.038697,2.36674 15.433122,3.02889 30.752252,9.31213 42.609791,17.4767 18.04006,12.42161 29.27199,28.77831 32.54301,47.39132 0.94363,5.36961 1.02368,15.15339 0.17209,21.03797 -2.28604,15.79683 -9.23585,29.62464 -20.59063,40.96847 -15.859897,15.8446 -38.338697,25.65926 -65.363778,28.53906 -6.531992,0.69605 -22.48652,0.97165 -27.531556,0.47557 l -4.002492,-0.39355 -2.637799,2.42096 c -3.978308,3.6513 -8.9564775,7.41773 -16.02561669,12.1248 -12.77378831,8.50559 -23.61894131,13.8809 -32.56362631,16.13992 -4.273525,1.07929 -5.822585,1.14429 -7.636801,0.32041 z m 24.663467,-24.81108 c 4.818907,-3.36971 10.4948535,-7.8058 13.9431733,-10.89741 1.57784885,-1.41462 5.3073091,-4.63291 8.28769,-7.15176 l 5.4188747,-4.57971 5.259496,0.41545 c 2.892723,0.2285 7.052506,0.58698 9.243962,0.79665 4.389754,0.41996 16.433556,0.23267 21.834877,-0.33956 27.847203,-2.95016 50.667166,-15.23872 63.038905,-33.94649 7.26038,-10.97871 10.66793,-25.0283 9.00667,-37.13524 -3.59729,-26.2165 -29.861263,-47.80338 -65.51105,-53.84481 -13.475413,-2.28363 -29.076406,-2.34732 -41.649553,-0.17005 -35.0114,6.06289 -60.953428,25.5885 -66.596351,50.12462 -3.117224,13.5541 0.775099,32.50503 9.342765,45.48807 6.61139,10.01859 13.27033,15.59826 26.306158,22.04245 4.372458,2.16151 3.972638,0.99574 3.27695,9.55471 -0.502639,6.18396 -1.759935,11.94504 -4.112979,18.8462 -0.612714,1.797 -1.003398,3.26726 -0.868191,3.26726 0.135207,0 1.835577,-1.11167 3.778603,-2.47038 z m 1.731772,-66.70794 c -1.281459,-0.33569 -3.066996,-1.00915 -3.967858,-1.49654 -2.114543,-1.14403 -5.007602,-3.82358 -6.295966,-5.83132 -4.37359,-6.81564 -3.208463,-16.04625 2.720196,-21.55051 3.429501,-3.18401 7.227758,-4.61579 12.2642313,-4.62308 9.53153011,-0.0138 16.8940152,6.72822 17.448156,15.97777 0.3098676,5.17224 -1.3319945,9.45484 -5.024815,13.10663 -4.4467123,4.3973 -10.8862004,6.05642 -17.1439443,4.41705 z m 47.521982,0.16371 c -2.805684,-0.60964 -6.203642,-2.4974 -8.33906,-4.63281 -6.683478,-6.68349 -6.70908,-17.25364 -0.05796,-23.92914 3.364942,-3.37729 7.405506,-5.06331 12.134216,-5.06331 15.105759,0 22.651772,18.18822 11.982811,28.88226 -2.550833,2.55685 -4.57645,3.71209 -8.079898,4.60813 -2.773105,0.70923 -4.829653,0.74554 -7.640106,0.13487 z m 45.236398,-0.16371 c -3.204403,-0.83946 -5.257735,-2.0209 -7.742114,-4.45461 -3.633425,-3.55938 -5.27085,-7.79658 -4.988816,-12.9097 0.195267,-3.54017 1.016433,-5.96046 3.018617,-8.89707 4.120949,-6.04416 12.147626,-8.7321 19.103194,-6.39722 12.260305,4.11568 15.880505,19.1211 6.804987,28.20613 -2.386437,2.38897 -5.223275,3.93097 -8.515008,4.62848 -2.867942,0.6077 -4.863863,0.56199 -7.68086,-0.17601 z"
       id="path829"
       inkscape:connector-curvature="0"
       sodipodi:nodetypes="ccsccsssssscscsssccssccccscccssssssssscsccscscscccsssscccccccscsc" />
  </g>
</svg>
