<?xml version="1.0" encoding="UTF-8" standalone="no"?>
<!-- Created with Inkscape (http://www.inkscape.org/) -->

<svg
   xmlns:dc="http://purl.org/dc/elements/1.1/"
   xmlns:cc="http://creativecommons.org/ns#"
   xmlns:rdf="http://www.w3.org/1999/02/22-rdf-syntax-ns#"
   xmlns:svg="http://www.w3.org/2000/svg"
   xmlns="http://www.w3.org/2000/svg"
   xmlns:sodipodi="http://sodipodi.sourceforge.net/DTD/sodipodi-0.dtd"
   xmlns:inkscape="http://www.inkscape.org/namespaces/inkscape"
   width="63.5mm"
   height="63.5mm"
   viewBox="0 0 63.5 63.5"
   version="1.1"
   id="svg8"
   inkscape:version="0.92.3 (2405546, 2018-03-11)"
   sodipodi:docname="cinema.svg">
  <defs
     id="defs2">
    <clipPath
       id="clipPath879"
       clipPathUnits="userSpaceOnUse">
      <circle
         r="27.746002"
         cy="186.93727"
         cx="108.83262"
         id="circle881"
         style="opacity:1;fill:#000000;fill-opacity:1;stroke:none;stroke-width:2.20233536;stroke-linejoin:round;stroke-miterlimit:4;stroke-dasharray:none;stroke-dashoffset:0;stroke-opacity:1" />
    </clipPath>
    <filter
       style="color-interpolation-filters:sRGB"
       inkscape:label="Invert"
       id="filter832">
      <feColorMatrix
         values="1 0 0 0 0 0 1 0 0 0 0 0 1 0 0 -0.21 -0.72 -0.07 2 0 "
         result="fbSourceGraphic"
         id="feColorMatrix830" />
      <feColorMatrix
         result="fbSourceGraphicAlpha"
         in="fbSourceGraphic"
         values="0 0 0 -1 0 0 0 0 -1 0 0 0 0 -1 0 0 0 0 1 0"
         id="feColorMatrix834" />
      <feColorMatrix
         id="feColorMatrix836"
         values="1 0 0 0 0 0 1 0 0 0 0 0 1 0 0 -0.21 -0.72 -0.07 2 0 "
         result="fbSourceGraphic"
         in="fbSourceGraphic" />
      <feColorMatrix
         result="fbSourceGraphicAlpha"
         in="fbSourceGraphic"
         values="0 0 0 -1 0 0 0 0 -1 0 0 0 0 -1 0 0 0 0 1 0"
         id="feColorMatrix838" />
      <feColorMatrix
         id="feColorMatrix840"
         values="0 0 1 0 0 0 1 0 0 0 1 0 0 0 0 -0.21 -0.72 -0.07 2 0 "
         result="fbSourceGraphic"
         in="fbSourceGraphic" />
      <feColorMatrix
         result="fbSourceGraphicAlpha"
         in="fbSourceGraphic"
         values="0 0 0 -1 0 0 0 0 -1 0 0 0 0 -1 0 0 0 0 1 0"
         id="feColorMatrix842" />
      <feColorMatrix
         id="feColorMatrix844"
         values="0 0 1 0 0 0 1 0 0 0 1 0 0 0 0 -0.21 -0.72 -0.07 2 0 "
         result="color2"
         in="fbSourceGraphic" />
    </filter>
    <clipPath
       clipPathUnits="userSpaceOnUse"
       id="clipPath841">
      <circle
         style="opacity:1;fill:#ffff00;fill-opacity:1;stroke:none;stroke-width:1;stroke-linejoin:round;stroke-miterlimit:4;stroke-dasharray:none;stroke-dashoffset:0;stroke-opacity:1"
         id="circle843"
         cx="128.95216"
         cy="171.03062"
         r="26.79377" />
    </clipPath>
    <clipPath
       id="clipPath868"
       clipPathUnits="userSpaceOnUse">
      <rect
         y="116.20139"
         x="36.285713"
         height="70.55555"
         width="63.5"
         id="rect870"
         style="opacity:1;fill:none;fill-opacity:1;stroke:#000000;stroke-width:1;stroke-linejoin:round;stroke-miterlimit:4;stroke-dasharray:none;stroke-dashoffset:0;stroke-opacity:1" />
    </clipPath>
    <clipPath
       id="clipPath872"
       clipPathUnits="userSpaceOnUse">
      <rect
         y="116.20139"
         x="36.285713"
         height="70.55555"
         width="63.5"
         id="rect874"
         style="opacity:1;fill:none;fill-opacity:1;stroke:#000000;stroke-width:1;stroke-linejoin:round;stroke-miterlimit:4;stroke-dasharray:none;stroke-dashoffset:0;stroke-opacity:1" />
    </clipPath>
    <clipPath
       id="clipPath876"
       clipPathUnits="userSpaceOnUse">
      <rect
         y="116.20139"
         x="36.285713"
         height="70.55555"
         width="63.5"
         id="rect878"
         style="opacity:1;fill:none;fill-opacity:1;stroke:#000000;stroke-width:1;stroke-linejoin:round;stroke-miterlimit:4;stroke-dasharray:none;stroke-dashoffset:0;stroke-opacity:1" />
    </clipPath>
    <clipPath
       id="clipPath837"
       clipPathUnits="userSpaceOnUse">
      <rect
         y="121.18307"
         x="34.211842"
         height="65.568871"
         width="65.568871"
         id="rect839"
         style="opacity:1;fill:#000000;fill-opacity:1;stroke:#fffffa;stroke-width:0.11583145;stroke-linejoin:round;stroke-miterlimit:4;stroke-dasharray:none;stroke-dashoffset:0;stroke-opacity:1" />
    </clipPath>
    <clipPath
       id="clipPath876-3"
       clipPathUnits="userSpaceOnUse">
      <rect
         y="116.20139"
         x="36.285713"
         height="70.55555"
         width="63.5"
         id="rect878-6"
         style="opacity:1;fill:none;fill-opacity:1;stroke:#000000;stroke-width:1;stroke-linejoin:round;stroke-miterlimit:4;stroke-dasharray:none;stroke-dashoffset:0;stroke-opacity:1" />
    </clipPath>
    <clipPath
       id="clipPath872-7"
       clipPathUnits="userSpaceOnUse">
      <rect
         y="116.20139"
         x="36.285713"
         height="70.55555"
         width="63.5"
         id="rect874-5"
         style="opacity:1;fill:none;fill-opacity:1;stroke:#000000;stroke-width:1;stroke-linejoin:round;stroke-miterlimit:4;stroke-dasharray:none;stroke-dashoffset:0;stroke-opacity:1" />
    </clipPath>
    <clipPath
       id="clipPath868-3"
       clipPathUnits="userSpaceOnUse">
      <rect
         y="116.20139"
         x="36.285713"
         height="70.55555"
         width="63.5"
         id="rect870-5"
         style="opacity:1;fill:none;fill-opacity:1;stroke:#000000;stroke-width:1;stroke-linejoin:round;stroke-miterlimit:4;stroke-dasharray:none;stroke-dashoffset:0;stroke-opacity:1" />
    </clipPath>
    <clipPath
       clipPathUnits="userSpaceOnUse"
       id="clipPath1276">
      <circle
         style="opacity:1;fill:#00ffff;fill-opacity:1;stroke:none;stroke-width:1.64444876;stroke-linejoin:round;stroke-miterlimit:4;stroke-dasharray:none;stroke-dashoffset:0;stroke-opacity:1"
         id="circle1278"
         cx="162.16229"
         cy="86.918083"
         r="29.75" />
    </clipPath>
  </defs>
  <sodipodi:namedview
     id="base"
     pagecolor="#ffffff"
     bordercolor="#666666"
     borderopacity="1.0"
     inkscape:pageopacity="0.0"
     inkscape:pageshadow="2"
     inkscape:zoom="2.8"
     inkscape:cx="120.78949"
     inkscape:cy="104.04889"
     inkscape:document-units="mm"
     inkscape:current-layer="g1133"
     showgrid="false"
     fit-margin-top="0"
     fit-margin-left="0"
     fit-margin-right="0"
     fit-margin-bottom="0"
     inkscape:window-width="1920"
     inkscape:window-height="1016"
     inkscape:window-x="0"
     inkscape:window-y="27"
     inkscape:window-maximized="1" />
  <metadata
     id="metadata5">
    <rdf:RDF>
      <cc:Work
         rdf:about="">
        <dc:format>image/svg+xml</dc:format>
        <dc:type
           rdf:resource="http://purl.org/dc/dcmitype/StillImage" />
        <dc:title></dc:title>
      </cc:Work>
    </rdf:RDF>
  </metadata>
  <g
     inkscape:label="Layer 1"
     inkscape:groupmode="layer"
     id="layer1"
     transform="translate(-151.03806,-16.435247)">
    <g
       id="g918"
       transform="translate(20.625768,-38.732836)"
       style="fill:#ffffff;fill-opacity:1;stroke:none">
      <path
         style="fill:#ffffff;fill-opacity:1;stroke:none;stroke-width:0.35277778"
         d="m 153.89826,166.33739 c -0.4048,-0.19888 -0.78857,-0.7288 -0.85281,-1.17759 -0.093,-0.64935 -0.27781,-0.77557 -0.90528,-0.61808 -0.43367,0.10884 -1.11149,-0.0283 -1.50626,-0.30485 -0.57048,-0.39958 -0.97797,-0.42289 -1.98578,-0.11359 -1.04623,0.3211 -1.42467,0.28652 -2.1637,-0.19771 -1.10873,-0.72647 -1.46593,-2.0118 -0.86227,-3.10274 0.25156,-0.45463 0.48624,-1.29561 0.5215,-1.86884 0.11896,-1.93375 2.62268,-2.9972 4.21714,-1.79121 0.84193,0.6368 2.27092,0.69922 2.27609,0.0994 0.002,-0.24254 -0.74795,-3.64643 -1.66676,-7.56422 -1.45267,-6.19407 -1.77401,-7.17036 -2.46352,-7.48453 -1.72012,-0.78373 -1.46306,-3.55296 0.43371,-4.67208 0.92716,-0.54704 1.22332,-0.95804 1.22332,-1.69769 0,-1.12208 1.10627,-2.69065 2.12587,-3.01426 0.46478,-0.14752 0.69679,-0.53574 0.69767,-1.16738 7.4e-4,-0.5205 0.31678,-1.46376 0.70234,-2.09612 1.73767,-2.85001 5.35892,-3.39672 7.88375,-1.19024 0.48468,0.42358 1.20892,0.53921 2.84893,0.45487 1.90897,-0.0982 2.3351,5.7e-4 3.23065,0.74863 1.11644,0.93256 2.48664,1.30348 5.30446,1.43593 3.10212,0.14581 4.76678,1.79618 4.72757,4.68697 -0.0128,0.944 0.0752,2.54358 0.19558,3.55461 0.20166,1.69379 0.14164,1.90979 -0.76375,2.74888 -0.85893,0.79604 -1.21552,1.87453 -2.83317,8.56871 -1.77967,7.36473 -1.82587,7.67928 -1.20616,8.2122 0.62329,0.53599 0.62227,0.5822 -0.0312,1.41111 l -0.67562,0.85697 0.22287,-0.96685 c 0.16794,-0.72857 0.0714,-1.02497 -0.39167,-1.20267 -0.7961,-0.3055 -1.74304,0.3034 -1.79086,1.15156 -0.0206,0.36585 -0.15668,0.94299 -0.30233,1.28254 -0.57346,1.33689 0.61001,2.16337 1.9155,1.3377 0.32906,-0.20812 0.68486,-0.18817 0.97762,0.0548 0.69712,0.57856 2.80479,0.6644 3.24646,0.13222 0.47506,-0.57241 0.12294,-1.61291 -0.54582,-1.61291 -0.27028,0 -0.49142,-0.28575 -0.49142,-0.635 0,-0.34925 -0.19844,-0.84535 -0.44098,-1.10243 -0.35511,-0.37642 -0.34284,-0.43759 0.063,-0.31414 0.27718,0.0843 0.67405,0.46134 0.88194,0.83784 0.20789,0.37651 0.57642,0.81151 0.81895,0.96667 0.5812,0.37182 0.56488,1.82172 -0.026,2.31212 -0.55472,0.46037 -3.05971,0.44529 -3.6556,-0.022 -0.26151,-0.20508 -0.68391,-0.18604 -1.12637,0.0507 -0.50373,0.26959 -0.94723,0.26985 -1.53751,0.001 -0.70059,-0.31921 -1.33824,-0.13039 -4.1014,1.21447 -2.82999,1.37738 -3.38924,1.53895 -4.1411,1.19638 -0.74913,-0.34133 -0.94578,-0.28681 -1.42299,0.3945 -0.50428,0.71996 -0.79199,0.78063 -3.22114,0.67929 -1.46707,-0.0612 -2.9986,-0.27402 -3.4034,-0.4729 z m 4.22616,-0.55799 c 0.17116,-0.27695 0.32068,-0.26201 0.51438,0.0514 0.4012,0.64916 1.40262,0.12768 1.40262,-0.7304 0,-0.49236 -0.20593,-0.71786 -0.61736,-0.676 -1.0905,0.11093 -1.16068,-0.004 -0.44097,-0.72401 0.93616,-0.93616 0.9004,-2.29296 -0.0785,-2.97861 -1.14635,-0.80293 -2.50034,-0.67732 -3.43612,0.31877 -0.65826,0.70069 -0.77966,1.13418 -0.63004,2.24973 0.16724,1.24684 0.11681,1.36387 -0.51642,1.19828 -0.54314,-0.14203 -0.6731,-0.0326 -0.57496,0.4843 0.0806,0.42464 0.47895,0.70846 1.09392,0.77944 0.83208,0.096 0.96712,-0.0148 0.96712,-0.79375 0,-0.49796 0.16945,-0.90538 0.37655,-0.90538 0.21544,0 0.28117,0.30052 0.15362,0.7024 -0.12262,0.38632 -0.12395,0.86257 -0.003,1.05833 0.29463,0.47672 1.48738,0.45372 1.78912,-0.0345 z m -8.60621,-3.01771 c 0.52949,-0.47707 0.62909,-0.45656 0.98163,0.20217 0.31808,0.59433 0.65942,0.70906 1.80316,0.60603 0.77595,-0.0699 1.47824,-0.1945 1.56065,-0.27691 0.15256,-0.15257 0.30526,-2.80257 0.22482,-3.9017 -0.0565,-0.77181 -1.28311,-1.43756 -2.14478,-1.16407 -0.36451,0.11569 -0.83065,0.69202 -1.03588,1.28072 -0.20522,0.58871 -0.52993,0.97348 -0.72156,0.85505 -0.22848,-0.14122 -0.22446,-0.54139 0.0117,-1.16251 0.2925,-0.76932 0.24419,-1.03193 -0.25729,-1.39862 -0.80397,-0.58788 -1.21562,-0.56932 -2.16795,0.0977 -0.4516,0.31632 -0.78405,0.91991 -0.78405,1.42353 0,0.48089 -0.25638,1.26564 -0.56974,1.74388 -0.5264,0.80339 -0.52423,0.93899 0.0285,1.78257 0.48569,0.74126 0.77539,0.86883 1.53988,0.67807 0.5179,-0.12923 1.20681,-0.4739 1.53092,-0.76592 z m 12.14686,-5.3231 c -0.12887,-3.444 -0.32453,-7.07483 -0.43479,-8.06853 -0.19382,-1.74661 -0.24742,-1.82079 -1.61096,-2.22931 -0.77576,-0.23243 -1.47142,-0.36165 -1.5459,-0.28717 -0.22543,0.22543 1.645,13.42106 1.99512,14.07527 0.17911,0.33467 0.32566,1.00257 0.32566,1.48423 0,0.79959 0.36569,1.18547 1.19356,1.25946 0.17766,0.0159 0.21089,-2.66411 0.0773,-6.23395 z m 3.11809,5.79144 c 0.51961,-0.37995 0.86955,-2.02078 1.82055,-8.53623 0.64751,-4.43623 1.12257,-8.12058 1.0557,-8.18746 -0.10279,-0.10279 -3.02163,0.94738 -3.03723,1.09277 -0.0648,0.60362 -1.04032,15.05126 -1.04554,15.48392 -0.009,0.73881 0.33917,0.78122 1.20652,0.147 z m 4.45368,-2.01149 c 0.3753,-0.20086 0.68236,-0.72473 0.68236,-1.16417 0,-0.43944 0.17236,-0.97133 0.38301,-1.18199 0.21066,-0.21066 1.08112,-3.37772 1.93435,-7.03792 0.85323,-3.66019 1.63735,-7.01588 1.74249,-7.45708 0.19007,-0.79761 0.18357,-0.79901 -1.1406,-0.24618 -0.73246,0.3058 -1.44142,0.66678 -1.57547,0.80218 -0.13404,0.1354 -0.89859,3.57993 -1.69898,7.65451 -0.8004,4.07459 -1.54138,7.76552 -1.64661,8.20209 -0.21045,0.87301 0.22481,1.01439 1.31945,0.42856 z m -12.08985,-1.93469 c 0.10368,-0.0836 -2.27173,-12.48085 -2.61912,-13.66923 -0.10021,-0.34281 -0.80565,-0.94135 -1.56766,-1.33009 -1.21044,-0.61752 -1.38546,-0.63553 -1.38546,-0.14252 0,0.52515 2.42718,11.38853 3.20798,14.35801 0.31872,1.21214 0.43074,1.30634 1.30437,1.0969 0.52564,-0.12601 1.00259,-0.2669 1.05989,-0.31307 z m 12.06665,-15.09247 c 5.28161,-1.97357 6.62604,-2.61898 7.03075,-3.37518 0.58852,-1.09966 0.44638,-2.42423 -0.33863,-3.15558 -0.6355,-0.59206 -0.65538,-0.71774 -0.17639,-1.11527 0.82767,-0.6869 0.6635,-2.38669 -0.32608,-3.37627 -1.05198,-1.05198 -1.92244,-1.09521 -3.11793,-0.15483 -0.88785,0.69838 -0.90786,0.69891 -1.12033,0.0295 -0.26737,-0.84244 -2.16035,-1.56167 -2.94884,-1.12041 -0.42946,0.24034 -0.71599,0.0694 -1.19003,-0.71013 -0.77635,-1.27662 -2.79708,-1.51472 -4.3389,-0.51125 -0.6317,0.41113 -0.83838,0.31586 -1.97429,-0.91007 -0.96501,-1.04148 -1.53924,-1.36926 -2.39877,-1.36926 -2.52528,0 -4.14842,1.85584 -3.85104,4.40314 0.12011,1.0288 0.045,1.21217 -0.43421,1.06007 -0.31869,-0.10115 -1.01575,0.15929 -1.54902,0.57876 -0.81407,0.64035 -0.94893,0.97913 -0.84086,2.11236 0.11635,1.22001 0.0382,1.36957 -0.81316,1.55656 -1.18226,0.25967 -2.17235,1.3249 -2.01611,2.16911 0.15183,0.82035 2.74119,2.11469 8.97276,4.48519 l 4.9047,1.86575 1.5875,-0.60493 c 0.87312,-0.33272 3.09562,-1.16848 4.93888,-1.85725 z m -7.18763,-3.22704 c -0.40839,-0.62328 -0.90514,-0.90006 -1.61541,-0.90006 -0.79506,0 -1.05101,-0.17846 -1.13839,-0.79375 -0.16926,-1.19177 -1.58011,-1.26698 -2.10622,-0.11228 -0.44381,0.97404 -0.82107,1.13646 -1.20328,0.51804 -0.13189,-0.2134 0.1,-0.80871 0.5153,-1.32292 0.41531,-0.51421 1.05258,-1.58335 1.41615,-2.37587 1.12983,-2.46279 3.71602,-2.91865 5.5193,-0.97287 0.46336,0.49997 1.05345,0.82807 1.31133,0.72911 0.74154,-0.28455 2.635,0.66912 2.8836,1.45237 0.18601,0.58607 0.43692,0.67775 1.41886,0.5184 0.9631,-0.15629 1.36778,-0.0187 2.10076,0.71428 0.92676,0.92677 1.19068,2.13461 0.55259,2.52898 -0.1954,0.12076 -0.45766,-0.0683 -0.58279,-0.42016 -0.62836,-1.76677 -1.8761,-2.31035 -2.98978,-1.30249 -0.8249,0.74653 -1.72271,0.40952 -1.4712,-0.55225 0.37151,-1.42064 -1.58002,-2.42453 -2.6443,-1.36025 -0.49428,0.49427 -0.999,0.0939 -1.18533,-0.94038 -0.0687,-0.38138 -0.55901,-0.93701 -1.08954,-1.23472 -1.10233,-0.61859 -1.93806,-0.29343 -2.6002,1.01168 -0.33766,0.66552 -0.25044,0.92252 0.60253,1.77549 0.54853,0.54853 1.40628,1.09997 1.9061,1.22541 1.04532,0.26236 1.91934,1.78462 1.35098,2.35298 -0.24658,0.24657 -0.5486,0.0755 -0.95106,-0.53874 z"
         id="path924"
         inkscape:connector-curvature="0" />
      <g
         id="g1133"
         clip-path="url(#clipPath1276)">
        <path
           style="opacity:1;fill:#ffffff;fill-opacity:1;stroke:none;stroke-width:1.90894973;stroke-linejoin:round;stroke-miterlimit:4;stroke-dasharray:none;stroke-dashoffset:0;stroke-opacity:1"
           d="m 191.55875,137.17994 c -0.17592,-0.65975 -0.81731,-2.25074 -1.42532,-3.53553 l -1.10545,-2.33598 h 0.72856 c 1.18897,0 4.55032,-1.17949 6.27888,-2.20325 2.12216,-1.25687 4.97365,-4.31005 6.03926,-6.46643 0.45685,-0.92449 1.05347,-2.55217 1.32582,-3.61707 0.47751,-1.86705 0.49519,-2.95216 0.49519,-30.392194 0,-27.494698 -0.0168,-28.521797 -0.498,-30.403197 -1.48023,-5.78764 -6.04705,-10.386285 -11.87636,-11.959117 -1.54606,-0.417149 -5.70138,-0.4429 -71.4683,-0.4429 -76.484838,0 -70.829134,-0.116097 -74.430174,1.527858 -3.607348,1.646834 -6.33484,4.387383 -8.030149,8.068591 -1.579485,3.429706 -1.508605,1.863489 -1.508605,33.335034 0,27.169875 0.02609,28.881685 0.46375,30.430845 1.302591,4.61068 4.376875,8.38854 8.51,10.45759 1.277164,0.63935 2.768048,1.23376 3.313075,1.32092 0.545027,0.0871 0.957219,0.22846 0.915981,0.31402 -0.04124,0.0856 -0.484304,0.95107 -0.984593,1.92334 -0.500288,0.97227 -1.111105,2.3928 -1.357372,3.15672 -0.246267,0.76393 -0.494318,1.47122 -0.551225,1.57176 -0.18348,0.32417 -4.188482,-1.29237 -6.251562,-2.52332 -1.148887,-0.68548 -2.94039,-2.11026 -4.201688,-3.34158 -3.420532,-3.33925 -5.40596,-6.80509 -6.615038,-11.54748 l -0.564933,-2.21585 V 88.755755 c 0,-27.836128 0.02701,-29.663942 0.466544,-31.567267 0.584952,-2.533049 1.519879,-4.931347 2.56139,-6.57054 1.233667,-1.941619 5.503122,-6.764885 6.867207,-7.757982 2.221913,-1.617625 5.101451,-2.939231 8.287604,-3.803719 l 2.020305,-0.548161 69.447983,-0.07886 c 47.78104,-0.05426 70.17895,0.0047 71.7909,0.188881 4.8285,0.55179 9.96064,2.839502 12.76676,5.690938 2.92305,2.970245 5.63689,6.61405 6.45874,8.671975 1.78511,4.469975 1.6651,1.900732 1.6651,35.648468 v 30.430842 l -0.55787,2.03685 c -1.92851,7.04125 -6.48117,12.458 -13.04918,15.52591 -1.75296,0.8188 -4.62519,1.75641 -5.38052,1.75641 -0.12476,0 -0.37078,-0.5398 -0.54671,-1.19956 z"
           id="path1282"
           inkscape:connector-curvature="0"
           clip-path="none"
           transform="matrix(0.26458333,0,0,0.26458333,130.41229,55.168083)" />
        <path
           style="opacity:1;fill:#ffffff;fill-opacity:1;stroke:none;stroke-width:1.90894973;stroke-linejoin:round;stroke-miterlimit:4;stroke-dasharray:none;stroke-dashoffset:0;stroke-opacity:1"
           d="m 66.897752,161.21146 c -3.612797,-0.80995 -7.4669,-3.16288 -9.654701,-5.89421 -4.724885,-5.89871 -5.124875,-14.20225 -0.984172,-20.43075 3.09675,-4.65818 8.602716,-7.60087 14.246827,-7.61429 7.106086,-0.0169 13.545356,4.45932 16.072182,11.17248 2.40985,6.40238 0.692104,13.65241 -4.364945,18.42298 -2.057158,1.94062 -3.753254,2.95598 -6.445568,3.85864 -2.562533,0.85914 -6.291587,1.06311 -8.869623,0.48515 z"
           id="path1284"
           inkscape:connector-curvature="0"
           transform="matrix(0.26458333,0,0,0.26458333,130.41229,55.168083)"
           clip-path="none" />
        <path
           style="opacity:1;fill:#ffffff;fill-opacity:1;stroke:none;stroke-width:1.90894973;stroke-linejoin:round;stroke-miterlimit:4;stroke-dasharray:none;stroke-dashoffset:0;stroke-opacity:1"
           d="m 94.292853,137.05551 c -0.302538,-0.99604 -0.937403,-2.58013 -1.410811,-3.52019 -0.473409,-0.94006 -0.860742,-1.76886 -0.860742,-1.84178 0,-0.0729 12.21244,-0.13257 27.13877,-0.13257 h 27.13876 l -0.95923,1.98356 c -0.52758,1.09096 -1.17402,2.73357 -1.43654,3.65024 l -0.47731,1.66667 -24.29142,0.003 -24.291408,0.003 -0.550069,-1.81098 z"
           id="path1286"
           inkscape:connector-curvature="0"
           transform="matrix(0.26458333,0,0,0.26458333,130.41229,55.168083)"
           clip-path="none" />
        <path
           style="opacity:1;fill:#ffffff;fill-opacity:1;stroke:none;stroke-width:0.50507629;stroke-linejoin:round;stroke-miterlimit:4;stroke-dasharray:none;stroke-dashoffset:0;stroke-opacity:1"
           d="m 159.97157,84.435775 v -3.674956 h -3.70837 -3.70836 v -2.204973 -2.204974 h 3.70836 3.70837 V 72.675916 69.00096 h 2.17156 2.17157 v 3.674956 3.674956 h 3.70836 3.70837 v 2.204974 2.204973 h -3.70837 -3.70836 v 3.674956 3.674956 h -2.17157 -2.17156 z"
           id="path1288"
           inkscape:connector-curvature="0"
           clip-path="none" />
        <path
           style="opacity:1;fill:#ffffff;fill-opacity:1;stroke:none;stroke-width:1.90894973;stroke-linejoin:round;stroke-miterlimit:4;stroke-dasharray:none;stroke-dashoffset:0;stroke-opacity:1"
           d="m 164.14333,161.21518 c -5.03412,-1.12977 -9.4868,-4.56991 -11.71821,-9.05349 -2.71709,-5.45948 -2.33349,-12.21441 0.9745,-17.16026 3.10244,-4.63854 7.86319,-7.36429 13.39468,-7.66909 8.15012,-0.4491 15.39066,4.83632 17.5553,12.81493 0.59243,2.18364 0.58834,6.35797 -0.008,8.58629 -1.46665,5.47648 -5.90888,10.19806 -11.25801,11.96597 -2.67723,0.88483 -6.35065,1.09671 -8.93983,0.51565 z"
           id="path1290"
           inkscape:connector-curvature="0"
           transform="matrix(0.26458333,0,0,0.26458333,130.41229,55.168083)"
           clip-path="none" />
        <path
           style="opacity:1;fill:#ffffff;fill-opacity:1;stroke:none;stroke-width:1.90894973;stroke-linejoin:round;stroke-miterlimit:4;stroke-dasharray:none;stroke-dashoffset:0;stroke-opacity:1"
           d="m 115.25481,186.62884 c -7.27118,-1.86052 -12.87628,-7.32815 -14.95294,-14.58621 -0.743281,-2.5978 -0.79519,-7.91425 -0.10184,-10.42962 1.96757,-7.13801 7.12366,-12.43125 14.30606,-14.68661 1.62062,-0.50889 2.39896,-0.59105 5.54694,-0.58551 4.20731,0.007 5.73628,0.33023 9.00915,1.9022 5.3913,2.58944 9.39631,7.52316 10.9557,13.49619 0.67838,2.59841 0.72901,6.77528 0.11479,9.47018 -0.54989,2.41266 -2.2334,5.98521 -3.78583,8.03383 -2.37259,3.13092 -6.30764,5.83731 -10.35916,7.12466 -2.5546,0.81172 -8.05741,0.94547 -10.73287,0.26089 z"
           id="path1292"
           inkscape:connector-curvature="0"
           transform="matrix(0.26458333,0,0,0.26458333,130.41229,55.168083)"
           clip-path="none" />
        <path
           style="opacity:1;fill:#ffffff;fill-opacity:1;stroke:none;stroke-width:1.90894973;stroke-linejoin:round;stroke-miterlimit:4;stroke-dasharray:none;stroke-dashoffset:0;stroke-opacity:1"
           d="M 76.742742,223.64672 C 64.830953,218.625 54.5227,212.10869 44.872091,203.49984 l -2.853342,-2.54533 v -3.47523 c 0,-6.62202 1.397945,-11.3316 4.850468,-16.34092 1.454256,-2.11 4.997715,-5.60295 7.071836,-6.97104 3.835747,-2.53005 8.410214,-4.08702 13.193328,-4.49051 11.70984,-0.98781 20.918592,2.92545 27.026513,11.48494 2.070282,2.90124 3.977561,7.54348 4.522819,11.00837 0.133976,0.85137 0.08134,0.92288 -1.430758,1.94381 -5.150351,3.47739 -9.712513,8.83386 -12.4328,14.59744 -2.057138,4.35854 -3.204707,8.89361 -3.562601,14.079 -0.105428,1.5275 -0.275633,2.46055 -0.448341,2.45778 -0.153119,-0.003 -1.983031,-0.72311 -4.066471,-1.60143 z"
           id="path1294"
           inkscape:connector-curvature="0"
           transform="matrix(0.26458333,0,0,0.26458333,130.41229,55.168083)"
           clip-path="none" />
        <path
           style="opacity:1;fill:#ffffff;fill-opacity:1;stroke:none;stroke-width:1.90894973;stroke-linejoin:round;stroke-miterlimit:4;stroke-dasharray:none;stroke-dashoffset:0;stroke-opacity:1"
           d="m 111.84554,232.0695 c -6.78429,-0.58618 -12.788193,-1.56251 -18.908803,-3.07486 l -4.261594,-1.053 0.129966,-4.0593 c 0.143388,-4.4785 0.697882,-7.21602 2.18539,-10.78917 2.912115,-6.99521 9.070901,-13.09106 16.049401,-15.88539 3.94887,-1.58121 6.37649,-2.04748 11.41899,-2.19328 7.30402,-0.21118 11.37081,0.52262 16.38439,2.95634 5.84496,2.83729 10.88585,7.83738 13.62877,13.51845 2.1614,4.47664 2.96275,7.95109 2.99813,12.99919 l 0.0238,3.40273 -4.24413,1.07077 c -4.62153,1.16599 -9.99566,2.12906 -15.32757,2.74678 -3.98808,0.46204 -16.33651,0.68391 -20.07679,0.36074 z"
           id="path1296"
           inkscape:connector-curvature="0"
           transform="matrix(0.26458333,0,0,0.26458333,130.41229,55.168083)"
           clip-path="none" />
        <path
           style="opacity:1;fill:#ffffff;fill-opacity:1;stroke:none;stroke-width:1.90894973;stroke-linejoin:round;stroke-miterlimit:4;stroke-dasharray:none;stroke-dashoffset:0;stroke-opacity:1"
           d="m 158.86318,222.15903 c -0.34079,-6.69472 -2.66798,-13.27807 -6.76229,-19.12977 -2.1075,-3.01209 -6.47341,-7.19965 -9.73152,-9.33398 l -2.81121,-1.84156 0.33772,-1.44765 c 1.14975,-4.92858 3.79295,-9.48971 7.64062,-13.18473 3.44482,-3.30817 6.97019,-5.33962 11.52891,-6.64338 4.54294,-1.29925 12.08498,-1.36528 16.84285,-0.14747 7.69214,1.96886 14.24344,7.36564 17.65328,14.54229 2.11474,4.45087 2.83189,8.194 2.70626,14.12516 l -0.0745,3.51855 -2.82397,2.44093 c -9.04553,7.81856 -19.65061,14.31823 -30.8598,18.91343 -1.71965,0.70497 -3.20814,1.28177 -3.30775,1.28177 -0.0996,0 -0.25196,-1.39212 -0.33858,-3.09359 z"
           id="path1298"
           inkscape:connector-curvature="0"
           transform="matrix(0.26458333,0,0,0.26458333,130.41229,55.168083)"
           clip-path="none" />
      </g>
    </g>
  </g>
</svg>
