<?xml version="1.0" encoding="UTF-8" standalone="no"?>
<!-- Generator: Adobe Illustrator 16.0.0, SVG Export Plug-In . SVG Version: 6.00 Build 0)  -->

<svg
   xmlns:dc="http://purl.org/dc/elements/1.1/"
   xmlns:cc="http://creativecommons.org/ns#"
   xmlns:rdf="http://www.w3.org/1999/02/22-rdf-syntax-ns#"
   xmlns:svg="http://www.w3.org/2000/svg"
   xmlns="http://www.w3.org/2000/svg"
   xmlns:sodipodi="http://sodipodi.sourceforge.net/DTD/sodipodi-0.dtd"
   xmlns:inkscape="http://www.inkscape.org/namespaces/inkscape"
   version="1.1"
   id="Layer_1"
   x="0px"
   y="0px"
   width="252.62512"
   height="252.62697"
   viewBox="0 0 252.62512 252.62697"
   enable-background="new 0 0 266.893 266.895"
   xml:space="preserve"
   sodipodi:docname="facebook_bnw.svg"
   inkscape:version="0.92.3 (2405546, 2018-03-11)"><metadata
   id="metadata9"><rdf:RDF><cc:Work
       rdf:about=""><dc:format>image/svg+xml</dc:format><dc:type
         rdf:resource="http://purl.org/dc/dcmitype/StillImage" /><dc:title></dc:title></cc:Work></rdf:RDF></metadata><defs
   id="defs7" /><sodipodi:namedview
   pagecolor="#ffffff"
   bordercolor="#666666"
   borderopacity="1"
   objecttolerance="10"
   gridtolerance="10"
   guidetolerance="10"
   inkscape:pageopacity="0"
   inkscape:pageshadow="2"
   inkscape:window-width="1920"
   inkscape:window-height="1016"
   id="namedview5"
   showgrid="false"
   fit-margin-top="0"
   fit-margin-left="0"
   fit-margin-right="0"
   fit-margin-bottom="0"
   inkscape:zoom="1.2505083"
   inkscape:cx="48.321211"
   inkscape:cy="21.440325"
   inkscape:window-x="0"
   inkscape:window-y="27"
   inkscape:window-maximized="1"
   inkscape:current-layer="Layer_1" />
<path
   style="fill:#00ffff;fill-opacity:1;fill-rule:evenodd;stroke:none;stroke-width:18.42307281;stroke-opacity:1"
   inkscape:connector-curvature="0"
   id="path2"
   d="m -225.38968,-1.8246123 c -71.11305,0 -128.96149,57.8484453 -128.96149,128.9615123 0,71.11312 57.84844,128.96157 128.96149,128.96157 8.84307,0 17.31768,-0.92115 25.42383,-2.57923 -3.13191,-1.47384 -3.68461,-13.44884 -0.36847,-20.08115 3.5004,-7.55346 14.92271,-26.71346 3.68462,-33.16152 -11.23806,-6.44808 -8.10614,-9.21154 -14.92268,-16.765 -6.81654,-7.55346 -4.05308,-8.65885 -4.60578,-10.68539 -1.47384,-6.26383 6.63232,-16.3966 7.185,-17.31775 0.36848,-1.10539 0.36848,-4.97424 0,-6.07961 0,-1.47385 -4.97422,-4.05308 -6.26384,-4.23731 -1.10538,0 -2.02654,2.02653 -3.6846,2.395 -1.65808,0.36846 -9.21155,-4.60577 -10.86962,-6.07962 -1.65808,-1.47385 -2.57923,-4.2373 -4.97423,-6.26385 -2.39499,-2.39498 -2.57923,-0.55269 -6.07961,-2.02652 -3.50039,-1.47385 -14.73846,-5.71116 -23.58153,-8.84309 -8.84308,-3.50038 -9.58,-8.65884 -9.58,-12.15922 -0.36846,-3.68462 -5.52692,-8.65884 -7.73769,-12.343466 -2.57923,-3.684613 -2.94769,-8.658844 -3.68461,-7.553459 -0.73692,1.105384 4.60577,14.370005 3.68461,14.922695 -0.92115,0.36846 -2.94769,-3.68461 -5.52692,-7.00078 -2.57923,-3.500373 2.57923,-1.658076 -5.52693,-17.501913 -8.10614,-15.843842 2.57924,-23.949993 3.13193,-32.240375 0.55269,-8.290382 7.00077,3.131922 3.50039,-2.394999 -3.50039,-5.526923 0,-16.396535 -2.57923,-20.449609 -2.395,-4.053077 -16.21231,4.605767 -16.21231,4.605767 0.36847,-4.053076 12.71192,-10.685382 21.37076,-16.949225 8.65885,-6.2638465 14.37,-1.105386 21.37077,0.921153 7.18499,2.394999 7.55346,1.658076 5.15846,-0.921153 -2.395,-2.395001 1.10538,-3.131923 6.63229,-2.395001 5.15847,0.921154 7.00078,7.55346 15.29115,6.632307 8.65884,-0.552692 0.92115,1.658076 2.02655,4.053075 1.10537,2.395 -1.1054,2.026537 -7.00077,5.526921 -5.52693,3.684615 0.36846,4.053077 10.13269,11.238075 9.76423,7.184997 7.00077,-4.605769 5.71115,-10.132691 -1.28962,-5.526921 7.18499,-1.105384 7.18499,-1.105384 6.07962,4.053077 4.97423,0.368462 9.21155,1.473846 4.2373,1.105384 16.76499,11.790767 16.76499,11.790767 -15.29115,8.106151 -5.71115,8.843074 -3.13193,10.869612 2.57923,2.026537 -5.15846,5.526921 -5.15846,5.526921 -3.13191,-3.131923 -3.50037,0.368461 -5.52691,1.473846 -2.02655,1.105384 -0.36847,4.053075 -0.36847,4.053075 -10.31692,1.658077 -8.10615,12.711919 -7.7377,15.291149 0,2.579232 -7.00075,6.632306 -8.65883,10.685382 -1.65808,3.684614 4.60576,11.790754 1.10539,12.159234 -3.50039,0.55269 -6.26385,-12.159234 -24.13423,-7.553467 -5.52693,1.473847 -17.31768,7.553467 -10.86961,19.896927 6.63231,12.71192 16.94922,-3.50038 20.4496,-1.65808 3.50039,1.84231 -1.10539,9.76423 -0.36845,10.13269 0.73692,0.36845 9.76423,0.36845 10.31691,11.23807 0.55269,10.86962 14.18577,9.76423 16.94923,10.1327 3.13192,0 12.89614,-8.10615 14.18576,-8.2904 1.10538,-0.55269 7.00078,-5.15844 18.97577,1.65809 12.15922,6.63231 18.05462,5.71115 22.1077,8.65884 4.05307,2.94769 1.47384,8.65883 5.15846,10.68538 3.6846,2.02654 19.52844,-0.55269 23.58152,5.71123 4.05307,6.26385 -16.21231,38.50422 -22.47613,42.00461 -6.26385,3.50037 -8.84308,11.79075 -15.47538,16.94922 -6.63232,5.15845 -14.92272,11.79077 -23.39732,16.765 -7.55346,4.23729 -8.65885,12.15922 -12.15924,14.73845 57.84846,-12.89615 100.958452,-64.48076 100.958452,-126.01388 0,-71.113066 -57.848442,-128.9615153 -128.961502,-128.9615153 z m 30.21384,120.8553623 c -1.65808,0.55268 -5.15848,4.05308 -14.37,-1.47386 -8.84308,-5.52691 -14.92269,-4.23729 -15.84384,-5.15845 0,0 -0.92116,-2.02653 3.13192,-2.57923 8.10615,-0.92116 18.05461,7.55346 20.44961,7.55346 2.39499,0 3.50038,-2.395 7.55345,-0.92116 4.05308,1.47384 0.92116,2.395 -0.92114,2.57924 z M -237.54891,11.071539 c -0.92115,-0.552693 0.55269,-1.4738465 1.65806,-2.5792315 0.5527,-0.5526918 0.36848,-2.0265418 0.92116,-2.5792268 2.02654,-2.026543 11.23809,-4.60577 9.58001,0.552685 -2.02654,4.9742343 -10.68539,5.5269253 -12.15923,4.6057733 z m 22.66037,16.396534 c -3.50038,-0.368462 -10.68538,-0.921154 -9.57999,-2.579232 5.52693,-5.158459 -1.65807,-7.000766 -6.26385,-7.000766 -4.60577,-0.368462 -6.26384,-2.94769 -4.05307,-3.500384 2.21075,-0.552692 11.23807,0.368462 12.89615,1.473846 1.47384,1.105385 9.58,4.605768 10.13268,7.000766 0.36846,2.395 0,4.60577 -3.13192,4.60577 z m 27.08192,-0.921154 c -2.57923,1.658076 -15.29114,-7.553459 -17.50192,-9.579997 -10.31692,-8.8430743 -16.39653,-5.711153 -18.42306,-7.5534605 -2.02654,-1.8423068 -1.47386,-3.5003808 2.02653,-6.2638468 3.50038,-2.76345595 12.71191,1.10539 18.42306,1.658075 5.52692,0.552695 12.15924,4.9742328 12.15924,10.1326953 0.36846,4.605767 6.07961,9.211535 3.50038,11.606534 z" />
<g
   id="g824"
   transform="translate(-49.676633,2.1688176)"><path
     style="fill:none;stroke:#ffffff;stroke-width:13.8073349;stroke-miterlimit:4;stroke-dasharray:none;stroke-opacity:1"
     inkscape:connector-curvature="0"
     d="m 282.21811,243.55449 c 7.27804,0 13.17998,-5.90194 13.17998,-13.18183 V 17.915759 c 0,-7.280821 -5.90101,-13.1809092 -13.17998,-13.1809092 H 69.76121 c -7.28082,0 -13.18091,5.9000882 -13.18091,13.1809092 V 230.37266 c 0,7.27896 5.89916,13.18183 13.18091,13.18183 z"
     id="Blue_1_" /><path
     style="fill:#ffffff;stroke-width:0.9266668"
     inkscape:connector-curvature="0"
     d="m 221.36112,243.55449 v -92.48413 h 31.04241 l 4.64816,-36.0427 H 221.36112 V 92.016675 c 0,-10.435199 2.89769,-17.54644 17.8615,-17.54644 l 19.08563,-0.0083 V 42.22501 c -3.30079,-0.43924 -14.63021,-1.420581 -27.81112,-1.420581 -27.51737,0 -46.35651,16.796763 -46.35651,47.642726 v 26.580505 h -31.12211 v 36.0427 h 31.12211 v 92.48413 z"
     id="f" /></g>
</svg>