<?xml version="1.0" encoding="UTF-8" standalone="no"?>
<!-- Created with Inkscape (http://www.inkscape.org/) -->

<svg
   xmlns:dc="http://purl.org/dc/elements/1.1/"
   xmlns:cc="http://creativecommons.org/ns#"
   xmlns:rdf="http://www.w3.org/1999/02/22-rdf-syntax-ns#"
   xmlns:svg="http://www.w3.org/2000/svg"
   xmlns="http://www.w3.org/2000/svg"
   xmlns:sodipodi="http://sodipodi.sourceforge.net/DTD/sodipodi-0.dtd"
   xmlns:inkscape="http://www.inkscape.org/namespaces/inkscape"
   width="63.5mm"
   height="63.500004mm"
   viewBox="0 0 63.5 63.500004"
   version="1.1"
   id="svg8"
   inkscape:version="0.92.3 (2405546, 2018-03-11)"
   sodipodi:docname="invite_user_image.svg">
  <defs
     id="defs2">
    <filter
       id="filter832"
       inkscape:label="Invert"
       style="color-interpolation-filters:sRGB">
      <feColorMatrix
         id="feColorMatrix830"
         result="fbSourceGraphic"
         values="1 0 0 0 0 0 1 0 0 0 0 0 1 0 0 -0.21 -0.72 -0.07 2 0 " />
      <feColorMatrix
         id="feColorMatrix834"
         values="0 0 0 -1 0 0 0 0 -1 0 0 0 0 -1 0 0 0 0 1 0"
         in="fbSourceGraphic"
         result="fbSourceGraphicAlpha" />
      <feColorMatrix
         in="fbSourceGraphic"
         result="fbSourceGraphic"
         values="1 0 0 0 0 0 1 0 0 0 0 0 1 0 0 -0.21 -0.72 -0.07 2 0 "
         id="feColorMatrix836" />
      <feColorMatrix
         id="feColorMatrix838"
         values="0 0 0 -1 0 0 0 0 -1 0 0 0 0 -1 0 0 0 0 1 0"
         in="fbSourceGraphic"
         result="fbSourceGraphicAlpha" />
      <feColorMatrix
         in="fbSourceGraphic"
         result="fbSourceGraphic"
         values="0 0 1 0 0 0 1 0 0 0 1 0 0 0 0 -0.21 -0.72 -0.07 2 0 "
         id="feColorMatrix840" />
      <feColorMatrix
         id="feColorMatrix842"
         values="0 0 0 -1 0 0 0 0 -1 0 0 0 0 -1 0 0 0 0 1 0"
         in="fbSourceGraphic"
         result="fbSourceGraphicAlpha" />
      <feColorMatrix
         in="fbSourceGraphic"
         result="color2"
         values="0 0 1 0 0 0 1 0 0 0 1 0 0 0 0 -0.21 -0.72 -0.07 2 0 "
         id="feColorMatrix844" />
    </filter>
    <clipPath
       id="clipPath841"
       clipPathUnits="userSpaceOnUse">
      <circle
         r="26.79377"
         cy="171.03062"
         cx="128.95216"
         id="circle843"
         style="opacity:1;fill:#ffff00;fill-opacity:1;stroke:none;stroke-width:1;stroke-linejoin:round;stroke-miterlimit:4;stroke-dasharray:none;stroke-dashoffset:0;stroke-opacity:1" />
    </clipPath>
    <clipPath
       clipPathUnits="userSpaceOnUse"
       id="clipPath868">
      <rect
         style="opacity:1;fill:none;fill-opacity:1;stroke:#000000;stroke-width:1;stroke-linejoin:round;stroke-miterlimit:4;stroke-dasharray:none;stroke-dashoffset:0;stroke-opacity:1"
         id="rect870"
         width="63.5"
         height="70.55555"
         x="36.285713"
         y="116.20139" />
    </clipPath>
    <clipPath
       clipPathUnits="userSpaceOnUse"
       id="clipPath872">
      <rect
         style="opacity:1;fill:none;fill-opacity:1;stroke:#000000;stroke-width:1;stroke-linejoin:round;stroke-miterlimit:4;stroke-dasharray:none;stroke-dashoffset:0;stroke-opacity:1"
         id="rect874"
         width="63.5"
         height="70.55555"
         x="36.285713"
         y="116.20139" />
    </clipPath>
    <clipPath
       clipPathUnits="userSpaceOnUse"
       id="clipPath876">
      <rect
         style="opacity:1;fill:none;fill-opacity:1;stroke:#000000;stroke-width:1;stroke-linejoin:round;stroke-miterlimit:4;stroke-dasharray:none;stroke-dashoffset:0;stroke-opacity:1"
         id="rect878"
         width="63.5"
         height="70.55555"
         x="36.285713"
         y="116.20139" />
    </clipPath>
    <clipPath
       clipPathUnits="userSpaceOnUse"
       id="clipPath837">
      <rect
         style="opacity:1;fill:#000000;fill-opacity:1;stroke:#fffffa;stroke-width:0.11583145;stroke-linejoin:round;stroke-miterlimit:4;stroke-dasharray:none;stroke-dashoffset:0;stroke-opacity:1"
         id="rect839"
         width="65.568871"
         height="65.568871"
         x="34.211842"
         y="121.18307" />
    </clipPath>
    <clipPath
       clipPathUnits="userSpaceOnUse"
       id="clipPath876-3">
      <rect
         style="opacity:1;fill:none;fill-opacity:1;stroke:#000000;stroke-width:1;stroke-linejoin:round;stroke-miterlimit:4;stroke-dasharray:none;stroke-dashoffset:0;stroke-opacity:1"
         id="rect878-6"
         width="63.5"
         height="70.55555"
         x="36.285713"
         y="116.20139" />
    </clipPath>
    <clipPath
       clipPathUnits="userSpaceOnUse"
       id="clipPath872-7">
      <rect
         style="opacity:1;fill:none;fill-opacity:1;stroke:#000000;stroke-width:1;stroke-linejoin:round;stroke-miterlimit:4;stroke-dasharray:none;stroke-dashoffset:0;stroke-opacity:1"
         id="rect874-5"
         width="63.5"
         height="70.55555"
         x="36.285713"
         y="116.20139" />
    </clipPath>
    <clipPath
       clipPathUnits="userSpaceOnUse"
       id="clipPath868-3">
      <rect
         style="opacity:1;fill:none;fill-opacity:1;stroke:#000000;stroke-width:1;stroke-linejoin:round;stroke-miterlimit:4;stroke-dasharray:none;stroke-dashoffset:0;stroke-opacity:1"
         id="rect870-5"
         width="63.5"
         height="70.55555"
         x="36.285713"
         y="116.20139" />
    </clipPath>
    <clipPath
       clipPathUnits="userSpaceOnUse"
       id="clipPath865">
      <circle
         style="opacity:1;fill:#ff00ff;fill-opacity:1;stroke:none;stroke-width:2.47487378;stroke-linejoin:round;stroke-miterlimit:4;stroke-dasharray:none;stroke-dashoffset:0;stroke-opacity:1"
         id="circle867"
         cx="55.373508"
         cy="132.70134"
         r="31.75" />
    </clipPath>
  </defs>
  <sodipodi:namedview
     id="base"
     pagecolor="#ffffff"
     bordercolor="#666666"
     borderopacity="1.0"
     inkscape:pageopacity="0.0"
     inkscape:pageshadow="2"
     inkscape:zoom="2"
     inkscape:cx="175.8589"
     inkscape:cy="71.906629"
     inkscape:document-units="mm"
     inkscape:current-layer="layer1"
     showgrid="false"
     fit-margin-top="0"
     fit-margin-left="0"
     fit-margin-right="0"
     fit-margin-bottom="0"
     inkscape:window-width="1920"
     inkscape:window-height="1016"
     inkscape:window-x="0"
     inkscape:window-y="27"
     inkscape:window-maximized="1" />
  <metadata
     id="metadata5">
    <rdf:RDF>
      <cc:Work
         rdf:about="">
        <dc:format>image/svg+xml</dc:format>
        <dc:type
           rdf:resource="http://purl.org/dc/dcmitype/StillImage" />
        <dc:title></dc:title>
      </cc:Work>
    </rdf:RDF>
  </metadata>
  <g
     inkscape:label="Layer 1"
     inkscape:groupmode="layer"
     id="layer1"
     transform="translate(-23.62351,-100.95134)">
    <path
       style="opacity:1;fill:#ffffff;fill-opacity:1;stroke:none;stroke-width:0.35355341;stroke-linejoin:round;stroke-miterlimit:4;stroke-dasharray:none;stroke-dashoffset:0;stroke-opacity:1"
       d="m 54.229742,137.72265 c -2.944219,-0.2472 -5.674253,-1.32159 -7.958092,-3.13185 -0.63078,-0.49999 -1.840326,-1.70953 -2.340308,-2.34031 -1.683751,-2.12423 -2.707457,-4.585 -3.066901,-7.37216 -0.09411,-0.72975 -0.107575,-2.47697 -0.02464,-3.19835 0.477695,-4.15532 2.498868,-7.70594 5.806031,-10.19954 3.410104,-2.57122 7.993709,-3.49291 12.195464,-2.45232 2.68347,0.66458 4.989809,1.98835 6.93755,3.98196 3.738287,3.82633 5.0733,9.3573 3.498196,14.49303 -0.602514,1.96455 -1.782686,4.01221 -3.187837,5.5311 -2.38759,2.58084 -5.499939,4.18236 -8.976014,4.61878 -0.701717,0.0881 -2.225394,0.12491 -2.883445,0.0697 z m 3.360772,-8.6059 v -3.695 h 3.695457 3.695454 l -0.01215,-2.23337 -0.01214,-2.23337 -3.683307,-0.012 -3.68331,-0.012 v -3.69516 -3.69518 l -2.233369,0.0122 -2.233371,0.0121 -0.01199,3.68302 -0.01199,3.68303 -3.683025,0.012 -3.683025,0.012 -0.01215,2.23337 -0.01215,2.23337 h 3.695455 3.695456 v 3.69501 3.695 h 2.245063 2.245064 z"
       id="path877"
       inkscape:connector-curvature="0" />
    <path
       style="opacity:1;fill:#ffffff;fill-opacity:1;stroke:none;stroke-width:0.35355341;stroke-linejoin:round;stroke-miterlimit:4;stroke-dasharray:none;stroke-dashoffset:0;stroke-opacity:1"
       d="m 54.580056,164.42048 c -6.516849,-0.15311 -12.941183,-2.38017 -18.194374,-6.30727 -1.19714,-0.89494 -2.92326,-2.3846 -2.92326,-2.52281 0,-0.12413 0.394903,-1.29473 0.6868,-2.03588 1.079624,-2.74123 2.786956,-5.28359 4.979014,-7.41417 2.131826,-2.07204 4.449861,-3.58114 7.065268,-4.59965 2.986389,-1.16299 4.936018,-1.46924 9.392151,-1.47529 2.47091,-0.003 3.841864,0.10273 5.425573,0.41985 2.447745,0.49014 5.118184,1.61254 7.345722,3.08744 2.633131,1.74345 4.987684,4.17855 6.57633,6.80131 0.836562,1.38112 1.672431,3.22989 2.143299,4.74053 l 0.172813,0.55442 -0.132734,0.14079 c -0.073,0.0774 -0.39583,0.37335 -0.717388,0.65759 -5.022908,4.44 -11.293189,7.16609 -17.983899,7.81877 -0.660148,0.0644 -3.064541,0.1794 -3.250665,0.15548 -0.03859,-0.005 -0.301681,-0.0144 -0.58465,-0.0211 z"
       id="path879"
       inkscape:connector-curvature="0" />
  </g>
</svg>
