<?xml version="1.0" encoding="UTF-8" standalone="no"?>
<!-- Created with Inkscape (http://www.inkscape.org/) -->

<svg
   xmlns:dc="http://purl.org/dc/elements/1.1/"
   xmlns:cc="http://creativecommons.org/ns#"
   xmlns:rdf="http://www.w3.org/1999/02/22-rdf-syntax-ns#"
   xmlns:svg="http://www.w3.org/2000/svg"
   xmlns="http://www.w3.org/2000/svg"
   xmlns:sodipodi="http://sodipodi.sourceforge.net/DTD/sodipodi-0.dtd"
   xmlns:inkscape="http://www.inkscape.org/namespaces/inkscape"
   width="47.813984mm"
   height="47.813984mm"
   viewBox="0 0 47.813984 47.813984"
   version="1.1"
   id="svg8"
   inkscape:version="0.92.3 (2405546, 2018-03-11)"
   sodipodi:docname="popcorn.svg">
  <defs
     id="defs2" />
  <sodipodi:namedview
     id="base"
     pagecolor="#ffffff"
     bordercolor="#666666"
     borderopacity="1.0"
     inkscape:pageopacity="0.0"
     inkscape:pageshadow="2"
     inkscape:zoom="2.8"
     inkscape:cx="90.084904"
     inkscape:cy="86.127589"
     inkscape:document-units="mm"
     inkscape:current-layer="layer1"
     showgrid="false"
     fit-margin-top="0"
     fit-margin-left="0"
     fit-margin-right="0"
     fit-margin-bottom="0"
     inkscape:window-width="1920"
     inkscape:window-height="1016"
     inkscape:window-x="0"
     inkscape:window-y="27"
     inkscape:window-maximized="1" />
  <metadata
     id="metadata5">
    <rdf:RDF>
      <cc:Work
         rdf:about="">
        <dc:format>image/svg+xml</dc:format>
        <dc:type
           rdf:resource="http://purl.org/dc/dcmitype/StillImage" />
        <dc:title></dc:title>
      </cc:Work>
    </rdf:RDF>
  </metadata>
  <g
     inkscape:label="Layer 1"
     inkscape:groupmode="layer"
     id="layer1"
     transform="translate(-158.46653,-84.29389)">
    <g
       id="g918"
       transform="translate(20.625768,-38.732836)"
       style="fill:#ffffff;fill-opacity:1;stroke:none">
      <path
         style="fill:#ffffff;fill-opacity:1;stroke:none;stroke-width:0.35277778"
         d="m 153.99275,166.33739 c -0.4048,-0.19888 -0.78857,-0.7288 -0.85281,-1.17759 -0.093,-0.64935 -0.27781,-0.77557 -0.90528,-0.61808 -0.43367,0.10884 -1.11149,-0.0283 -1.50626,-0.30485 -0.57048,-0.39958 -0.97797,-0.42289 -1.98578,-0.11359 -1.04623,0.3211 -1.42467,0.28652 -2.1637,-0.19771 -1.10873,-0.72647 -1.46593,-2.0118 -0.86227,-3.10274 0.25156,-0.45463 0.48624,-1.29561 0.5215,-1.86884 0.11896,-1.93375 2.62268,-2.9972 4.21714,-1.79121 0.84193,0.6368 2.27092,0.69922 2.27609,0.0994 0.002,-0.24254 -0.74795,-3.64643 -1.66676,-7.56422 -1.45267,-6.19407 -1.77401,-7.17036 -2.46352,-7.48453 -1.72012,-0.78373 -1.46306,-3.55296 0.43371,-4.67208 0.92716,-0.54704 1.22332,-0.95804 1.22332,-1.69769 0,-1.12208 1.10627,-2.69065 2.12587,-3.01426 0.46478,-0.14752 0.69679,-0.53574 0.69767,-1.16738 7.4e-4,-0.5205 0.31678,-1.46376 0.70234,-2.09612 1.73767,-2.85001 5.35892,-3.39672 7.88375,-1.19024 0.48468,0.42358 1.20892,0.53921 2.84893,0.45487 1.90897,-0.0982 2.3351,5.7e-4 3.23065,0.74863 1.11644,0.93256 2.48664,1.30348 5.30446,1.43593 3.10212,0.14581 4.76678,1.79618 4.72757,4.68697 -0.0128,0.944 0.0752,2.54358 0.19558,3.55461 0.20166,1.69379 0.14164,1.90979 -0.76375,2.74888 -0.85893,0.79604 -1.21552,1.87453 -2.83317,8.56871 -1.77967,7.36473 -1.82587,7.67928 -1.20616,8.2122 0.62329,0.53599 0.62227,0.5822 -0.0312,1.41111 l -0.67562,0.85697 0.22287,-0.96685 c 0.16794,-0.72857 0.0714,-1.02497 -0.39167,-1.20267 -0.7961,-0.3055 -1.74304,0.3034 -1.79086,1.15156 -0.0206,0.36585 -0.15668,0.94299 -0.30233,1.28254 -0.57346,1.33689 0.61001,2.16337 1.9155,1.3377 0.32906,-0.20812 0.68486,-0.18817 0.97762,0.0548 0.69712,0.57856 2.80479,0.6644 3.24646,0.13222 0.47506,-0.57241 0.12294,-1.61291 -0.54582,-1.61291 -0.27028,0 -0.49142,-0.28575 -0.49142,-0.635 0,-0.34925 -0.19844,-0.84535 -0.44098,-1.10243 -0.35511,-0.37642 -0.34284,-0.43759 0.063,-0.31414 0.27718,0.0843 0.67405,0.46134 0.88194,0.83784 0.20789,0.37651 0.57642,0.81151 0.81895,0.96667 0.5812,0.37182 0.56488,1.82172 -0.026,2.31212 -0.55472,0.46037 -3.05971,0.44529 -3.6556,-0.022 -0.26151,-0.20508 -0.68391,-0.18604 -1.12637,0.0507 -0.50373,0.26959 -0.94723,0.26985 -1.53751,0.001 -0.70059,-0.31921 -1.33824,-0.13039 -4.1014,1.21447 -2.82999,1.37738 -3.38924,1.53895 -4.1411,1.19638 -0.74913,-0.34133 -0.94578,-0.28681 -1.42299,0.3945 -0.50428,0.71996 -0.79199,0.78063 -3.22114,0.67929 -1.46707,-0.0612 -2.9986,-0.27402 -3.4034,-0.4729 z m 4.22616,-0.55799 c 0.17116,-0.27695 0.32068,-0.26201 0.51438,0.0514 0.4012,0.64916 1.40262,0.12768 1.40262,-0.7304 0,-0.49236 -0.20593,-0.71786 -0.61736,-0.676 -1.0905,0.11093 -1.16068,-0.004 -0.44097,-0.72401 0.93616,-0.93616 0.9004,-2.29296 -0.0785,-2.97861 -1.14635,-0.80293 -2.50034,-0.67732 -3.43612,0.31877 -0.65826,0.70069 -0.77966,1.13418 -0.63004,2.24973 0.16724,1.24684 0.11681,1.36387 -0.51642,1.19828 -0.54314,-0.14203 -0.6731,-0.0326 -0.57496,0.4843 0.0806,0.42464 0.47895,0.70846 1.09392,0.77944 0.83208,0.096 0.96712,-0.0148 0.96712,-0.79375 0,-0.49796 0.16945,-0.90538 0.37655,-0.90538 0.21544,0 0.28117,0.30052 0.15362,0.7024 -0.12262,0.38632 -0.12395,0.86257 -0.003,1.05833 0.29463,0.47672 1.48738,0.45372 1.78912,-0.0345 z m -8.60621,-3.01771 c 0.52949,-0.47707 0.62909,-0.45656 0.98163,0.20217 0.31808,0.59433 0.65942,0.70906 1.80316,0.60603 0.77595,-0.0699 1.47824,-0.1945 1.56065,-0.27691 0.15256,-0.15257 0.30526,-2.80257 0.22482,-3.9017 -0.0565,-0.77181 -1.28311,-1.43756 -2.14478,-1.16407 -0.36451,0.11569 -0.83065,0.69202 -1.03588,1.28072 -0.20522,0.58871 -0.52993,0.97348 -0.72156,0.85505 -0.22848,-0.14122 -0.22446,-0.54139 0.0117,-1.16251 0.2925,-0.76932 0.24419,-1.03193 -0.25729,-1.39862 -0.80397,-0.58788 -1.21562,-0.56932 -2.16795,0.0977 -0.4516,0.31632 -0.78405,0.91991 -0.78405,1.42353 0,0.48089 -0.25638,1.26564 -0.56974,1.74388 -0.5264,0.80339 -0.52423,0.93899 0.0285,1.78257 0.48569,0.74126 0.77539,0.86883 1.53988,0.67807 0.5179,-0.12923 1.20681,-0.4739 1.53092,-0.76592 z m 12.14686,-5.3231 c -0.12887,-3.444 -0.32453,-7.07483 -0.43479,-8.06853 -0.19382,-1.74661 -0.24742,-1.82079 -1.61096,-2.22931 -0.77576,-0.23243 -1.47142,-0.36165 -1.5459,-0.28717 -0.22543,0.22543 1.645,13.42106 1.99512,14.07527 0.17911,0.33467 0.32566,1.00257 0.32566,1.48423 0,0.79959 0.36569,1.18547 1.19356,1.25946 0.17766,0.0159 0.21089,-2.66411 0.0773,-6.23395 z m 3.11809,5.79144 c 0.51961,-0.37995 0.86955,-2.02078 1.82055,-8.53623 0.64751,-4.43623 1.12257,-8.12058 1.0557,-8.18746 -0.10279,-0.10279 -3.02163,0.94738 -3.03723,1.09277 -0.0648,0.60362 -1.04032,15.05126 -1.04554,15.48392 -0.009,0.73881 0.33917,0.78122 1.20652,0.147 z m 4.45368,-2.01149 c 0.3753,-0.20086 0.68236,-0.72473 0.68236,-1.16417 0,-0.43944 0.17236,-0.97133 0.38301,-1.18199 0.21066,-0.21066 1.08112,-3.37772 1.93435,-7.03792 0.85323,-3.66019 1.63735,-7.01588 1.74249,-7.45708 0.19007,-0.79761 0.18357,-0.79901 -1.1406,-0.24618 -0.73246,0.3058 -1.44142,0.66678 -1.57547,0.80218 -0.13404,0.1354 -0.89859,3.57993 -1.69898,7.65451 -0.8004,4.07459 -1.54138,7.76552 -1.64661,8.20209 -0.21045,0.87301 0.22481,1.01439 1.31945,0.42856 z m -12.08985,-1.93469 c 0.10368,-0.0836 -2.27173,-12.48085 -2.61912,-13.66923 -0.10021,-0.34281 -0.80565,-0.94135 -1.56766,-1.33009 -1.21044,-0.61752 -1.38546,-0.63553 -1.38546,-0.14252 0,0.52515 2.42718,11.38853 3.20798,14.35801 0.31872,1.21214 0.43074,1.30634 1.30437,1.0969 0.52564,-0.12601 1.00259,-0.2669 1.05989,-0.31307 z m 12.06665,-15.09247 c 5.28161,-1.97357 6.62604,-2.61898 7.03075,-3.37518 0.58852,-1.09966 0.44638,-2.42423 -0.33863,-3.15558 -0.6355,-0.59206 -0.65538,-0.71774 -0.17639,-1.11527 0.82767,-0.6869 0.6635,-2.38669 -0.32608,-3.37627 -1.05198,-1.05198 -1.92244,-1.09521 -3.11793,-0.15483 -0.88785,0.69838 -0.90786,0.69891 -1.12033,0.0295 -0.26737,-0.84244 -2.16035,-1.56167 -2.94884,-1.12041 -0.42946,0.24034 -0.71599,0.0694 -1.19003,-0.71013 -0.77635,-1.27662 -2.79708,-1.51472 -4.3389,-0.51125 -0.6317,0.41113 -0.83838,0.31586 -1.97429,-0.91007 -0.96501,-1.04148 -1.53924,-1.36926 -2.39877,-1.36926 -2.52528,0 -4.14842,1.85584 -3.85104,4.40314 0.12011,1.0288 0.045,1.21217 -0.43421,1.06007 -0.31869,-0.10115 -1.01575,0.15929 -1.54902,0.57876 -0.81407,0.64035 -0.94893,0.97913 -0.84086,2.11236 0.11635,1.22001 0.0382,1.36957 -0.81316,1.55656 -1.18226,0.25967 -2.17235,1.3249 -2.01611,2.16911 0.15183,0.82035 2.74119,2.11469 8.97276,4.48519 l 4.9047,1.86575 1.5875,-0.60493 c 0.87312,-0.33272 3.09562,-1.16848 4.93888,-1.85725 z m -7.18763,-3.22704 c -0.40839,-0.62328 -0.90514,-0.90006 -1.61541,-0.90006 -0.79506,0 -1.05101,-0.17846 -1.13839,-0.79375 -0.16926,-1.19177 -1.58011,-1.26698 -2.10622,-0.11228 -0.44381,0.97404 -0.82107,1.13646 -1.20328,0.51804 -0.13189,-0.2134 0.1,-0.80871 0.5153,-1.32292 0.41531,-0.51421 1.05258,-1.58335 1.41615,-2.37587 1.12983,-2.46279 3.71602,-2.91865 5.5193,-0.97287 0.46336,0.49997 1.05345,0.82807 1.31133,0.72911 0.74154,-0.28455 2.635,0.66912 2.8836,1.45237 0.18601,0.58607 0.43692,0.67775 1.41886,0.5184 0.9631,-0.15629 1.36778,-0.0187 2.10076,0.71428 0.92676,0.92677 1.19068,2.13461 0.55259,2.52898 -0.1954,0.12076 -0.45766,-0.0683 -0.58279,-0.42016 -0.62836,-1.76677 -1.8761,-2.31035 -2.98978,-1.30249 -0.8249,0.74653 -1.72271,0.40952 -1.4712,-0.55225 0.37151,-1.42064 -1.58002,-2.42453 -2.6443,-1.36025 -0.49428,0.49427 -0.999,0.0939 -1.18533,-0.94038 -0.0687,-0.38138 -0.55901,-0.93701 -1.08954,-1.23472 -1.10233,-0.61859 -1.93806,-0.29343 -2.6002,1.01168 -0.33766,0.66552 -0.25044,0.92252 0.60253,1.77549 0.54853,0.54853 1.40628,1.09997 1.9061,1.22541 1.04532,0.26236 1.91934,1.78462 1.35098,2.35298 -0.24658,0.24657 -0.5486,0.0755 -0.95106,-0.53874 z"
         id="path924"
         inkscape:connector-curvature="0" />
      <path
         style="fill:#ffffff;fill-opacity:1;stroke:none;stroke-width:0.35277778"
         d="m 153.99275,166.33739 c -0.4048,-0.19888 -0.78857,-0.7288 -0.85281,-1.17759 -0.093,-0.64935 -0.27781,-0.77557 -0.90528,-0.61808 -0.43367,0.10884 -1.11149,-0.0283 -1.50626,-0.30485 -0.57048,-0.39958 -0.97797,-0.42289 -1.98578,-0.11359 -1.04623,0.3211 -1.42467,0.28652 -2.1637,-0.19771 -1.10873,-0.72647 -1.46593,-2.0118 -0.86227,-3.10274 0.25156,-0.45463 0.48624,-1.29561 0.5215,-1.86884 0.11896,-1.93375 2.62268,-2.9972 4.21714,-1.79121 0.84193,0.6368 2.27092,0.69922 2.27609,0.0994 0.002,-0.24254 -0.74795,-3.64643 -1.66676,-7.56422 -1.45267,-6.19407 -1.77401,-7.17036 -2.46352,-7.48453 -1.72012,-0.78373 -1.46306,-3.55296 0.43371,-4.67208 0.92716,-0.54704 1.22332,-0.95804 1.22332,-1.69769 0,-1.12208 1.10627,-2.69065 2.12587,-3.01426 0.46478,-0.14752 0.69679,-0.53574 0.69767,-1.16738 7.4e-4,-0.5205 0.31678,-1.46376 0.70234,-2.09612 1.73767,-2.85001 5.35892,-3.39672 7.88375,-1.19024 0.48468,0.42358 1.20892,0.53921 2.84893,0.45487 1.90897,-0.0982 2.3351,5.7e-4 3.23065,0.74863 1.11644,0.93256 2.48664,1.30348 5.30446,1.43593 3.10212,0.14581 4.76678,1.79618 4.72757,4.68697 -0.0128,0.944 0.0752,2.54358 0.19558,3.55461 0.20166,1.69379 0.14164,1.90979 -0.76375,2.74888 -0.85893,0.79604 -1.21552,1.87453 -2.83317,8.56871 -1.77967,7.36473 -1.82587,7.67928 -1.20616,8.2122 0.62329,0.53599 0.62227,0.5822 -0.0312,1.41111 l -0.67562,0.85697 0.22287,-0.96685 c 0.16794,-0.72857 0.0714,-1.02497 -0.39167,-1.20267 -0.7961,-0.3055 -1.74304,0.3034 -1.79086,1.15156 -0.0206,0.36585 -0.15668,0.94299 -0.30233,1.28254 -0.57346,1.33689 0.61001,2.16337 1.9155,1.3377 0.32906,-0.20812 0.68486,-0.18817 0.97762,0.0548 0.69712,0.57856 2.80479,0.6644 3.24646,0.13222 0.47506,-0.57241 0.12294,-1.61291 -0.54582,-1.61291 -0.27028,0 -0.49142,-0.28575 -0.49142,-0.635 0,-0.34925 -0.19844,-0.84535 -0.44098,-1.10243 -0.35511,-0.37642 -0.34284,-0.43759 0.063,-0.31414 0.27718,0.0843 0.67405,0.46134 0.88194,0.83784 0.20789,0.37651 0.57642,0.81151 0.81895,0.96667 0.5812,0.37182 0.56488,1.82172 -0.026,2.31212 -0.55472,0.46037 -3.05971,0.44529 -3.6556,-0.022 -0.26151,-0.20508 -0.68391,-0.18604 -1.12637,0.0507 -0.50373,0.26959 -0.94723,0.26985 -1.53751,0.001 -0.70059,-0.31921 -1.33824,-0.13039 -4.1014,1.21447 -2.82999,1.37738 -3.38924,1.53895 -4.1411,1.19638 -0.74913,-0.34133 -0.94578,-0.28681 -1.42299,0.3945 -0.50428,0.71996 -0.79199,0.78063 -3.22114,0.67929 -1.46707,-0.0612 -2.9986,-0.27402 -3.4034,-0.4729 z m 4.22616,-0.55799 c 0.17116,-0.27695 0.32068,-0.26201 0.51438,0.0514 0.4012,0.64916 1.40262,0.12768 1.40262,-0.7304 0,-0.49236 -0.20593,-0.71786 -0.61736,-0.676 -1.0905,0.11093 -1.16068,-0.004 -0.44097,-0.72401 0.93616,-0.93616 0.9004,-2.29296 -0.0785,-2.97861 -1.14635,-0.80293 -2.50034,-0.67732 -3.43612,0.31877 -0.65826,0.70069 -0.77966,1.13418 -0.63004,2.24973 0.16724,1.24684 0.11681,1.36387 -0.51642,1.19828 -0.54314,-0.14203 -0.6731,-0.0326 -0.57496,0.4843 0.0806,0.42464 0.47895,0.70846 1.09392,0.77944 0.83208,0.096 0.96712,-0.0148 0.96712,-0.79375 0,-0.49796 0.16945,-0.90538 0.37655,-0.90538 0.21544,0 0.28117,0.30052 0.15362,0.7024 -0.12262,0.38632 -0.12395,0.86257 -0.003,1.05833 0.29463,0.47672 1.48738,0.45372 1.78912,-0.0345 z m -8.60621,-3.01771 c 0.52949,-0.47707 0.62909,-0.45656 0.98163,0.20217 0.31808,0.59433 0.65942,0.70906 1.80316,0.60603 0.77595,-0.0699 1.47824,-0.1945 1.56065,-0.27691 0.15256,-0.15257 0.30526,-2.80257 0.22482,-3.9017 -0.0565,-0.77181 -1.28311,-1.43756 -2.14478,-1.16407 -0.36451,0.11569 -0.83065,0.69202 -1.03588,1.28072 -0.20522,0.58871 -0.52993,0.97348 -0.72156,0.85505 -0.22848,-0.14122 -0.22446,-0.54139 0.0117,-1.16251 0.2925,-0.76932 0.24419,-1.03193 -0.25729,-1.39862 -0.80397,-0.58788 -1.21562,-0.56932 -2.16795,0.0977 -0.4516,0.31632 -0.78405,0.91991 -0.78405,1.42353 0,0.48089 -0.25638,1.26564 -0.56974,1.74388 -0.5264,0.80339 -0.52423,0.93899 0.0285,1.78257 0.48569,0.74126 0.77539,0.86883 1.53988,0.67807 0.5179,-0.12923 1.20681,-0.4739 1.53092,-0.76592 z m 12.14686,-5.3231 c -0.12887,-3.444 -0.32453,-7.07483 -0.43479,-8.06853 -0.19382,-1.74661 -0.24742,-1.82079 -1.61096,-2.22931 -0.77576,-0.23243 -1.47142,-0.36165 -1.5459,-0.28717 -0.22543,0.22543 1.645,13.42106 1.99512,14.07527 0.17911,0.33467 0.32566,1.00257 0.32566,1.48423 0,0.79959 0.36569,1.18547 1.19356,1.25946 0.17766,0.0159 0.21089,-2.66411 0.0773,-6.23395 z m 3.11809,5.79144 c 0.51961,-0.37995 0.86955,-2.02078 1.82055,-8.53623 0.64751,-4.43623 1.12257,-8.12058 1.0557,-8.18746 -0.10279,-0.10279 -3.02163,0.94738 -3.03723,1.09277 -0.0648,0.60362 -1.04032,15.05126 -1.04554,15.48392 -0.009,0.73881 0.33917,0.78122 1.20652,0.147 z m 4.45368,-2.01149 c 0.3753,-0.20086 0.68236,-0.72473 0.68236,-1.16417 0,-0.43944 0.17236,-0.97133 0.38301,-1.18199 0.21066,-0.21066 1.08112,-3.37772 1.93435,-7.03792 0.85323,-3.66019 1.63735,-7.01588 1.74249,-7.45708 0.19007,-0.79761 0.18357,-0.79901 -1.1406,-0.24618 -0.73246,0.3058 -1.44142,0.66678 -1.57547,0.80218 -0.13404,0.1354 -0.89859,3.57993 -1.69898,7.65451 -0.8004,4.07459 -1.54138,7.76552 -1.64661,8.20209 -0.21045,0.87301 0.22481,1.01439 1.31945,0.42856 z m -12.08985,-1.93469 c 0.10368,-0.0836 -2.27173,-12.48085 -2.61912,-13.66923 -0.10021,-0.34281 -0.80565,-0.94135 -1.56766,-1.33009 -1.21044,-0.61752 -1.38546,-0.63553 -1.38546,-0.14252 0,0.52515 2.42718,11.38853 3.20798,14.35801 0.31872,1.21214 0.43074,1.30634 1.30437,1.0969 0.52564,-0.12601 1.00259,-0.2669 1.05989,-0.31307 z m 12.06665,-15.09247 c 5.28161,-1.97357 6.62604,-2.61898 7.03075,-3.37518 0.58852,-1.09966 0.44638,-2.42423 -0.33863,-3.15558 -0.6355,-0.59206 -0.65538,-0.71774 -0.17639,-1.11527 0.82767,-0.6869 0.6635,-2.38669 -0.32608,-3.37627 -1.05198,-1.05198 -1.92244,-1.09521 -3.11793,-0.15483 -0.88785,0.69838 -0.90786,0.69891 -1.12033,0.0295 -0.26737,-0.84244 -2.16035,-1.56167 -2.94884,-1.12041 -0.42946,0.24034 -0.71599,0.0694 -1.19003,-0.71013 -0.77635,-1.27662 -2.79708,-1.51472 -4.3389,-0.51125 -0.6317,0.41113 -0.83838,0.31586 -1.97429,-0.91007 -0.96501,-1.04148 -1.53924,-1.36926 -2.39877,-1.36926 -2.52528,0 -4.14842,1.85584 -3.85104,4.40314 0.12011,1.0288 0.045,1.21217 -0.43421,1.06007 -0.31869,-0.10115 -1.01575,0.15929 -1.54902,0.57876 -0.81407,0.64035 -0.94893,0.97913 -0.84086,2.11236 0.11635,1.22001 0.0382,1.36957 -0.81316,1.55656 -1.18226,0.25967 -2.17235,1.3249 -2.01611,2.16911 0.15183,0.82035 2.74119,2.11469 8.97276,4.48519 l 4.9047,1.86575 1.5875,-0.60493 c 0.87312,-0.33272 3.09562,-1.16848 4.93888,-1.85725 z m -7.18763,-3.22704 c -0.40839,-0.62328 -0.90514,-0.90006 -1.61541,-0.90006 -0.79506,0 -1.05101,-0.17846 -1.13839,-0.79375 -0.16926,-1.19177 -1.58011,-1.26698 -2.10622,-0.11228 -0.44381,0.97404 -0.82107,1.13646 -1.20328,0.51804 -0.13189,-0.2134 0.1,-0.80871 0.5153,-1.32292 0.41531,-0.51421 1.05258,-1.58335 1.41615,-2.37587 1.12983,-2.46279 3.71602,-2.91865 5.5193,-0.97287 0.46336,0.49997 1.05345,0.82807 1.31133,0.72911 0.74154,-0.28455 2.635,0.66912 2.8836,1.45237 0.18601,0.58607 0.43692,0.67775 1.41886,0.5184 0.9631,-0.15629 1.36778,-0.0187 2.10076,0.71428 0.92676,0.92677 1.19068,2.13461 0.55259,2.52898 -0.1954,0.12076 -0.45766,-0.0683 -0.58279,-0.42016 -0.62836,-1.76677 -1.8761,-2.31035 -2.98978,-1.30249 -0.8249,0.74653 -1.72271,0.40952 -1.4712,-0.55225 0.37151,-1.42064 -1.58002,-2.42453 -2.6443,-1.36025 -0.49428,0.49427 -0.999,0.0939 -1.18533,-0.94038 -0.0687,-0.38138 -0.55901,-0.93701 -1.08954,-1.23472 -1.10233,-0.61859 -1.93806,-0.29343 -2.6002,1.01168 -0.33766,0.66552 -0.25044,0.92252 0.60253,1.77549 0.54853,0.54853 1.40628,1.09997 1.9061,1.22541 1.04532,0.26236 1.91934,1.78462 1.35098,2.35298 -0.24658,0.24657 -0.5486,0.0755 -0.95106,-0.53874 z"
         id="path922"
         inkscape:connector-curvature="0" />
      <path
         style="fill:#ffffff;fill-opacity:1;stroke:none;stroke-width:0.35277778"
         d="m 153.99275,166.33739 c -0.4048,-0.19888 -0.78857,-0.7288 -0.85281,-1.17759 -0.093,-0.64935 -0.27781,-0.77557 -0.90528,-0.61808 -0.43367,0.10884 -1.11149,-0.0283 -1.50626,-0.30485 -0.57048,-0.39958 -0.97797,-0.42289 -1.98578,-0.11359 -1.04623,0.3211 -1.42467,0.28652 -2.1637,-0.19771 -1.10873,-0.72647 -1.46593,-2.0118 -0.86227,-3.10274 0.25156,-0.45463 0.48624,-1.29561 0.5215,-1.86884 0.11896,-1.93375 2.62268,-2.9972 4.21714,-1.79121 0.84193,0.6368 2.27092,0.69922 2.27609,0.0994 0.002,-0.24254 -0.74795,-3.64643 -1.66676,-7.56422 -1.45267,-6.19407 -1.77401,-7.17036 -2.46352,-7.48453 -1.72012,-0.78373 -1.46306,-3.55296 0.43371,-4.67208 0.92716,-0.54704 1.22332,-0.95804 1.22332,-1.69769 0,-1.12208 1.10627,-2.69065 2.12587,-3.01426 0.46478,-0.14752 0.69679,-0.53574 0.69767,-1.16738 7.4e-4,-0.5205 0.31678,-1.46376 0.70234,-2.09612 1.73767,-2.85001 5.35892,-3.39672 7.88375,-1.19024 0.48468,0.42358 1.20892,0.53921 2.84893,0.45487 1.90897,-0.0982 2.3351,5.7e-4 3.23065,0.74863 1.11644,0.93256 2.48664,1.30348 5.30446,1.43593 3.10212,0.14581 4.76678,1.79618 4.72757,4.68697 -0.0128,0.944 0.0752,2.54358 0.19558,3.55461 0.20166,1.69379 0.14164,1.90979 -0.76375,2.74888 -0.85893,0.79604 -1.21552,1.87453 -2.83317,8.56871 -1.77967,7.36473 -1.82587,7.67928 -1.20616,8.2122 0.62329,0.53599 0.62227,0.5822 -0.0312,1.41111 l -0.67562,0.85697 0.22287,-0.96685 c 0.16794,-0.72857 0.0714,-1.02497 -0.39167,-1.20267 -0.7961,-0.3055 -1.74304,0.3034 -1.79086,1.15156 -0.0206,0.36585 -0.15668,0.94299 -0.30233,1.28254 -0.57346,1.33689 0.61001,2.16337 1.9155,1.3377 0.32906,-0.20812 0.68486,-0.18817 0.97762,0.0548 0.69712,0.57856 2.80479,0.6644 3.24646,0.13222 0.47506,-0.57241 0.12294,-1.61291 -0.54582,-1.61291 -0.27028,0 -0.49142,-0.28575 -0.49142,-0.635 0,-0.34925 -0.19844,-0.84535 -0.44098,-1.10243 -0.35511,-0.37642 -0.34284,-0.43759 0.063,-0.31414 0.27718,0.0843 0.67405,0.46134 0.88194,0.83784 0.20789,0.37651 0.57642,0.81151 0.81895,0.96667 0.5812,0.37182 0.56488,1.82172 -0.026,2.31212 -0.55472,0.46037 -3.05971,0.44529 -3.6556,-0.022 -0.26151,-0.20508 -0.68391,-0.18604 -1.12637,0.0507 -0.50373,0.26959 -0.94723,0.26985 -1.53751,0.001 -0.70059,-0.31921 -1.33824,-0.13039 -4.1014,1.21447 -2.82999,1.37738 -3.38924,1.53895 -4.1411,1.19638 -0.74913,-0.34133 -0.94578,-0.28681 -1.42299,0.3945 -0.50428,0.71996 -0.79199,0.78063 -3.22114,0.67929 -1.46707,-0.0612 -2.9986,-0.27402 -3.4034,-0.4729 z m 4.22616,-0.55799 c 0.17116,-0.27695 0.32068,-0.26201 0.51438,0.0514 0.4012,0.64916 1.40262,0.12768 1.40262,-0.7304 0,-0.49236 -0.20593,-0.71786 -0.61736,-0.676 -1.0905,0.11093 -1.16068,-0.004 -0.44097,-0.72401 0.93616,-0.93616 0.9004,-2.29296 -0.0785,-2.97861 -1.14635,-0.80293 -2.50034,-0.67732 -3.43612,0.31877 -0.65826,0.70069 -0.77966,1.13418 -0.63004,2.24973 0.16724,1.24684 0.11681,1.36387 -0.51642,1.19828 -0.54314,-0.14203 -0.6731,-0.0326 -0.57496,0.4843 0.0806,0.42464 0.47895,0.70846 1.09392,0.77944 0.83208,0.096 0.96712,-0.0148 0.96712,-0.79375 0,-0.49796 0.16945,-0.90538 0.37655,-0.90538 0.21544,0 0.28117,0.30052 0.15362,0.7024 -0.12262,0.38632 -0.12395,0.86257 -0.003,1.05833 0.29463,0.47672 1.48738,0.45372 1.78912,-0.0345 z m -8.60621,-3.01771 c 0.52949,-0.47707 0.62909,-0.45656 0.98163,0.20217 0.31808,0.59433 0.65942,0.70906 1.80316,0.60603 0.77595,-0.0699 1.47824,-0.1945 1.56065,-0.27691 0.15256,-0.15257 0.30526,-2.80257 0.22482,-3.9017 -0.0565,-0.77181 -1.28311,-1.43756 -2.14478,-1.16407 -0.36451,0.11569 -0.83065,0.69202 -1.03588,1.28072 -0.20522,0.58871 -0.52993,0.97348 -0.72156,0.85505 -0.22848,-0.14122 -0.22446,-0.54139 0.0117,-1.16251 0.2925,-0.76932 0.24419,-1.03193 -0.25729,-1.39862 -0.80397,-0.58788 -1.21562,-0.56932 -2.16795,0.0977 -0.4516,0.31632 -0.78405,0.91991 -0.78405,1.42353 0,0.48089 -0.25638,1.26564 -0.56974,1.74388 -0.5264,0.80339 -0.52423,0.93899 0.0285,1.78257 0.48569,0.74126 0.77539,0.86883 1.53988,0.67807 0.5179,-0.12923 1.20681,-0.4739 1.53092,-0.76592 z m 12.14686,-5.3231 c -0.12887,-3.444 -0.32453,-7.07483 -0.43479,-8.06853 -0.19382,-1.74661 -0.24742,-1.82079 -1.61096,-2.22931 -0.77576,-0.23243 -1.47142,-0.36165 -1.5459,-0.28717 -0.22543,0.22543 1.645,13.42106 1.99512,14.07527 0.17911,0.33467 0.32566,1.00257 0.32566,1.48423 0,0.79959 0.36569,1.18547 1.19356,1.25946 0.17766,0.0159 0.21089,-2.66411 0.0773,-6.23395 z m 3.11809,5.79144 c 0.51961,-0.37995 0.86955,-2.02078 1.82055,-8.53623 0.64751,-4.43623 1.12257,-8.12058 1.0557,-8.18746 -0.10279,-0.10279 -3.02163,0.94738 -3.03723,1.09277 -0.0648,0.60362 -1.04032,15.05126 -1.04554,15.48392 -0.009,0.73881 0.33917,0.78122 1.20652,0.147 z m 4.45368,-2.01149 c 0.3753,-0.20086 0.68236,-0.72473 0.68236,-1.16417 0,-0.43944 0.17236,-0.97133 0.38301,-1.18199 0.21066,-0.21066 1.08112,-3.37772 1.93435,-7.03792 0.85323,-3.66019 1.63735,-7.01588 1.74249,-7.45708 0.19007,-0.79761 0.18357,-0.79901 -1.1406,-0.24618 -0.73246,0.3058 -1.44142,0.66678 -1.57547,0.80218 -0.13404,0.1354 -0.89859,3.57993 -1.69898,7.65451 -0.8004,4.07459 -1.54138,7.76552 -1.64661,8.20209 -0.21045,0.87301 0.22481,1.01439 1.31945,0.42856 z m -12.08985,-1.93469 c 0.10368,-0.0836 -2.27173,-12.48085 -2.61912,-13.66923 -0.10021,-0.34281 -0.80565,-0.94135 -1.56766,-1.33009 -1.21044,-0.61752 -1.38546,-0.63553 -1.38546,-0.14252 0,0.52515 2.42718,11.38853 3.20798,14.35801 0.31872,1.21214 0.43074,1.30634 1.30437,1.0969 0.52564,-0.12601 1.00259,-0.2669 1.05989,-0.31307 z m 12.06665,-15.09247 c 5.28161,-1.97357 6.62604,-2.61898 7.03075,-3.37518 0.58852,-1.09966 0.44638,-2.42423 -0.33863,-3.15558 -0.6355,-0.59206 -0.65538,-0.71774 -0.17639,-1.11527 0.82767,-0.6869 0.6635,-2.38669 -0.32608,-3.37627 -1.05198,-1.05198 -1.92244,-1.09521 -3.11793,-0.15483 -0.88785,0.69838 -0.90786,0.69891 -1.12033,0.0295 -0.26737,-0.84244 -2.16035,-1.56167 -2.94884,-1.12041 -0.42946,0.24034 -0.71599,0.0694 -1.19003,-0.71013 -0.77635,-1.27662 -2.79708,-1.51472 -4.3389,-0.51125 -0.6317,0.41113 -0.83838,0.31586 -1.97429,-0.91007 -0.96501,-1.04148 -1.53924,-1.36926 -2.39877,-1.36926 -2.52528,0 -4.14842,1.85584 -3.85104,4.40314 0.12011,1.0288 0.045,1.21217 -0.43421,1.06007 -0.31869,-0.10115 -1.01575,0.15929 -1.54902,0.57876 -0.81407,0.64035 -0.94893,0.97913 -0.84086,2.11236 0.11635,1.22001 0.0382,1.36957 -0.81316,1.55656 -1.18226,0.25967 -2.17235,1.3249 -2.01611,2.16911 0.15183,0.82035 2.74119,2.11469 8.97276,4.48519 l 4.9047,1.86575 1.5875,-0.60493 c 0.87312,-0.33272 3.09562,-1.16848 4.93888,-1.85725 z m -7.18763,-3.22704 c -0.40839,-0.62328 -0.90514,-0.90006 -1.61541,-0.90006 -0.79506,0 -1.05101,-0.17846 -1.13839,-0.79375 -0.16926,-1.19177 -1.58011,-1.26698 -2.10622,-0.11228 -0.44381,0.97404 -0.82107,1.13646 -1.20328,0.51804 -0.13189,-0.2134 0.1,-0.80871 0.5153,-1.32292 0.41531,-0.51421 1.05258,-1.58335 1.41615,-2.37587 1.12983,-2.46279 3.71602,-2.91865 5.5193,-0.97287 0.46336,0.49997 1.05345,0.82807 1.31133,0.72911 0.74154,-0.28455 2.635,0.66912 2.8836,1.45237 0.18601,0.58607 0.43692,0.67775 1.41886,0.5184 0.9631,-0.15629 1.36778,-0.0187 2.10076,0.71428 0.92676,0.92677 1.19068,2.13461 0.55259,2.52898 -0.1954,0.12076 -0.45766,-0.0683 -0.58279,-0.42016 -0.62836,-1.76677 -1.8761,-2.31035 -2.98978,-1.30249 -0.8249,0.74653 -1.72271,0.40952 -1.4712,-0.55225 0.37151,-1.42064 -1.58002,-2.42453 -2.6443,-1.36025 -0.49428,0.49427 -0.999,0.0939 -1.18533,-0.94038 -0.0687,-0.38138 -0.55901,-0.93701 -1.08954,-1.23472 -1.10233,-0.61859 -1.93806,-0.29343 -2.6002,1.01168 -0.33766,0.66552 -0.25044,0.92252 0.60253,1.77549 0.54853,0.54853 1.40628,1.09997 1.9061,1.22541 1.04532,0.26236 1.91934,1.78462 1.35098,2.35298 -0.24658,0.24657 -0.5486,0.0755 -0.95106,-0.53874 z"
         id="path920"
         inkscape:connector-curvature="0" />
    </g>
  </g>
</svg>
