<?xml version="1.0" encoding="UTF-8" standalone="no"?>
<!-- Created with Inkscape (http://www.inkscape.org/) -->

<svg
   xmlns:dc="http://purl.org/dc/elements/1.1/"
   xmlns:cc="http://creativecommons.org/ns#"
   xmlns:rdf="http://www.w3.org/1999/02/22-rdf-syntax-ns#"
   xmlns:svg="http://www.w3.org/2000/svg"
   xmlns="http://www.w3.org/2000/svg"
   xmlns:sodipodi="http://sodipodi.sourceforge.net/DTD/sodipodi-0.dtd"
   xmlns:inkscape="http://www.inkscape.org/namespaces/inkscape"
   width="210.67288mm"
   height="210.87926mm"
   viewBox="0 0 210.67288 210.87926"
   version="1.1"
   id="svg8"
   inkscape:version="0.92.3 (2405546, 2018-03-11)"
   sodipodi:docname="send.svg">
  <defs
     id="defs2" />
  <sodipodi:namedview
     id="base"
     pagecolor="#ffffff"
     bordercolor="#666666"
     borderopacity="1.0"
     inkscape:pageopacity="0.0"
     inkscape:pageshadow="2"
     inkscape:zoom="0.7"
     inkscape:cx="247.70903"
     inkscape:cy="355.91222"
     inkscape:document-units="mm"
     inkscape:current-layer="layer1"
     showgrid="false"
     fit-margin-top="0"
     fit-margin-left="0"
     fit-margin-right="0"
     fit-margin-bottom="0"
     inkscape:window-width="1920"
     inkscape:window-height="1016"
     inkscape:window-x="0"
     inkscape:window-y="27"
     inkscape:window-maximized="1" />
  <metadata
     id="metadata5">
    <rdf:RDF>
      <cc:Work
         rdf:about="">
        <dc:format>image/svg+xml</dc:format>
        <dc:type
           rdf:resource="http://purl.org/dc/dcmitype/StillImage" />
        <dc:title />
      </cc:Work>
    </rdf:RDF>
  </metadata>
  <g
     inkscape:label="Layer 1"
     inkscape:groupmode="layer"
     id="layer1"
     transform="translate(9.9728541,-8.3242138)">
    <path
       style="opacity:1;fill:#ffffff;fill-opacity:1;stroke:none;stroke-width:0.56699997;stroke-linejoin:round;stroke-miterlimit:4;stroke-dasharray:none;stroke-dashoffset:0;stroke-opacity:1"
       d="m 69.589744,218.63229 c -1.617821,-0.84141 -2.799458,-2.02801 -3.627559,-3.64277 -0.681884,-1.32965 -0.719169,-2.50996 -0.719169,-22.76736 v -21.365 l 43.582374,-53.39485 c 55.48182,-67.973413 55.81825,-68.387163 56.2476,-69.175347 0.97118,-1.782871 -0.45647,-0.629451 -17.4443,14.093571 C 68.937382,130.58072 40.914116,154.64418 40.357136,154.49414 39.773277,154.33686 -1.6699891,137.39918 -5.4414391,135.77647 c -0.937092,-0.4032 -2.340328,-1.43765 -3.118304,-2.29877 -1.360298,-1.50569 -1.414447,-1.67065 -1.413088,-4.30492 0.0017,-3.26373 0.654691,-4.58025 3.088351,-6.22636 1.961821,-1.32696 2.934073,-1.88975 90.6483311,-52.47121 C 121.9111,48.477146 160.7765,26.064229 170.13141,20.668721 188.67134,9.975691 191.82869,8.3117616 193.55527,8.3242836 c 2.72927,0.019793 6.19843,2.7323314 6.94293,5.4286814 0.42117,1.525359 1.32918,-4.2619827 -11.09651,70.72522 -9.31748,56.229635 -16.79594,100.698345 -18.56115,110.369045 -1.09169,5.9808 -1.70386,7.15625 -4.40897,8.46577 -3.26553,1.58081 -1.45991,2.17915 -36.33954,-12.0419 -11.8352,-4.82543 -21.93952,-8.80131 -22.45403,-8.83529 -1.13836,-0.0752 -2.05758,0.95692 -16.149099,18.13232 -13.567856,16.53715 -14.431631,17.52268 -15.892951,18.13326 -1.667894,0.69689 -4.598223,0.66318 -6.006206,-0.0691 z"
       id="path4544"
       inkscape:connector-curvature="0" />
  </g>
</svg>
